<svg xmlns="http://www.w3.org/2000/svg" viewBox="0 0 60.45 80.26"><defs><style>.cls-1{fill:#6967af;}.cls-2{fill:#fbae48;}.cls-3{fill:#462b73;}.cls-4{fill:#9dd0c4;}.cls-5{fill:#939598;}</style></defs><g id="Layer_2" data-name="Layer 2"><g id="Page_1" data-name="Page 1"><g id="_Icon9_" data-name="&lt;Icon9&gt;"><path class="cls-1" d="M51.43,14.68H45a.58.58,0,0,0-.44.26,1.19,1.19,0,0,0-.17.63v2.48h8L52,15.41C52,15,51.72,14.68,51.43,14.68Z"/><polygon class="cls-1" points="44.4 46.47 55.93 46.47 52.54 19.43 44.4 19.43 44.4 46.47"/><polygon class="cls-2" points="44.4 19.43 52.54 19.43 52.36 18.05 44.4 18.05 44.4 19.43"/><path class="cls-3" d="M56,46.47H44.21l-21.73-24a.46.46,0,0,0-.64-.09,1,1,0,0,0-.34.8V45L1.08,22.42a.46.46,0,0,0-.64-.09,1,1,0,0,0-.34.8V79.37A1.11,1.11,0,0,0,.28,80a.55.55,0,0,0,.43.26H59.84a.58.58,0,0,0,.47-.32,1.23,1.23,0,0,0,.13-.72l-3.83-32C56.56,46.78,56.31,46.47,56,46.47ZM14.73,53.75a1,1,0,0,1-.16.54.45.45,0,0,1-.37.23H6.27a.47.47,0,0,1-.38-.23,1,1,0,0,1-.15-.54V50.36a1.1,1.1,0,0,1,.15-.55.48.48,0,0,1,.38-.22H14.2a.45.45,0,0,1,.37.23,1,1,0,0,1,.16.54Zm21.33,0a1,1,0,0,1-.16.54.45.45,0,0,1-.37.23H27.6a.47.47,0,0,1-.38-.23,1,1,0,0,1-.15-.54V50.36a1,1,0,0,1,.15-.55.48.48,0,0,1,.38-.22h7.93a.45.45,0,0,1,.37.23,1,1,0,0,1,.16.54Z"/><path class="cls-4" d="M6.27,49.59a.48.48,0,0,0-.38.22,1.1,1.1,0,0,0-.15.55v3.39a1,1,0,0,0,.15.54.47.47,0,0,0,.38.23H14.2a.45.45,0,0,0,.37-.23,1,1,0,0,0,.16-.54V50.36a1,1,0,0,0-.16-.54.45.45,0,0,0-.37-.23Z"/><path class="cls-4" d="M27.6,49.59a.48.48,0,0,0-.38.22,1,1,0,0,0-.15.55v3.39a1,1,0,0,0,.15.54.47.47,0,0,0,.38.23h7.93a.45.45,0,0,0,.37-.23,1,1,0,0,0,.16-.54V50.36a1,1,0,0,0-.16-.54.45.45,0,0,0-.37-.23Z"/><polygon class="cls-2" points="0.01 19.39 20.8 42.38 20.79 39.08 0 16.09 0.01 19.39"/><polygon class="cls-2" points="21.82 20.35 42.61 43.34 42.6 40.04 21.81 17.05 21.82 20.35"/><path class="cls-5" d="M42.71,1.46A6.23,6.23,0,0,0,38.63,0a6.12,6.12,0,0,0-4.39,1.77,10,10,0,0,0-1.36-.1c-3.17,0-5.75,1.48-5.75,3.3s2.58,3.29,5.75,3.29a10,10,0,0,0,1.36-.1,6.12,6.12,0,0,0,4.39,1.77,6.17,6.17,0,0,0,4.08-1.46,6.17,6.17,0,0,0,4.07,1.46c3.18,0,5.76-2.22,5.76-5S50,0,46.78,0A6.22,6.22,0,0,0,42.71,1.46Z"/></g></g></g></svg>