<svg xmlns="http://www.w3.org/2000/svg" xmlns:xlink="http://www.w3.org/1999/xlink" viewBox="0 0 82.93 84.88"><defs><style>.cls-1{isolation:isolate;}.cls-2{fill:#4b6873;}.cls-3{fill:#6967af;}.cls-4,.cls-7,.cls-8{opacity:0.5;mix-blend-mode:multiply;}.cls-4{fill:url(#Degradado_sin_nombre_2);}.cls-5{fill:url(#Degradado_sin_nombre_22);}.cls-6{fill:url(#Degradado_sin_nombre_22-2);}.cls-7{fill:url(#Degradado_sin_nombre_2-2);}.cls-8{fill:url(#Degradado_sin_nombre_2-3);}.cls-9{fill:#4e5862;}.cls-10{fill:url(#Degradado_sin_nombre_22-3);}.cls-11{fill:url(#Degradado_sin_nombre_22-4);}.cls-12{fill:url(#Degradado_sin_nombre_22-5);}.cls-13{fill:#20252c;}.cls-14{fill:#fbae48;}.cls-15{fill:#070008;}</style><linearGradient id="Degradado_sin_nombre_2" x1="20.04" y1="30.71" x2="20.34" y2="38.48" gradientUnits="userSpaceOnUse"><stop offset="0" stop-color="#f9a02b"/><stop offset="1" stop-color="#fac32a"/></linearGradient><linearGradient id="Degradado_sin_nombre_22" x1="37.85" y1="21.16" x2="40.17" y2="21.16" gradientUnits="userSpaceOnUse"><stop offset="0" stop-color="#00293b"/><stop offset="1" stop-color="#093f4f"/></linearGradient><linearGradient id="Degradado_sin_nombre_22-2" x1="80.61" y1="21.16" x2="82.93" y2="21.16" xlink:href="#Degradado_sin_nombre_22"/><linearGradient id="Degradado_sin_nombre_2-2" x1="14.29" y1="83.81" x2="25.72" y2="83.81" xlink:href="#Degradado_sin_nombre_2"/><linearGradient id="Degradado_sin_nombre_2-3" x1="19.85" y1="22.31" x2="20.11" y2="19.55" xlink:href="#Degradado_sin_nombre_2"/><linearGradient id="Degradado_sin_nombre_22-3" x1="20.08" y1="10.73" x2="20.04" y2="9.39" xlink:href="#Degradado_sin_nombre_22"/><linearGradient id="Degradado_sin_nombre_22-4" x1="19.73" y1="6.81" x2="19.83" y2="4.94" xlink:href="#Degradado_sin_nombre_22"/><linearGradient id="Degradado_sin_nombre_22-5" x1="13.02" y1="83.45" x2="26.99" y2="83.45" xlink:href="#Degradado_sin_nombre_22"/></defs><g class="cls-1"><g id="Layer_2" data-name="Layer 2"><g id="Page_1" data-name="Page 1"><g id="_Icon1_" data-name="&lt;Icon1&gt;"><polygon class="cls-2" points="74.99 11.25 19.97 0.54 7.49 11.18 7.03 10.85 19.76 0 75.14 10.78 74.99 11.25"/><rect class="cls-2" x="40.11" y="21.37" width="41.66" height="0.62"/><path class="cls-3" d="M75,10.65H7.26L0,17.84v1.72H14.29V84.87H25.72V19.56H82.93v-.78ZM1.74,17.84l2.2-2.18,2.15,2.18Zm5.2-.94-2.1-2.13,2.1-2.07Zm1.71.94V13.33l4.44,4.51Zm5.32-.9L9.71,12.6H14Zm2.52-4.1H22.3l-5.81,5.71Zm0,9h5.77l-5.77,5.68Zm0,9H22.3l-5.81,5.71Zm0,9h5.69l-5.69,5.59Zm0,9h5.56L16.49,54.3Zm0,9h5.83l-5.83,5.73Zm0,9h5.79l-5.79,5.69Zm0,9h5.74l-5.74,5.64Zm6.72,6.92h-5.7l5.7-5.6Zm0-9.11H17.66l5.55-5.45Zm0-9h-5.5l5.5-5.4Zm0-9H17.44L23.21,50Zm0-9H17.56l5.65-5.55Zm0-9H17.68l5.53-5.43Zm0-9H17.65l5.56-5.46Zm0-9H17.7l5.51-5.42Zm3.46-1.8V13.3l4.46,4.54ZM32,16.9l-4.23-4.3H32Zm1.72.94V13.33l4.43,4.51Zm5.31-.9L34.75,12.6H39Zm1.71.9V13.31l4.46,4.53ZM46,16.91,41.8,12.6H46Zm1.72.93V13.4l4.36,4.44ZM53.07,17,48.74,12.6h4.33Zm1.71.83V13.5l4.27,4.34Zm5.32-.74-4.43-4.5H60.1Zm1.71.74V13.29l4.48,4.55Zm5.32-.95L62.91,12.6h4.22Zm1.71.95V13.32l4.44,4.52Zm5.32-.91L69.91,12.6h4.25Zm1.71.91V13.36l4.41,4.48Z"/><rect class="cls-4" x="14.29" y="28.83" width="11.43" height="2"/><path class="cls-5" d="M37.85,19.56h2.33a0,0,0,0,1,0,0v2.18a1,1,0,0,1-1,1h-.27a1,1,0,0,1-1-1V19.56a0,0,0,0,1,0,0Z"/><path class="cls-6" d="M80.61,19.56h2.33a0,0,0,0,1,0,0v2.18a1,1,0,0,1-1,1h-.27a1,1,0,0,1-1-1V19.56A0,0,0,0,1,80.61,19.56Z"/><rect class="cls-7" x="14.29" y="82.75" width="11.43" height="2.13"/><rect class="cls-8" x="14.29" y="19.64" width="11.43" height="2.19"/><rect class="cls-9" x="14.29" y="21.83" width="11.43" height="9.97"/><path class="cls-10" d="M15.94,7.69H24.2a2.6,2.6,0,0,1,2.6,2.6v.34a0,0,0,0,1,0,0H13.34a0,0,0,0,1,0,0V10.3a2.6,2.6,0,0,1,2.6-2.6Z"/><path class="cls-11" d="M19.77,0H20a.69.69,0,0,1,.69.69v7a0,0,0,0,1,0,0H19.08a0,0,0,0,1,0,0v-7A.69.69,0,0,1,19.77,0Z"/><path class="cls-12" d="M15.54,82h8.92A2.53,2.53,0,0,1,27,84.54v.33a0,0,0,0,1,0,0H13a0,0,0,0,1,0,0v-.33A2.53,2.53,0,0,1,15.54,82Z"/><path class="cls-13" d="M61.79,58.82A3.82,3.82,0,0,0,61,60.53a1.5,1.5,0,0,0,1,1.61,1.48,1.48,0,0,0,1.68-.47,1.85,1.85,0,0,0,.07-1.32,2.75,2.75,0,0,1,0-.48c0-.14-.24-.18-.26,0A3.11,3.11,0,0,1,63.22,61a.6.6,0,0,1-1-.06c-.16-.46.33-1.24.33-1.24Z"/><polygon class="cls-14" points="63.56 53.8 62.29 53.8 61.01 53.8 60.21 54.71 60.21 56.68 61.94 59.67 62.29 59.67 62.63 59.67 64.36 56.68 64.36 54.71 63.56 53.8"/><polygon class="cls-15" points="60.96 53.94 59.81 22.46 60.14 22.44 61.29 53.92 60.96 53.94"/><polygon class="cls-15" points="63.62 53.92 63.28 53.91 64.43 22.44 64.76 22.46 63.62 53.92"/><rect class="cls-14" x="58.57" y="22" width="7.31" height="2.01"/></g></g></g></g></svg>