<svg xmlns="http://www.w3.org/2000/svg" viewBox="0 0 76.23 55.18"><defs><style>.cls-1{fill:#462b73;isolation:isolate;}.cls-2{fill:#f3f2f1;}.cls-3{fill:#6fa29a;}.cls-4{fill:#5a8b82;}</style></defs><g id="Layer_2" data-name="Layer 2"><g id="Page_1" data-name="Page 1"><g id="_Icon11_" data-name="&lt;Icon11&gt;"><rect class="cls-1" width="76.23" height="55.18" rx="6.63"/><rect class="cls-2" x="6.54" y="5.58" width="60.97" height="45.06"/><path class="cls-3" d="M3.68,46.94c0-8-.06-16-.06-24,0-5.83.06-11.67,0-17.5C3.62,4.29,4.14,4,5,4c6.86,0,13.72.14,20.58,0C29.77,4,33.93,4,38.08,4c4.6-.07,9.21,0,13.82,0,6,0,12,0,18,0C72,4,72,4,71.64,6.2c-1.48,4.15-4,7.69-6.53,11.24a.54.54,0,0,1-.66.15c.22-.67.3-1.33-.6-1.51A30.74,30.74,0,0,1,59,14.27C55.67,13,52.27,11.86,49,10.47c-1.26-.53-1.85-.2-2.32.85-.78,1.75-1.55,3.5-2.29,5.26-.29.7-.57.77-1,.13s-.75-1.27-1.13-1.91c-.22-.35-.51-.66-1-.45s-.24.67-.07,1c.57,1.08,1.14,2.17,1.74,3.25.23.4.41,1,1,.88a1.38,1.38,0,0,0,1-1c.72-2.05,1.76-3.94,2.66-5.89.34-.73.7-.86,1.35-.62,2.21.81,4.43,1.6,6.63,2.43a79.41,79.41,0,0,0,8.86,3.22,2.38,2.38,0,0,1-.73,1.57c-1.58,1.66-3.11,3.38-4.77,5a72,72,0,0,1-20.08,13.5c-1,.46-1.94,1.28-3.17,1.24.33-.64.3-1.12-.54-1.29s-1.43-.35-2.14-.52a.82.82,0,0,0-1.13.63,6.28,6.28,0,0,0-.45,2.87,2.12,2.12,0,0,1-1.36.81c-3.27,1-6.47,2.19-9.81,3A130.17,130.17,0,0,1,6.6,46.9,5.56,5.56,0,0,1,3.68,46.94Zm22.48-29.3a7,7,0,0,1,.24-1.25c.52-1.31.14-2-1.3-2.24-2.22-.43-4.42-1-6.61-1.6-1.25-.35-1.81.06-2.08,1.29-.46,2.17-1,4.33-1.58,6.46-.35,1.23,0,1.88,1.22,2.17,1.49.35,3,.72,4.46,1.08,3.88.94,3.92.95,4.83-3a2,2,0,0,1,1.77-1.77A30.34,30.34,0,0,0,31,17.72c.57-.17,1.53-.2,1.28-1-.19-.64-1-.31-1.56-.17A30.65,30.65,0,0,1,26.16,17.64ZM11.6,40c.79,0,1.86,1.07,2.3,0,.38-.89-1-.73-1.58-1.06-1.31-.76-1.35-.71,0-1.62A4.73,4.73,0,0,0,14.42,34a2.16,2.16,0,0,0-1.76-2.35c-1.12-.1-1.7.61-1.95,1.62-.09.35-.32.81.21,1s.66-.15.78-.5a.72.72,0,0,1,1.14-.47c.65.3.43.84.23,1.26a5.77,5.77,0,0,1-2,2.12c-.75.56-2,.89-1.81,2.08S10.8,39.56,11.6,40ZM51.42,15.08l-1.58-.38c-.48-.11-.93-.06-1.11.45a1.57,1.57,0,0,0,.13,1.55c.36.45.7.05,1.09-.23a1.86,1.86,0,0,1,2.17.33c.63.45-.18.91-.42,1.32-.84,1.5-1.73,3-2.58,4.47-.26.46-.63,1.09,0,1.43s.93-.34,1.2-.79c.85-1.44,1.66-2.9,2.51-4.33C54.38,16.3,54.23,15.89,51.42,15.08Zm-26.24,23a.49.49,0,0,0,0-.15c-.57-.83-1.86-1.16-1.7-2.48-1,.06-1.29,1.51-2.47,1.33-.2,0-.35.43-.2.61.54.63,1.27,1.07,1.12,2.16,0,.35.75.39.92-.18a1.09,1.09,0,0,1,1.53-.89A.63.63,0,0,0,25.18,38.12Z"/><path class="cls-3" d="M19.72,22.1c-4-1-4-1-3-5,.95-3.77.95-3.77,4.68-2.83l2.87.73c.56.15,1.35.24,1.11,1.05s.12,2-1.22,2.24c-.33.06-.66.18-1,.25-2.44.57-2.44.57-3.36-1.8-.15-.39-.21-1-.83-.78-.47.16-.33.64-.23,1a.74.74,0,0,0,0,.14c1.15,3.36,0,3.86,4.28,2.54,1.3-.4,1.5-.2,1.2,1.13-.51,2.27-.51,2.27-2.84,1.68Z"/><path class="cls-4" d="M3.68,46.94a5.56,5.56,0,0,0,2.92,0,130.17,130.17,0,0,0,13.68-2.56c3.34-.78,6.54-2,9.81-3a2.12,2.12,0,0,0,1.36-.81,2.6,2.6,0,0,0,.72.1c1.44-.2,2.36.49,2.36,1.91,0,.85-.42,1.59-1.37,1.6-.77,0-1.49-.27-1.17-1.36a.6.6,0,0,0-.43-.81c-.5-.12-.69.23-.84.63A1.74,1.74,0,0,0,31.64,45c1.1.58,2.19,1,3.18-.15,1.41-1.69.79-3.29-.24-4.86l.65-1.09h.48c1.23,0,2.16-.78,3.17-1.24A72,72,0,0,0,59,24.13c1.66-1.59,3.19-3.31,4.77-5a2.38,2.38,0,0,0,.73-1.57h0a.54.54,0,0,0,.66-.15c2.52-3.55,5-7.09,6.53-11.24.11.15.32.31.32.47,0,5.18,0,10.37,0,15.56,0,3.32,0,6.63,0,10q0,7.56,0,15.11c0,.83,0,1.69.06,2.48.16,1.69-.8,1.77-2,1.76-2.8,0-5.59-.07-8.39-.06-5.74,0-11.48.08-17.22.07-9.17,0-18.33-.06-27.5.1-3.76.06-7.52,0-11.28,0-1.25,0-2.09-.42-2-1.89C3.7,48.81,3.67,47.88,3.68,46.94ZM62.79,35.6l.11.37.27-.28c.14-.31.3-.61.42-.92.27-.73,0-2.11,1.57-1.15.09.06.42-.07.49-.2.2-.34-.12-.56-.35-.65-1.19-.48-1-1.36-.71-2.28a5,5,0,0,0,.09-.87,5.72,5.72,0,0,0,.65-2.09c.13-.57.59-1.3-.24-1.68s-1.3.2-1.77.71a38,38,0,0,1-3,3.54c-.47.39-.35.8.13,1.21.75.65,1.72.64,2.58,1a1.52,1.52,0,0,0,0,.21c-.06,1-1,2-.25,3.05Zm-20,6.1c-.38-.19-.63-.08-.73.32s.07.62.48.65l3.72.95c.4.11.82.15.91-.41s-.3-.56-.64-.64Zm19.85-.65a2.17,2.17,0,0,0-1.46-2.49c-1.24-.35-1.64.58-2.06,1.42a.69.69,0,0,0,.21.93c.44.28.6-.08.75-.4s.45-.74.9-.5.4.73.26,1.18a4.68,4.68,0,0,1-1.87,2,17,17,0,0,0-1.48,1.21.61.61,0,0,0,.16,1.08c1.14.46,2.31.83,3.47,1.21a.52.52,0,0,0,.71-.35c.12-.36-.1-.54-.39-.67l-.94-.41c-1-.48-1.14-1-.11-1.62A4,4,0,0,0,62.64,41.05Zm-1.4-3.54,3.87,1c.47.11,1.07.34,1.23-.35.12-.52-.4-.78-.83-.86-2.6-.46-5.08-1.44-7.72-1.73-.44-.05-1-.24-1.12.34-.15.73.57.65,1,.76C58.85,37,60.05,37.22,61.24,37.51ZM44.53,43.68l0-.08c-.67-.16-1.33-.34-2-.48-.38-.08-.85-.17-1,.36a.76.76,0,0,0,.62.88c1.36.39,2.74.74,4.12,1.08.32.08.74.12.87-.3a.76.76,0,0,0-.54-.92C46,44,45.24,43.86,44.53,43.68Z"/></g></g></g></svg>