<svg xmlns="http://www.w3.org/2000/svg" viewBox="0 0 72.82 72.12"><defs><style>.cls-1{fill:#462b73;}.cls-2{fill:#6967af;}.cls-3{fill:#1c1721;}.cls-4{fill:#fbae48;}</style></defs><g id="Layer_2" data-name="Layer 2"><g id="Page_1" data-name="Page 1"><g id="_Icon5_" data-name="&lt;Icon5&gt;"><path class="cls-1" d="M65.21,16.7c-.33-.36-.66-.71-1-1a29.61,29.61,0,0,0-41.61,0l-.06.06,5.86,5.81.06-.06a21.27,21.27,0,0,1,29.89,0c.35.34.68.7,1,1.06a20.76,20.76,0,0,1,5.19,13.6h8.29A28.94,28.94,0,0,0,65.21,16.7Z"/><path class="cls-1" d="M64.53,36.12v.06a20.81,20.81,0,0,1-6.19,14.9l-.06.05a21.27,21.27,0,0,1-28.76.93l-5.87,5.82a29.62,29.62,0,0,0,40.49-.94l.06-.06a28.92,28.92,0,0,0,8.62-20.7v-.06Z"/><path class="cls-2" d="M1.21,48.7a1.2,1.2,0,1,0,0,2.39h22.5V48.7Z"/><path class="cls-2" d="M46.25,48.7H23.71v2.39H46.25a1.2,1.2,0,1,0,0-2.39Z"/><polygon class="cls-1" points="26.61 2.48 20.49 2.75 13.92 3.05 18.04 27.82 24.31 27.54 30.72 27.25 26.61 2.48"/><path class="cls-2" d="M31.06,1.58A1.75,1.75,0,0,0,29.15,0L21.57.69l-7.9.72A1.73,1.73,0,0,0,12.08,3.3L14,24.17a1.76,1.76,0,0,0,1.91,1.58l7.74-.7,7.75-.7A1.76,1.76,0,0,0,33,22.45Z"/><path class="cls-3" d="M2.32,72s0,0,0,.08H8.19c0-.47-.07-.94-.07-1.41a15.27,15.27,0,0,1,15.19-15.2V51.09A21,21,0,0,0,2.32,72Z"/><path class="cls-3" d="M23.46,51.09h-.15v4.42h.15A15.27,15.27,0,0,1,38.8,70.71a13.31,13.31,0,0,1-.07,1.41H44.6V72A21,21,0,0,0,23.46,51.09Z"/><path class="cls-4" d="M8.12,70.71c0,.47,0,.94.07,1.41H23.31V55.51A15.27,15.27,0,0,0,8.12,70.71Z"/><path class="cls-4" d="M38.8,70.71a15.27,15.27,0,0,0-15.34-15.2h-.15V72.12H38.73A13.31,13.31,0,0,0,38.8,70.71Z"/><rect class="cls-1" x="20.1" y="25.16" width="8.42" height="4.75" transform="translate(-2.16 2.07) rotate(-4.67)"/></g></g></g></svg>