<svg xmlns="http://www.w3.org/2000/svg" viewBox="0 0 30.57 83.58"><defs><style>.cls-1{fill:#462b73;}.cls-2{fill:#fbae48;}</style></defs><g id="Layer_2" data-name="Layer 2"><g id="Page_1" data-name="Page 1"><g id="_Icon10_" data-name="&lt;Icon10&gt;"><polygon class="cls-1" points="7.21 6.27 6.28 12.34 6.28 70.81 2.77 70.81 2.77 12.34 1.83 6.27 2.45 0.99 6.58 0.99 7.21 6.27"/><path class="cls-2" d="M9,42.61V79.35a4.39,4.39,0,0,1-4.51,4.23A4.39,4.39,0,0,1,0,79.35V42.61a4.21,4.21,0,0,1,2.67-3.86.24.24,0,0,1,.1,0,4.34,4.34,0,0,1,1.75-.34,4.49,4.49,0,0,1,1.76.34l.08,0a4.67,4.67,0,0,1,1.35.87A4.08,4.08,0,0,1,9,42.61Z"/><path class="cls-1" d="M28.07,11.79a10.13,10.13,0,0,0,2-3,6.06,6.06,0,0,0,.5-2.28,3.78,3.78,0,0,0-1.22-2.85C27,1.42,24.69-.25,21.46,0l-.16,0,3.62,6.33L23.07,8.45l-.84.94-4.18.41L18,9.67l-3.53-6.2c-2.15,2.37-1.93,5.11-1.26,8.27.54,2.55,3.45,3.72,6.68,3.62a4.56,4.56,0,0,1,.24.66V74.73A5,5,0,0,0,18.53,77v0a4.12,4.12,0,0,0-.22,1.33v0a4.12,4.12,0,0,0,.22,1.33,0,0,0,0,0,0,0A5,5,0,0,0,22.75,83a1.72,1.72,0,0,0,.32,0h.34a4.93,4.93,0,0,0,5.1-4.75,4.59,4.59,0,0,0-1.79-3.59V17A11.4,11.4,0,0,1,28.07,11.79ZM27,76.93l-.06,0-.12.07a.67.67,0,0,0,.26,1.24l.08,0,.14,0-.14,0-.08,0a.67.67,0,0,0-.26,1.24l.14.07,0,0h-.06l-.16,0a.68.68,0,0,0-.74,1l.12.19L26,80.78a.72.72,0,0,0-1.13.7l0,.2-.12-.18a.76.76,0,0,0-1.25,0s0,0,0,0l-.06.17,0,.21,0-.21a.68.68,0,0,0-.3-.43.48.48,0,0,0-.32-.11.68.68,0,0,0-.7.28l-.08.11,0,.07,0-.11,0-.09a.72.72,0,0,0-1.13-.7l-.18.12.12-.19a.68.68,0,0,0-.74-1l-.22,0L20,79.6a.67.67,0,0,0-.26-1.24l-.22,0,.22,0A.67.67,0,0,0,20,77l-.18-.11L20,77a.69.69,0,0,0,.74-1l-.12-.17.18.11a.72.72,0,0,0,1.13-.7l0-.09,0-.11L22,75l.08.12a.71.71,0,0,0,.7.3.54.54,0,0,0,.32-.11.73.73,0,0,0,.3-.44l0-.11h0l0,.11a.77.77,0,0,0,.06.15s0,0,0,.06a.75.75,0,0,0,1.25,0L24.9,75l0,.2a.72.72,0,0,0,1.13.7l.18-.11-.12.17a.69.69,0,0,0,.74,1l.16,0Z"/></g></g></g></svg>