<svg xmlns="http://www.w3.org/2000/svg" viewBox="0 0 85.95 48.89"><defs><style>.cls-1{isolation:isolate;}.cls-2{fill:#462b73;}.cls-3{fill:#939598;}.cls-4{fill:#d3d5d6;}.cls-4,.cls-6{mix-blend-mode:multiply;}.cls-5{fill:#6967af;}.cls-6{fill:#e0ccd6;}.cls-7{fill:#93ced4;}.cls-8{fill:#d1d3d4;}.cls-9{fill:#2d2932;}.cls-10{fill:#1c1721;}.cls-11{fill:#fbae48;}.cls-12{fill:#97999c;}</style></defs><g class="cls-1"><g id="Layer_2" data-name="Layer 2"><g id="Page_1" data-name="Page 1"><g id="_Icon3_" data-name="&lt;Icon3&gt;"><rect class="cls-2" x="13.88" y="36.4" width="68.27" height="2.04"/><rect class="cls-2" x="28.75" y="12.65" width="4.87" height="27.55"/><rect class="cls-3" x="31.67" width="50.84" height="37.19"/><polygon class="cls-4" points="43.74 35.59 80.43 35.33 80.19 1.59 43.74 35.59"/><path class="cls-5" d="M30.29,10.69c0-2-.86-2.84-2.21-2.84H12.18c-1.63,0-1.81.61-2.12,1.34S3.06,25.45,2.36,27a8.24,8.24,0,0,0-.82,3.78v8.57H30.29Z"/><path class="cls-6" d="M28.08,7.85H26.41a23.35,23.35,0,0,1-.75,15.67A18.68,18.68,0,0,1,14.82,33.83c-3.75,1.47-9.15,3-13.28,1.55v4H30.29V10.69C30.29,8.68,29.43,7.85,28.08,7.85Z"/><path class="cls-7" d="M28,12.09H11.42C10.24,14.83,6.31,24,5.85,25.16a6.46,6.46,0,0,0-.23.72H20.06l2-2.44,5.94-1Z"/><path class="cls-8" d="M1.4,38.44H84.48c1.62,0,2.26,4.42,0,4.42H1.4C-.4,42.86-.53,38.44,1.4,38.44Z"/><path class="cls-2" d="M25.87,42.86A9.19,9.19,0,0,0,26,41.28a9.84,9.84,0,0,0-10.09-9.55,9.84,9.84,0,0,0-10.1,9.55A9.19,9.19,0,0,0,6,42.86Z"/><path class="cls-9" d="M26,28.07c0-.74-.32-1.31-.66-1.31H22c-.34,0-.62.57-.66,1.31Z"/><path class="cls-10" d="M15.92,33.67a7.84,7.84,0,0,0-8,7.61,7.84,7.84,0,0,0,8.05,7.61,7.84,7.84,0,0,0,8-7.61A7.84,7.84,0,0,0,15.92,33.67Z"/><path class="cls-11" d="M15.92,46.16a4.89,4.89,0,1,1,0-9.76,4.89,4.89,0,1,1,0,9.76Z"/><path class="cls-12" d="M15.92,42.84a1.56,1.56,0,1,1,1.64-1.56A1.61,1.61,0,0,1,15.92,42.84Z"/><path class="cls-2" d="M82.22,42.75a9.08,9.08,0,0,0,.14-1.57,10.12,10.12,0,0,0-20.2,0,9.08,9.08,0,0,0,.14,1.57Z"/><path class="cls-10" d="M72.26,33.57a7.84,7.84,0,0,0-8,7.61,8.05,8.05,0,0,0,16.08,0A7.84,7.84,0,0,0,72.26,33.57Z"/><path class="cls-11" d="M72.26,46.06a4.89,4.89,0,1,1,5.16-4.88A5,5,0,0,1,72.26,46.06Z"/><path class="cls-12" d="M72.26,42.74a1.56,1.56,0,1,1,1.65-1.56A1.61,1.61,0,0,1,72.26,42.74Z"/></g></g></g></g></svg>