<svg xmlns="http://www.w3.org/2000/svg" viewBox="0 0 79.18 98.24"><defs><style>.cls-1{fill:#6967af;}.cls-2{fill:#fbae48;}</style></defs><g id="Layer_2" data-name="Layer 2"><g id="Page_1" data-name="Page 1"><g id="_Icon6_" data-name="&lt;Icon6&gt;"><path class="cls-1" d="M32,23.46H5.5c-.76,0-1.35-.27-1.44-1s.38-1.05,1.08-1.23l7.42-2c6.9-1.86,13.79-3.79,20.73-5.53a2.83,2.83,0,0,0,2.43-2.39c.89-3.42,1.93-6.81,2.89-10.22A1.3,1.3,0,0,1,40,0a1.31,1.31,0,0,1,1.34,1.14c1,3.55,2,7.09,3,10.64a2.19,2.19,0,0,0,1.9,1.79c4.7,1.16,9.36,2.49,14,3.75l14.3,3.85c.77.2,1.44.5,1.29,1.34s-.88,1-1.69,1H49.13c-.41,0-.82,0-1.24.05l.88,7.64c0,.08.06.17,0,.25-.36,2.14,1.11,2.75,3.09,3.32,7.48,2.13,14.91,4.43,22.35,6.66.82.25,1.84.42,1.62,1.49s-1.21.86-2,.86h-15c-2.55,0-5.09,0-7.64,0-.65,0-1,.16-.88.8.33,2.81.79,5.62.92,8.45.2,4.63,2.17,8.83,3.81,13.11q4.6,12,9.26,24c.81,2.1,1.6,4.2,2.44,6.29.28.7.35,1.34-.49,1.71s-1.38-.09-1.84-.7c-5.09-6.77-10.2-13.53-15.27-20.32a2.26,2.26,0,0,0-2.11-1c-4.76,0-9.52,0-14.28,0a1.87,1.87,0,0,0-1.73.83Q23.41,87,15.81,97.1c-.49.65-.93,1.41-2.05,1-.75-.25-.85-.84-.36-2.11L23.75,69.23c1.39-3.62,2.84-7.23,4.14-10.88a17.48,17.48,0,0,0,.55-3.57c.24-1.85.48-3.71.7-5.57.18-1.45.32-2.9.49-4.36.12-1,0-1.16-1.14-1.15l-4.61,0h-18a2.49,2.49,0,0,1-1.12-.13c-.32-.21-.71-.68-.64-.94a1.65,1.65,0,0,1,.92-1c3-1,6.05-1.87,9.09-2.78,5.24-1.57,10.47-3.15,15.72-4.69A1.39,1.39,0,0,0,31,32.82C31.3,29.75,31.67,26.69,32,23.46ZM52.8,73.85a2.65,2.65,0,0,0-.37-.4c-4-2.45-8-4.91-12-7.32a1.45,1.45,0,0,0-1.16.11c-3.82,2.31-7.61,4.65-11.41,7-.23.14-.42.32-.84.62ZM39.92,41.58h0c2.19,0,4.39,0,6.59,0,.74,0,1-.2.88-.86-.19-1.4-.34-2.8-.46-4.21,0-.56-.35-.72-.93-.72H34c-.66,0-.92.22-1,.8-.12,1.38-.26,2.75-.46,4.12-.09.66.14.87.88.86C35.58,41.56,37.75,41.58,39.92,41.58ZM30,59.68,25.37,71.76l.28.17,12.13-7.48Zm12.12,4.78,12.16,7.47.25-.2c-1.54-4-3.07-7.94-4.66-12.05ZM65.21,21.19l0-.24L45.5,15.62c.5,1.75,1,3.21,1.31,4.69.17.74.54,1,1.38,1,5.4,0,10.8,0,16.2,0C64.66,21.25,64.93,21.21,65.21,21.19ZM14.68,21l.07.23a1.31,1.31,0,0,0,.27.06c5.72,0,11.45,0,17.17,0a1.16,1.16,0,0,0,.81-.64c.38-1.1.66-2.22,1-3.34.13-.46.24-.92.43-1.61ZM66.08,41.5l0-.25-16.74-5c.16,1.59.34,3,.42,4.32.05.76.36,1,1.24,1,4.79,0,9.57,0,14.35,0A5.43,5.43,0,0,0,66.08,41.5ZM30.57,36.22c-5.76,1.74-11.26,3.38-16.75,5,.16.25.27.33.38.33,5,0,10.08,0,15.12,0A1,1,0,0,0,30,41C30.25,39.52,30.38,38,30.57,36.22Zm9.38-15h0c1.23,0,2.46,0,3.68,0,.63,0,.92-.13.73-.75-.44-1.44-.86-2.88-1.26-4.33-.14-.52-.46-.68-1-.67-1.38,0-2.78,0-4.16,0a1,1,0,0,0-1.12.8c-.39,1.4-.78,2.79-1.2,4.17-.17.58,0,.8.69.79C37.5,21.23,38.72,21.25,40,21.25ZM46.62,56.8l.34-.36a4.19,4.19,0,0,1-.85-.41q-2.76-2.16-5.49-4.35a1,1,0,0,0-1.54,0c-1.44,1.22-3,2.37-4.45,3.55-.55.45-1.08.92-1.81,1.54Zm2-1.8.25-.09c-.36-3.25-.72-6.5-1.1-10-2,1.65-3.9,3.14-5.93,4.79Zm2.69,21.14,9.51,12.62c.08-.28.13-.34.11-.39q-2.25-5.88-4.53-11.76c-.07-.19-.33-.45-.5-.45C54.48,76.12,53,76.14,51.33,76.14Zm-22.71,0c-1.52,0-2.76,0-4,0a1.1,1.1,0,0,0-1.25.8c-1.38,3.66-2.81,7.3-4.22,10.95a4,4,0,0,0-.17.68l.23.09Zm2.32-21c.56-.37.91-.56,1.21-.8,1.61-1.31,3.2-2.64,4.81-3.95.86-.7.87-.91,0-1.61-1.35-1.06-2.72-2.11-4.08-3.15-.18-.14-.4-.26-.78-.5Zm3,4-.08.22c1.82,1.12,3.66,2.22,5.46,3.37a1.08,1.08,0,0,0,1.36,0c1.52-1,3.07-1.91,4.61-2.86l.8-.53L46,59.13Zm.68-15.32c.07.19.08.3.14.35,1.55,1.25,3.1,2.51,4.69,3.72a.91.91,0,0,0,.82,0c1.63-1.26,3.22-2.55,4.82-3.84,0,0,0-.1,0-.23Zm.22-10.26H45l-5.07-4.16Zm2.84-20.33h4.58l-2.14-7.4-.33,0ZM45.6,25,45.32,25,41.73,27.9,46,31.39l.29-.15Zm-11,0-.29.08-.69,6,.29.1c1.27-1,2.55-2.08,3.79-3.14.1-.08,0-.46-.07-.56C36.65,26.72,35.63,25.9,34.61,25.07Zm8.52-1.33L43,23.57h-6.5c1.17,1,2.12,1.77,3.1,2.54a.65.65,0,0,0,.59,0C41.17,25.36,42.14,24.54,43.13,23.74Z"/><rect class="cls-2" x="66.12" y="24.64" width="13.06" height="3.1" rx="1.37"/><rect class="cls-2" y="24.64" width="13.06" height="3.1" rx="1.37"/><rect class="cls-2" x="2.88" y="45.12" width="7.31" height="3.1" rx="1.37"/><rect class="cls-2" x="69.91" y="45.12" width="7.31" height="3.1" rx="1.37"/></g></g></g></svg>