<?xml version="1.0" encoding="utf-8"?>
<!-- Generator: Adobe Illustrator 25.4.1, SVG Export Plug-In . SVG Version: 6.00 Build 0)  -->
<svg version="1.1" id="Layer_1" xmlns="http://www.w3.org/2000/svg" xmlns:xlink="http://www.w3.org/1999/xlink" x="0px" y="0px"
	 viewBox="0 0 554.8 894.7" style="enable-background:new 0 0 554.8 894.7;" xml:space="preserve">
<style type="text/css">
	.st0{fill-rule:evenodd;clip-rule:evenodd;fill:#766AB9;}
	.st1{fill-rule:evenodd;clip-rule:evenodd;fill:#E28F8B;}
	.st2{fill-rule:evenodd;clip-rule:evenodd;fill:#6E62B5;}
	.st3{fill-rule:evenodd;clip-rule:evenodd;fill:#FE9A6A;}
	.st4{fill-rule:evenodd;clip-rule:evenodd;fill:#FEAB83;}
	.st5{fill-rule:evenodd;clip-rule:evenodd;fill:#303D5C;}
	
		.st6{clip-path:url(#SVGID_00000150823124364129626600000004437012844607349410_);fill-rule:evenodd;clip-rule:evenodd;fill:#FE8B53;}
</style>
<g>
	<path class="st0" d="M446.3,589.4c6.5-16.6,7-54.3,1.8-60.5c-48.3-58.5-159-287.6-233.8-194.1c-15.3,19.1-52.1,109.6-7,146.7
		c0,0,130.1,118.1,218.3,141.1C432.3,624.4,437.5,611.9,446.3,589.4L446.3,589.4z"/>
	<path class="st1" d="M310.6,875.9c19.5-1.5,59.4-24.1,59.8-33c3.6-83.1-17.8-506.2-132.6-541.4c-25.9-7.9-77.3,80.4-37.4,292.9
		c0,0,7.3,185,62.3,268.5C266.9,869.2,290,877.4,310.6,875.9L310.6,875.9z"/>
	<path class="st2" d="M141.4,887.2c4.6-142.4-29.1-312.3-29.1-312.3s-84.4-208.4,55-274c0,0,79.5-11.5,103.6,16.9
		c48.9,57.5,238.2,272.3,146.8,358.4c0,0,2.2,145,15.8,210.9H141.4L141.4,887.2z"/>
	<path class="st3" d="M455.2,536.9c43.1,1.9,48.3,35.5,42.6,56.8c-6.7,25.1-30.7,38.3-53.8,39.6c-15.7,0.9-151.1-26.3-257.6-32.2
		c-0.2-8.2-18.2-18.6-5.9-27C180.5,574,442.6,536.3,455.2,536.9L455.2,536.9z"/>
	<path class="st4" d="M436.9,546c0,0,58.7-24.3,82.6-13.6c0,0,25.5,18.3,8.8,15.9c0,0,7.9,11.7,0.6,16.5c0,0,3.5,13.1-6,17.6
		c-9.4,4.4,2.6,14.7-10.9,15.9c0,0-88-20.3-97.2-33.1L436.9,546L436.9,546z"/>
	<path class="st4" d="M123.5,600.5c-70.3,15.1-12.9,106.1-9.6,105.1c96.7-32,236.8-64.1,353.1-136.9c-2.9-10-7.7-19.4-25.8-24.8
		C441.1,543.8,139.1,597.1,123.5,600.5L123.5,600.5z"/>
	<path class="st0" d="M114,705.5c-9.5-57.6,44.5-113.2,64.5-115c13.3-28.4,14.7-20.1,35.9-104.8c26.3-105.4,11.4-144.9-39.1-159.3
		c-25.8-7.4-68.4-14-91,75.9c0,0-37.6,152.5-15.5,250C74.1,675.9,94.1,700.1,114,705.5L114,705.5z"/>
	<path class="st5" d="M299.9,122.7c-0.7,5.1,7-8.2,8.9-13c4.3-10.9,3.8-21.5,0.2-32.3c-10.2-30.5-35-53.3-63.9-67.1
		C176-22.7,98.4,19.6,70.6,87.6c-14.4,35.2-13.3,71.9-1.9,107.1c1.9,6,139.5,226.9,182.9,41.3l-42.9-47.7L299.9,122.7"/>
	<path class="st4" d="M204.4,227.6l19,70.1c128.9,115,40.9,117.2-52.2,8.9l-13.6-118.7L204.4,227.6L204.4,227.6z"/>
	<g>
		<defs>
			<path id="SVGID_1_" d="M204.4,227.6l19,70.1c128.9,115,40.9,117.2-52.2,8.9l-13.6-118.7L204.4,227.6L204.4,227.6z"/>
		</defs>
		<clipPath id="SVGID_00000095298751875058297880000007664213331034399617_">
			<use xlink:href="#SVGID_1_"  style="overflow:visible;"/>
		</clipPath>
		
			<path style="clip-path:url(#SVGID_00000095298751875058297880000007664213331034399617_);fill-rule:evenodd;clip-rule:evenodd;fill:#FE8B53;" d="
			M158.6,216c1.3,0.6,1.9,3.2,2.6,4.4c2.1,3.7,4.6,7.3,7.3,10.7c10.4,13.2,23.9,24.1,38.3,33.6c3.9,2.6,11.3,9,16.7,8.5
			c3.2-0.3,3-4.9,3-6.8c0-7.6-1.5-15.2-2.9-22.6c-2.1-10.5-4.5-21.1-8.6-31.1c-1.8-4.5-4.1-9.3-8.9-11.8c-6.2-3.3-15-3.1-22-3.8"/>
	</g>
	<path class="st4" d="M286.1,87c0,0,129.8,271-112.9,143.8L131.8,82.3C131.8,82.3,186.9,2,286.1,87L286.1,87z"/>
	<path class="st5" d="M157.9,82.9c-0.5,0.6,1.5,0.2,2.1,0.6c1.5,0.9,10.7,9.6,13.7,13.1c10.1,12.2,18.2,26.4,22.2,41.8
		c4.4,17.1,1.4,34.3-5.6,50.7c-5,11.7-6.7,25.5-14.1,36c-15.3,21.9-1.5,33.4-13.9,48.6c-27,33.2-84.9-69.3-56.8-116.9
		c12.3-21-8.2-47.9-2.4-71.7c2.6-10.7,45.8-43.9,51.9-45.5C199,28.3,259.9,20.7,288.9,61.4c4.1,5.8,14.6,18.4,14.3,26.1
		c-0.1,1.6-16.9,8.9-22.8,11.7c-30.1,14.1-59.1,9.3-88.1-3.2C183.4,92.2,157.9,82.9,157.9,82.9L157.9,82.9z"/>
	<path class="st5" d="M94.8,56.4c1.6-1.1-4.2-13.9-4.8-14.9C83.1,27.8,69,14.8,52.9,15c-18.8,0.3-32.2,18-38.5,33.8
		C2.6,79,0.8,121.9,19.5,149.8c13.5,20,35.3,21,52.5,5c18.2-17,27.7-42.7,30.7-67"/>
	<path class="st4" d="M140.9,159.1c0,0-25.5-7.9-14.5,14.5c11,22.4,24.9,22.1,24.9,22.1C155,188.4,152.9,177.1,140.9,159.1
		L140.9,159.1z"/>
	<path class="st3" d="M180.7,573.9c-15.5,2.6-41,28.8-31.8,47.8c3.9,8,21.3,13.1,30.9,8c10.1-5.4,8.4-22.1,29.7-40.2
		c8.2-6.9,18.9-12.8,22.6-16.6L180.7,573.9L180.7,573.9z"/>
</g>
</svg>
