<?xml version="1.0" encoding="utf-8"?>
<!-- Generator: Adobe Illustrator 25.4.1, SVG Export Plug-In . SVG Version: 6.00 Build 0)  -->
<svg version="1.1" id="Layer_1" xmlns="http://www.w3.org/2000/svg" xmlns:xlink="http://www.w3.org/1999/xlink" x="0px" y="0px"
	 viewBox="0 0 1436.7 1058.6" style="enable-background:new 0 0 1436.7 1058.6;" xml:space="preserve">
<style type="text/css">
	.st0{fill-rule:evenodd;clip-rule:evenodd;fill:#FEAB83;}
	.st1{fill-rule:evenodd;clip-rule:evenodd;fill:#9291A0;}
	.st2{fill-rule:evenodd;clip-rule:evenodd;fill:#5246ce;}
	.st3{fill-rule:evenodd;clip-rule:evenodd;fill:#F2C059;}
	
		.st4{clip-path:url(#SVGID_00000028309581136682708500000007644189241332756666_);fill-rule:evenodd;clip-rule:evenodd;fill:#F8DFAA;}
	
		.st5{clip-path:url(#SVGID_00000028309581136682708500000007644189241332756666_);fill-rule:evenodd;clip-rule:evenodd;fill:#5246ce;}
	
		.st6{clip-path:url(#SVGID_00000125563363846503463670000012891567341174341291_);fill-rule:evenodd;clip-rule:evenodd;fill:#FE925E;}
	.st7{fill-rule:evenodd;clip-rule:evenodd;fill:#303D5C;}
	.st8{fill-rule:evenodd;clip-rule:evenodd;fill:#FEC6AD;}
	
		.st9{clip-path:url(#SVGID_00000136391911820888815120000013275355308626075287_);fill-rule:evenodd;clip-rule:evenodd;fill:#EEAF2B;}
	.st10{fill-rule:evenodd;clip-rule:evenodd;fill:#EEAF2B;}
	.st11{fill-rule:evenodd;clip-rule:evenodd;fill:#2C3855;}
	.st12{fill-rule:evenodd;clip-rule:evenodd;fill:#766AB9;}
	.st13{fill-rule:evenodd;clip-rule:evenodd;fill:#E28F8B;}
	.st14{fill-rule:evenodd;clip-rule:evenodd;fill:#FFFFFF;}
	
		.st15{clip-path:url(#SVGID_00000120551252888507482830000012188945509809967532_);fill-rule:evenodd;clip-rule:evenodd;fill:#DCDAEE;}
	
		.st16{clip-path:url(#SVGID_00000070809688008303122060000014735375962812726954_);fill-rule:evenodd;clip-rule:evenodd;fill:#FE8B53;}
	.st17{fill-rule:evenodd;clip-rule:evenodd;}
</style>
<g>
	<path class="st0" d="M585.3,678.4c0,0-316,43.5-383,16.9l-6.3,33.5c0,0,309.3,82.8,377.7,60.8C573.8,789.6,677.2,743.6,585.3,678.4
		L585.3,678.4z"/>
	<path class="st0" d="M196.2,729c-45.3-23.3-51.2-15.5-72.8-30.5c0,0-26.2-17.7-16.7-19.9c0,0-3.7-6.3,4-7.3c0,0-2.5-11.9,7.2-11.7
		c9.8,0.1,15.8-5.6,29.4-1.3c0,0,69.7,41.8,78,55.6L196.2,729L196.2,729z"/>
	<path class="st1" d="M197.2,749.9L86.5,612.6l-0.1,0.1c-1.9-3-4.2-8.2-2.6-13.8c2.6-8.8-1.4-22.3-13-24.3c0,0-5.1-0.9-4.1,5.9
		l1.3,6.8l-2.1,6.6l-8.4,3.8l-6.9-3.8l-5.4-13.2c0,0-5.7-8.2-9.6,4.2c0,0-4.1,13.4,9,26.3c13.1,12.9,22.4,17.2,23.8,20.2l0.4-0.3
		l110,136.5c-0.3,1.4-0.5,2.9-0.6,4.4c-0.4,12.8,9.6,23.5,22.3,23.9c12.8,0.4,23.5-9.6,23.9-22.3c0.4-12.8-9.6-23.5-22.3-23.9
		C200.5,749.5,198.9,749.6,197.2,749.9L197.2,749.9z M190.6,771.6l2.4,7.4l6.9,3.5l7.4-2.4l3.5-6.9l-2.4-7.4l-6.9-3.5l-7.4,2.4
		L190.6,771.6L190.6,771.6z"/>
	<path class="st0" d="M130.4,658.4c-2-1.3-2.1-0.5-4-0.4c-2.9,0.2-20.9,0.8-20.6,5.5c0.1,2.9,26.9,13.3,36.8,13.9
		C138.3,670.6,127.6,658.3,130.4,658.4L130.4,658.4z"/>
	<path class="st2" d="M638,774.8c0,0,19.2-335.2-44-394c-63.2-58.8-155.3,32.4-123.9,167.4C501.5,683.1,510,688,530.7,746.8
		C547.6,794.5,580,805.2,638,774.8L638,774.8z"/>
	<path class="st3" d="M437.8,1059.9h345.7c-7.9-57.8-30.2-237.4-17.6-331.6c38.9-140,51.8-280.7,1.4-361.9
		c0,0-92.9-105.6-185.5-55.1c-92.6,50.5-126.8,141-128,252.6C451,833.8,414.9,927.4,437.8,1059.9L437.8,1059.9z"/>
	<g>
		<defs>
			<path id="SVGID_1_" d="M437.8,1059.9h345.7c-7.9-57.8-30.2-237.4-17.6-331.6c38.9-140,51.8-280.7,1.4-361.9
				c0,0-92.9-105.6-185.5-55.1c-92.6,50.5-126.8,141-128,252.6C451,833.8,414.9,927.4,437.8,1059.9L437.8,1059.9z"/>
		</defs>
		<clipPath id="SVGID_00000068636158213448517190000014553253489199413900_">
			<use xlink:href="#SVGID_1_"  style="overflow:visible;"/>
		</clipPath>
		
			<path style="clip-path:url(#SVGID_00000068636158213448517190000014553253489199413900_);fill-rule:evenodd;clip-rule:evenodd;fill:#F8DFAA;" d="
			M433.7,575.5c80.9,28.8,151.7,59.7,243.6,33.4c33.9-9.7,66.6-25.2,95-42.2c4.1-2.5,40-28.4,40.2-21.4c0.2,7.9,0.4,50.6-3.4,55.8
			c-5.2,7.1-41.3,15.6-50.3,19.3c-65.2,27-142.4,41-215,21.7c-39.5-10.5-75.9-28.1-105.7-50.4c-1.8-1.3-29-18.5-24.7-21.3"/>
		
			<path style="clip-path:url(#SVGID_00000068636158213448517190000014553253489199413900_);fill-rule:evenodd;clip-rule:evenodd;fill:#F8DFAA;" d="
			M380.6,770.1c81.6,28.1,153,58,247,35.9c34.7-8.1,68.2-21.6,97.4-36.6c4.2-2.2,41.2-25.1,41.2-18.8c0.1,7.3-0.6,46.3-4.5,51
			c-5.4,6.4-42.3,13.4-51.5,16.6c-66.8,23.3-145.6,34.4-219,15.2c-39.9-10.5-76.6-27.4-106.5-48.4c-1.8-1.2-29.2-17.6-24.7-20"/>
		
			<path style="clip-path:url(#SVGID_00000068636158213448517190000014553253489199413900_);fill-rule:evenodd;clip-rule:evenodd;fill:#5246ce;" d="
			M652.4,326.5c-18.4,22.8-65.9,72.6-81.3,111.8c-28.9,73.8-23.3,117.8-32.2,134.3c-0.6,1.2-7.6-86-7.2-87.3
			c6.4-19.4,21.4-57.5,29.5-76.2c12.3-28.3,29-54.9,40.1-83.7c2.3-5.9,6.5-26,13.3-29C620.6,293.8,645.7,323.2,652.4,326.5
			L652.4,326.5z"/>
		
			<path style="clip-path:url(#SVGID_00000068636158213448517190000014553253489199413900_);fill-rule:evenodd;clip-rule:evenodd;fill:#5246ce;" d="
			M553,460.7c0,0-44.2,303,7.3,659.1l-56.4-0.5c0,0-35.8-562.8,44.3-665L553,460.7L553,460.7z"/>
	</g>
	<path class="st0" d="M602.4,261.5c0,0-3.7,47.2-2.4,62.4c-2.6,10.3,52.1,17.9,57.8-3.1l-8.4-109.1L602.4,261.5L602.4,261.5z"/>
	<g>
		<defs>
			<path id="SVGID_00000111159163121591552080000014937259795913238714_" d="M602.4,261.5c0,0-3.7,47.2-2.4,62.4
				c-2.6,10.3,52.1,17.9,57.8-3.1l-8.4-109.1L602.4,261.5L602.4,261.5z"/>
		</defs>
		<clipPath id="SVGID_00000092438882749346567160000006804637018304959658_">
			<use xlink:href="#SVGID_00000111159163121591552080000014937259795913238714_"  style="overflow:visible;"/>
		</clipPath>
		
			<path style="clip-path:url(#SVGID_00000092438882749346567160000006804637018304959658_);fill-rule:evenodd;clip-rule:evenodd;fill:#FE925E;" d="
			M676.8,304.6c0.1-1.4-1.4,1.8-2.2,2.3c-1.9,1.2-4.1,1.9-6.3,2.6c-6.3,2-13,3.4-19.8,4.1c-19.9,2.1-43.9-1.1-66.2-13
			c-5.2-2.8-21.5-11.8-22.8-21.5c-0.8-6.2,6.2-9.1,9.1-10.9c12.9-8,26.8-14.3,40.6-20.5c18.8-8.4,38-16,57.7-22.3
			c6.4-2,17-7.1,25.3,1.7c11.1,11.8,18.3,39.9,25.8,55.2"/>
	</g>
	<path class="st7" d="M712.3,178.4c-0.1-4.3-0.6-9.3-0.3-11.8c0.5-5,0.5-9.9,0.3-14.9c-1.2-21.3-5.4-43.4-13.8-63
		C691.9,73,536.2,87.4,537,90.8c1.5,5.8-3.3,16.1-4.3,21.9c-2.5,15.5-3.5,30.9-3.5,46.6c0,7.5-1.5,18.6,5.4,23.9
		c8.9,6.8,23.9,8.6,34.3,11.4c9.6,2.6,19.3,4.8,29.2,6.1c14.9,2,30,2.8,45.1,2.4c22.3-0.6,51-2.2,69-17.1"/>
	<path class="st8" d="M543.5,172.4c0,0,0.2,63.1,30.6,99.5c11.3,13.5,25.5,18.4,46.8,19.3c19,0.8,37-3.2,47.9-13.6
		c34-32.5,31.4-99,31.4-99c10.1-30.6-4.7-51.3-26.3-91.7L578,86.2C543.4,112.4,530.7,125.9,543.5,172.4L543.5,172.4z"/>
	<path class="st7" d="M702.9,182.8c-0.2-2.5-2.4,0.7-2.8-1.8c-1.2-7.2-0.8-20-2.5-27.1c-1.1-4.5-2.4-9-3.8-13.4
		c-5.2-16.7-12.6-47-35.2-44.1c-8.3,1.1-15.6,5.4-22.1,10.3c-4.2,3.2-9.9,8.3-15.5,8.4c-7.6,0.1-15.9-9.3-22.2-12.7
		c-5.2-2.8-11-5.5-17.1-5.7c-11.6-0.3-21.5,10-28,18.6c-11.7,15.4-12.6,40.7-10.2,58.3c0.7,5.3,6.4,19.9,0,22.9
		c-5,2.3-13.6-11.8-13.4-15.5c0.4-9.6-2.5-14.7-0.6-39c1.1-14,4.5-28.1,10.7-40.9c20.1-41.3,81.7-59,121.7-39.1
		c41.2,20.4,62.4,76.8,43.5,119.4"/>
	<path class="st3" d="M708.8,132.8c0,0,12.7-99.4-62.6-115.2C571.7,1.9,530.6,32.9,528.3,130.4L708.8,132.8L708.8,132.8z"/>
	<g>
		<defs>
			<path id="SVGID_00000163061474121862717260000002875779977183179692_" d="M708.8,132.8c0,0,12.7-99.4-62.6-115.2
				C571.7,1.9,530.6,32.9,528.3,130.4L708.8,132.8L708.8,132.8z"/>
		</defs>
		<clipPath id="SVGID_00000142169644864638352210000015120506247513531817_">
			<use xlink:href="#SVGID_00000163061474121862717260000002875779977183179692_"  style="overflow:visible;"/>
		</clipPath>
		
			<path style="clip-path:url(#SVGID_00000142169644864638352210000015120506247513531817_);fill-rule:evenodd;clip-rule:evenodd;fill:#EEAF2B;" d="
			M630.1,9.7c2.1-6.7-1-14-7.3-16.8c-6.5-2.9-14,0.4-16.6,7.3c-1,2.5-1.5,5.7-1.6,9.1c-0.1,4,0.7,8.8,0.7,11.8
			c0.2,12.4,0.1,24.8,0.3,37.2c0.4,40.2,0.5,80.5,1.1,120.7c0.1,7.4,5.9,13.4,12.9,13.4c7-0.1,12.7-6.1,12.5-13.6
			c-0.6-40.2-0.7-80.4-1.1-120.6c-0.1-12.5-0.1-24.9-0.3-37.4C630.8,18.1,630.2,10.7,630.1,9.7L630.1,9.7z"/>
	</g>
	<path class="st10" d="M710.2,113.6c0,0-150.5,29.8-181.4-3.2c0,0-33.5,33.3,35.2,42.2C624,160.3,757,149.8,710.2,113.6L710.2,113.6
		z"/>
	<path class="st8" d="M550.7,224c0.2-1.9,4.2-12.6,2.7-23c-1.8-12.5-9.2-24.9-9.9-25.3c-0.8-0.5-1.5-1-1.7-1c-1-0.4-2-0.7-3-0.8
		c-2.9-0.5-5.7,0.3-8.1,1.9c-6.8,4.6-8.9,14.7-8.8,22.4c0.2,10.4,3.8,22.2,11.7,29.5C539.7,233.2,548.8,232.4,550.7,224L550.7,224z"
		/>
	<path class="st8" d="M696,224c-0.2-1.9-4.2-12.6-2.7-23c1.8-12.5,9.2-24.9,9.9-25.3c0.8-0.5,1.5-1,1.7-1c1-0.4,2-0.7,3-0.8
		c2.9-0.5,5.7,0.3,8.1,1.9c6.8,4.6,8.9,14.7,8.8,22.4c-0.2,10.4-3.8,22.2-11.7,29.5C707,233.2,697.9,232.4,696,224L696,224z"/>
	<path class="st7" d="M700.2,178.7c0,0-23.5,103.4-46.3,91.4c-22.8-12-33.5-16.2-55-0.6C577.5,285,543,173.6,543,173.6
		s4.4,103.7,53.8,117.7c9.2,2.6,17.8,5.6,25.7,5.3c38-1.4,62.3-26.6,70.6-62.9C703,189.8,700.2,178.7,700.2,178.7L700.2,178.7z"/>
	<path class="st0" d="M698.6,722.5c0,0-275.4,207-347.8,216.9l37.8,25.5c0,0,305.9-85,355.2-138.5
		C743.8,826.3,812.2,734.2,698.6,722.5L698.6,722.5z"/>
	<path class="st2" d="M751,825.6c0,0,70.9-368.1,17.2-437.2c-53.7-69-160.6,7.3-151,147.3c9.6,140,31.3,181.4,31,244.5
		C658.1,807.4,705.4,858.5,751,825.6L751,825.6z"/>
	<path class="st0" d="M371.2,939.3c0,0-68.2-3.9-88.4,14.7c0,0-14.7,14.7-3.1,18.6c0,0-3.8,14.2,5.4,16.5c0,0,1.3,14.1,12.4,15.3
		c11.1,1.2,2.7,15.3,16.8,11.9c0,0,81.5-49.9,86.2-65.6L371.2,939.3L371.2,939.3z"/>
	<path class="st11" d="M894.6,204.3c19.7,0,35.7,14.6,35.7,32.6c0,18-16,32.6-35.7,32.6c-19.7,0-35.7-14.6-35.7-32.6
		C859,218.9,875,204.3,894.6,204.3L894.6,204.3z"/>
	<path class="st7" d="M906.4,240.2c-7.4-0.5-24.1,0.5-24.8,0.7c-0.6,0.1-1.2,0.3-1.8,0.4c-0.6,0.1-1.2,0.3-1.8,0.4
		c-20.6,5.1-40.2,15.1-52.9,32.6c-32.2,44.4-28.2,90.4-14.4,140.2c27.2,98.3,134.5,65.7,158.3,24.4c18.4-31.8,26.5-40.2,25.7-70.1
		C993.4,319,982.3,245.8,906.4,240.2L906.4,240.2z"/>
	<path class="st0" d="M1305.6,788.2c0,0,42.6-30.2,63.6-26c0,0,17.2,0.3,9.9,11.1c0,0,8.5,7.9,3.5,13.1c0,0,5.2,9.9-1.6,15.1
		c-6.7,5.3,4.8,11.3-5.8,14.7c0,0-74.1-0.1-83.8-8.6L1305.6,788.2L1305.6,788.2z"/>
	<path class="st0" d="M1076.7,765.4c-120.3-27.2-46.5,76.4-43.6,76.3c83.6-1.9,175.4-20.6,286.2-28.2c0.1-8.5-1.3-17.1-14.3-25.7
		C1304.9,787.9,1089.5,768.3,1076.7,765.4L1076.7,765.4z"/>
	<path class="st12" d="M1060.5,822.3c10.4-12.4,21.6-44.6,18.9-51.4c-24.7-64.1-54.1-292.7-145.2-233.9
		c-18.7,12-76.2,79.2-48.2,124.1c0,0,77.9,138.8,147,183.9C1038.4,848.3,1046.4,839,1060.5,822.3L1060.5,822.3z"/>
	<path class="st13" d="M1006.3,1013.2c17.7-1.3,53.8-21.9,54.2-29.9c3.2-75.3-16.1-458.5-120.2-490.4c-23.5-7.2-70,72.8-33.9,265.3
		c0,0,6.6,167.6,56.5,243.2C966.7,1007.2,987.6,1014.6,1006.3,1013.2L1006.3,1013.2z"/>
	<path class="st2" d="M851.3,1059.9c-0.1-2.8,0-5.8,0.2-8.9c10.3-133.5-24.8-310.5-24.8-310.5s-76.5-188.8,49.8-248.2
		c0,0,72-10.5,93.9,15.3c44.3,52.1,215.8,246.7,133,324.7c0,0-9.3,168.8,3.4,227.6H851.3L851.3,1059.9z"/>
	<polygon class="st14" points="1397.3,774.7 1401.1,758.7 1377.8,755.5 1375.4,736.8 1324.4,735.4 1375.2,735.2 1375.2,735.1 
		1401.1,735.1 1407.7,702.2 1355.1,700.7 1408.1,700.5 1411.4,685.1 1379.3,684.2 1411.6,684.1 1415.5,665.9 1367.5,664.6 
		1415.9,664.4 1419,650.1 1324.4,648.2 1384.8,647.9 1384.9,648.1 1384.1,628.6 1092.2,628.4 1038.6,629.9 1036.1,649.7 
		1019.4,658.6 1017.2,675 996.1,680.1 1012,699.9 988.9,703.9 1010.7,786.6 1394.3,787 1396.8,776.5 1336.8,775 1397.3,774.7 	"/>
	<g>
		<defs>
			<polygon id="SVGID_00000026854275476039335620000005868922809525599380_" points="1397.3,774.7 1401.1,758.7 1377.8,755.5 
				1375.4,736.8 1324.4,735.4 1375.2,735.2 1375.2,735.1 1401.1,735.1 1407.7,702.2 1355.1,700.7 1408.1,700.5 1411.4,685.1 
				1379.3,684.2 1411.6,684.1 1415.5,665.9 1367.5,664.6 1415.9,664.4 1419,650.1 1324.4,648.2 1384.8,647.9 1384.9,648.1 
				1384.1,628.6 1092.2,628.4 1038.6,629.9 1036.1,649.7 1019.4,658.6 1017.2,675 996.1,680.1 1012,699.9 988.9,703.9 1010.7,786.6 
				1394.3,787 1396.8,776.5 1336.8,775 1397.3,774.7 			"/>
		</defs>
		<clipPath id="SVGID_00000158011902008129469450000001856639975801787314_">
			<use xlink:href="#SVGID_00000026854275476039335620000005868922809525599380_"  style="overflow:visible;"/>
		</clipPath>
		
			<polygon style="clip-path:url(#SVGID_00000158011902008129469450000001856639975801787314_);fill-rule:evenodd;clip-rule:evenodd;fill:#DCDAEE;" points="
			1093.7,622.4 1094,643.8 1228.4,646.9 1099.5,649.3 1098.8,666 1294.7,670.5 1083.3,674.3 1082.2,692.6 1218.1,695.8 1041,696.3 
			1041,707.7 1159.3,711.1 1041.8,710.9 1042.5,725.5 1272.3,726.3 1035.6,734.8 1037,748.2 1222.1,748.7 1039.8,752.6 
			1037.7,763.7 1253.8,766 1038.4,767 1042.5,776.6 1250.3,777.6 1041.8,780 1046.9,792.3 981,794.5 965.7,620.7 1093.7,622.4 		"/>
	</g>
	<path class="st0" d="M1158,707.7c0,0,29-46,51-50.4c0,0,26.8,0.2,14,6.8c0,0,11.3,4.2,8.6,11.2c0,0,8.9,7.5,4.5,15.2
		c-4.4,7.8,9.1,9,0.3,16.5c0,0-71.5,29.3-84.3,25L1158,707.7L1158,707.7z"/>
	<path class="st0" d="M891,781.4c-58.7,18.5-6.9,91.9-4.2,90.7c79.9-35,201.1-73.9,294.5-145.3c-3.3-8.3-8.1-16-24-19.1
		C1157.2,707.7,904,777.3,891,781.4L891,781.4z"/>
	<path class="st12" d="M886.6,872.4c-17.5-46.9,18.5-97.8,37-100.1c6.5-26,7.2-26.4,11-101.2c4.7-92.9-14.4-123.6-59.2-127.4
		c-22.9-1.9-59.8-0.5-64,78.8c0,0-6.4,134.4,28.2,212.6C848.1,854.1,869,871.1,886.6,872.4L886.6,872.4z"/>
	<path class="st0" d="M910.1,425.9l17.2,63.5c116.7,104.2,37.1,106.2-47.3,8.1L867.8,390L910.1,425.9L910.1,425.9z"/>
	<g>
		<defs>
			<path id="SVGID_00000116194184368970194700000000146916256768085918_" d="M910.1,425.9l17.2,63.5
				c116.7,104.2,37.1,106.2-47.3,8.1L867.8,390L910.1,425.9L910.1,425.9z"/>
		</defs>
		<clipPath id="SVGID_00000076605851847493971480000015782642125742901384_">
			<use xlink:href="#SVGID_00000116194184368970194700000000146916256768085918_"  style="overflow:visible;"/>
		</clipPath>
		
			<path style="clip-path:url(#SVGID_00000076605851847493971480000015782642125742901384_);fill-rule:evenodd;clip-rule:evenodd;fill:#FE8B53;" d="
			M868.9,467.3c13.4,30.5,79.4,18.2,58.6-2.4c0,0-24.4-18.2-33.2-22.4c-4-1.9-8.5-3.7-13.2-2.5C875,441.7,873.9,463.5,868.9,467.3
			L868.9,467.3z"/>
	</g>
	<path class="st17" d="M856.4,352.8c0.3-0.1,0.5-0.3,0.8-0.5c0.5-0.3,1.1-0.5,1.7-0.8c1.8-0.7,3.7-1.2,5.6-1.2c3.7,0,7,1.9,10.6,2.4
		c1.4,0.2,3.5-0.1,3.5-2.2c-0.1-2.6-2.6-4.2-4.4-5.1c-4.4-2.4-9.9-3.4-14.8-1.4C853.7,346.1,852,355,856.4,352.8L856.4,352.8z"/>
	<path class="st0" d="M829.9,360.2c0,0,0.2,106.7,69,109.7c68.8,3,68.5-104.2,68.5-104.2l-22.1-95.6l-78.7-2.2L829.9,360.2
		L829.9,360.2z"/>
	<path class="st7" d="M933.8,277.5c-0.9-0.5-0.2,2-0.3,3c-0.1,2.1-0.1,4.1-0.1,6.2c0.1,5.9,0.3,11.7,0.8,17.6
		c1.9,21.8,9.5,48.9,29.8,61.1c5.2,3.1,11.3,4.5,17.2,6.1c0.6,0.2,5,1.7,5.5,1c0.5-0.8-0.2-2.6-0.3-3.4c-0.6-3.6-1.3-7.1-2.2-10.7
		c-3.7-14.1-9-27.7-14.4-41.2c-3.4-8.5-7.1-16.9-10.6-25.3c-5.4-12.8-10.8-26.7-24.1-33.1c-11.1-5.4-22.2-3.3-34-2.5
		c-14.3,1-30-1.4-42.7,6.6c-9.6,6-15.2,16.5-19.2,26.6c-6.8,17.3-11.9,35.8-11.1,54.4c0.2,5.2-1.6,12.6,0,17.6
		c1.1,3.4,8.7,5.2,11.3,5.8c11.9,2.7,25.5-0.2,36.2-5.7c8.3-4.3,15.1-10.8,21.5-17.4c13.7-14.1,24.5-29.7,30.8-48.5
		c2.2-6.7,5.8-15.2,5.8-22.4"/>
	<path class="st0" d="M836.2,405.4c0.1-1.7,3.7-11.1,2.4-20.2c-1.6-11-8.1-21.8-8.7-22.2c-0.7-0.4-1.3-0.8-1.5-0.9
		c-0.9-0.3-1.7-0.6-2.6-0.7c-2.5-0.5-5,0.2-7.1,1.7c-6,4.1-7.8,12.9-7.7,19.6c0.2,9.2,3.3,19.5,10.2,25.9
		C826.6,413.6,834.6,412.8,836.2,405.4L836.2,405.4z"/>
	<path class="st0" d="M963.8,405.4c-0.1-1.7-3.7-11.1-2.4-20.2c1.6-11,8.1-21.8,8.7-22.2c0.7-0.4,1.3-0.8,1.5-0.9
		c0.9-0.3,1.7-0.6,2.6-0.7c2.5-0.5,5,0.2,7.1,1.7c6,4.1,7.8,12.9,7.7,19.6c-0.2,9.2-3.3,19.5-10.2,25.9
		C973.4,413.6,965.4,412.8,963.8,405.4L963.8,405.4z"/>
</g>
</svg>
