<svg xmlns="http://www.w3.org/2000/svg" xmlns:xlink="http://www.w3.org/1999/xlink" viewBox="0 0 33.89 34.47"><defs><style>.cls-1{fill:url(#linear-gradient);}.cls-2{fill:url(#linear-gradient-2);}.cls-3{fill:url(#linear-gradient-3);}</style><linearGradient id="linear-gradient" x1="3.21" y1="27.63" x2="31.6" y2="27.63" gradientUnits="userSpaceOnUse"><stop offset="0" stop-color="#acaab6"/><stop offset="1" stop-color="#dedce8"/></linearGradient><linearGradient id="linear-gradient-2" y1="10.85" x2="29.47" y2="10.85" gradientUnits="userSpaceOnUse"><stop offset="0" stop-color="#5939d1"/><stop offset="1" stop-color="#8a68e8"/></linearGradient><linearGradient id="linear-gradient-3" x1="4.31" y1="14.71" x2="33.89" y2="14.71" gradientUnits="userSpaceOnUse"><stop offset="0" stop-color="#8a68e8"/><stop offset="1" stop-color="#5939d1"/></linearGradient></defs><g id="Layer_2" data-name="Layer 2"><g id="Layer_1-2" data-name="Layer 1"><path class="cls-1" d="M6.15,25,3.66,27.47l-.45.45.45.45,2.49,2.49V28.79h6.58V20.91H11v6.15H6.15V25Zm17.69-4.1v6.22h4.82V25l2.49,2.48.45.45-.45.45-2.49,2.49V28.74H22.2V20.89Zm-5.53-.1V31.17h3.3l-4.17,3.3-4.17-3.3h3.31V20.79Z"/><path class="cls-2" d="M29.47,7.34C21.64,8.13,9.08,11.1,4.31,21.69A6.52,6.52,0,0,1,6.53,9a6.7,6.7,0,0,1,1.34.14,7.38,7.38,0,0,1-.14-1.43,7.74,7.74,0,0,1,15.42-1,4.28,4.28,0,0,1,6.32.6Z"/><path class="cls-3" d="M33.89,17a5.07,5.07,0,0,1-5.08,5.07H6.53a6.28,6.28,0,0,1-2.22-.39C9.08,11.1,21.64,8.13,29.47,7.34A4.26,4.26,0,0,1,29.78,12,5.08,5.08,0,0,1,33.89,17Z"/></g></g></svg>