<svg xmlns="http://www.w3.org/2000/svg" xmlns:xlink="http://www.w3.org/1999/xlink" viewBox="0 0 29.59 36.28"><defs><style>.cls-1,.cls-2{fill-rule:evenodd;}.cls-1{fill:url(#linear-gradient);}.cls-2{fill:url(#linear-gradient-2);}.cls-3{fill:url(#linear-gradient-3);}</style><linearGradient id="linear-gradient" x1="11.25" y1="23.31" x2="26.19" y2="23.31" gradientUnits="userSpaceOnUse"><stop offset="0" stop-color="#8a68e8"/><stop offset="1" stop-color="#5939d1"/></linearGradient><linearGradient id="linear-gradient-2" x1="14.89" y1="9.09" x2="29.59" y2="9.09" xlink:href="#linear-gradient"/><linearGradient id="linear-gradient-3" y1="35.51" x2="28.02" y2="35.51" gradientUnits="userSpaceOnUse"><stop offset="0" stop-color="#acaab6"/><stop offset="1" stop-color="#dedce8"/></linearGradient></defs><g id="Layer_2" data-name="Layer 2"><g id="Layer_1-2" data-name="Layer 1"><path class="cls-1" d="M14.89,18.19l-3.57,8.93h0a1.11,1.11,0,0,0-.06.5,2.53,2.53,0,0,0,.05.4l.9,4.84,0,.21a1.84,1.84,0,0,0,.09.25,1.46,1.46,0,0,0,.37.52,1.87,1.87,0,0,0,.53.32h0a1.7,1.7,0,0,0,.59.1,1.43,1.43,0,0,0,.58-.12,1.36,1.36,0,0,0,.2-.11l.17-.11h0l3.85-3h0a1.34,1.34,0,0,0,.29-.34,2.35,2.35,0,0,0,.18-.35h0l7.08-17.85A48.66,48.66,0,0,0,14.89,18.19Zm3.3,12.2-6.31-2.51.56-1.42L18.75,29Z"/><path class="cls-2" d="M28,7.85h0l1.41-3.56a2.87,2.87,0,0,0,.21-.84,1.79,1.79,0,0,0-.13-.84A1.55,1.55,0,0,0,29,2a2.12,2.12,0,0,0-.61-.35L24.82.23A3.22,3.22,0,0,0,23.93,0,2.66,2.66,0,0,0,23,.07l-.2.06a1.11,1.11,0,0,0-.2.07A2,2,0,0,0,22,.61a1.77,1.77,0,0,0-.39.61h0l-1.4,3.55h0L14.89,18.19a48.66,48.66,0,0,1,11.3-5.84Zm-6.56-4L27.72,6.4l-.57,1.42-6.3-2.5Z"/><rect class="cls-3" y="34.74" width="28.02" height="1.54"/></g></g></svg>