<svg xmlns="http://www.w3.org/2000/svg" xmlns:xlink="http://www.w3.org/1999/xlink" viewBox="0 0 30.05 32.18"><defs><style>.cls-1{fill:url(#linear-gradient);}.cls-2{fill:#212121;}.cls-3{fill:url(#linear-gradient-2);}.cls-4{fill:url(#linear-gradient-3);}</style><linearGradient id="linear-gradient" x1="0.23" y1="8.35" x2="19.53" y2="8.35" gradientUnits="userSpaceOnUse"><stop offset="0" stop-color="#acaab6"/><stop offset="1" stop-color="#dedce8"/></linearGradient><linearGradient id="linear-gradient-2" y1="23.6" x2="15" y2="23.6" gradientUnits="userSpaceOnUse"><stop offset="0" stop-color="#8a68e8"/><stop offset="1" stop-color="#5939d1"/></linearGradient><linearGradient id="linear-gradient-3" x1="15.06" y1="16.1" x2="30.05" y2="16.1" xlink:href="#linear-gradient-2"/></defs><g id="Layer_2" data-name="Layer 2"><g id="Layer_1-2" data-name="Layer 1"><path class="cls-1" d="M2.85,16.69,1.18,14l-.35-.56.57-.34,1.68-1a9.4,9.4,0,0,1-.2-.92,7.3,7.3,0,0,1-.08-.94L.87,9.7.23,9.54.38,8.9,1,6.42l.16-.64.64.16L3.7,6.4a9.1,9.1,0,0,1,.51-.8,5.21,5.21,0,0,1,.6-.72l-1-1.69-.35-.57L4,2.28,6.17,1,6.73.61l.35.56,1,1.69A7.21,7.21,0,0,1,9,2.65c.31,0,.62-.07.94-.08L10.44.64,10.59,0l.64.15,2.48.6.64.16-.15.64-.47,1.93a7.18,7.18,0,0,1,.8.5,6.94,6.94,0,0,1,.72.6l1.69-1,.56-.34.35.56,1.33,2.17.35.56L19,6.85l-5.28,3.22c0-.11,0-.23,0-.35A3.46,3.46,0,1,0,9,12.94Z"/><polygon class="cls-2" points="12.41 26.12 12.41 26.12 12.58 26.3 12.41 26.12"/><rect class="cls-2" x="12.29" y="25.83" height="0.34" transform="translate(-14.61 15.85) rotate(-44.03)"/><path class="cls-3" d="M12.18,25.87a1.33,1.33,0,0,0-.93-.39,1.31,1.31,0,0,0-.95.34l-3,2.83a2.07,2.07,0,0,1-2.87-.08h0l-.88-.93h0A1.81,1.81,0,0,1,3.13,27,2,2,0,0,1,3,26.19H3a2.21,2.21,0,0,1,.17-.77,2.26,2.26,0,0,1,.46-.65l6.56-6.19h0A2.07,2.07,0,0,1,11.37,18a2.12,2.12,0,0,1,1.27.28,1.57,1.57,0,0,0,1,.2,1.47,1.47,0,0,0,1.17-2.21,1.41,1.41,0,0,0-.45-.46,5.39,5.39,0,0,0-1.1-.55A4.82,4.82,0,0,0,12,15.05a4.95,4.95,0,0,0-3.9,1.35L1.57,22.59a5,5,0,0,0-.2,7.12h0l.88.91h0l0,0,0,0h0A4.84,4.84,0,0,0,3.7,31.68a5.06,5.06,0,0,0,1.76.48h0a5,5,0,0,0,3.9-1.34l3-2.83a1.25,1.25,0,0,0,.3-.42,1.36,1.36,0,0,0,.12-.5,1.52,1.52,0,0,0-.09-.51,1.57,1.57,0,0,0-.28-.44l-.23-.25Z"/><polygon class="cls-2" points="17.64 13.59 17.64 13.59 17.47 13.41 17.64 13.59"/><rect class="cls-2" x="17.75" y="13.54" height="0.34" transform="translate(-4.68 13.67) rotate(-37.57)"/><path class="cls-4" d="M17.87,13.84a1.33,1.33,0,0,0,.93.39,1.31,1.31,0,0,0,.95-.34l3-2.84a2.08,2.08,0,0,1,2.87.09h0l.88.93h0a2,2,0,0,1,.42.66,2.08,2.08,0,0,1,.13.79h0a2,2,0,0,1-.18.77,1.93,1.93,0,0,1-.46.65l-6.55,6.19h0a2.07,2.07,0,0,1-1.18.54,2.11,2.11,0,0,1-1.27-.28,1.62,1.62,0,0,0-1.9.22h0l0,0,0,0h0a1.47,1.47,0,0,0-.36.53,1.53,1.53,0,0,0-.09.64h0l.06.69h0l0,.35,0-.35h0l-.07-.69h0a1.37,1.37,0,0,0,.64,1.07,5.39,5.39,0,0,0,1.1.55,5.31,5.31,0,0,0,1.21.25,5.11,5.11,0,0,0,2.1-.26,5.06,5.06,0,0,0,1.8-1.09l6.56-6.2a5,5,0,0,0,.2-7.11h0l-.88-.91h0l0,0,0,0h0A4.79,4.79,0,0,0,26.35,8a5.06,5.06,0,0,0-1.76-.48h0a5,5,0,0,0-2.11.25,4.94,4.94,0,0,0-1.79,1.09l-3,2.83a1.31,1.31,0,0,0-.3.41,1.46,1.46,0,0,0-.12.51,1.52,1.52,0,0,0,.09.51,1.57,1.57,0,0,0,.28.44l.23.25Z"/></g></g></svg>