<svg xmlns="http://www.w3.org/2000/svg" xmlns:xlink="http://www.w3.org/1999/xlink" viewBox="0 0 36.07 26.9"><defs><style>.cls-1{fill:url(#linear-gradient);}.cls-2{fill:url(#linear-gradient-2);}.cls-3{fill:url(#linear-gradient-3);}.cls-4{fill:url(#linear-gradient-4);}.cls-5{fill:url(#linear-gradient-5);}.cls-6{fill:url(#linear-gradient-6);}.cls-7{fill:url(#linear-gradient-7);}.cls-8{fill:url(#linear-gradient-8);}.cls-9{fill:url(#linear-gradient-9);}.cls-10{fill:url(#linear-gradient-10);}.cls-11{fill:url(#linear-gradient-11);}.cls-12{fill:url(#linear-gradient-12);}.cls-13{fill:url(#linear-gradient-13);}.cls-14{fill:url(#linear-gradient-14);}.cls-15{fill:#efefef;}.cls-16{fill:url(#linear-gradient-15);}.cls-17{fill:url(#linear-gradient-16);}</style><linearGradient id="linear-gradient" x1="2.29" y1="13.13" x2="33.34" y2="13.13" gradientUnits="userSpaceOnUse"><stop offset="0" stop-color="#5939d1"/><stop offset="1" stop-color="#8a68e8"/></linearGradient><linearGradient id="linear-gradient-2" x1="2.29" y1="13.62" x2="34.05" y2="13.62" gradientUnits="userSpaceOnUse"><stop offset="0" stop-color="#8a68e8"/><stop offset="1" stop-color="#5939d1"/></linearGradient><linearGradient id="linear-gradient-3" x1="18.21" y1="19.65" x2="21.19" y2="19.65" gradientTransform="translate(37.08 41.37) rotate(-173.6)" gradientUnits="userSpaceOnUse"><stop offset="0" stop-color="#acaab6"/><stop offset="1" stop-color="#dedce8"/></linearGradient><linearGradient id="linear-gradient-4" x1="17.95" y1="14.85" x2="21.24" y2="14.85" gradientTransform="translate(-3.04 5.24) rotate(-14.15)" xlink:href="#linear-gradient-3"/><linearGradient id="linear-gradient-5" x1="16.52" y1="10.59" x2="19.81" y2="10.59" gradientTransform="translate(-2.04 4.76) rotate(-14.15)" xlink:href="#linear-gradient-3"/><linearGradient id="linear-gradient-6" x1="19.7" y1="11.48" x2="22.4" y2="11.48" gradientTransform="matrix(1, 0, 0, 1, 0, 0)" xlink:href="#linear-gradient-3"/><linearGradient id="linear-gradient-7" x1="25.8" y1="15.22" x2="29.81" y2="15.22" gradientTransform="translate(-2.88 7.26) rotate(-14.15)" xlink:href="#linear-gradient-3"/><linearGradient id="linear-gradient-8" x1="28.81" y1="18.59" x2="32.81" y2="18.59" gradientTransform="translate(56.14 44.15) rotate(-165.85)" xlink:href="#linear-gradient-3"/><linearGradient id="linear-gradient-9" x1="27.15" y1="11.31" x2="31.28" y2="11.31" gradientTransform="translate(4.64 -8.12) rotate(17.16)" xlink:href="#linear-gradient-3"/><linearGradient id="linear-gradient-10" x1="8.24" y1="10.87" x2="10.99" y2="10.87" gradientTransform="translate(-1.15 1.14) rotate(-6.4)" xlink:href="#linear-gradient-3"/><linearGradient id="linear-gradient-11" x1="8.28" y1="14.84" x2="11.4" y2="14.84" gradientTransform="translate(4.82 -2.24) rotate(17.16)" xlink:href="#linear-gradient-3"/><linearGradient id="linear-gradient-12" x1="10.84" y1="11.97" x2="13.59" y2="11.97" gradientTransform="translate(-1.26 1.44) rotate(-6.4)" xlink:href="#linear-gradient-3"/><linearGradient id="linear-gradient-13" x1="10.89" y1="15.94" x2="14.01" y2="15.94" gradientTransform="translate(5.26 -2.96) rotate(17.16)" xlink:href="#linear-gradient-3"/><linearGradient id="linear-gradient-14" x1="8.93" y1="19.49" x2="11.68" y2="19.49" gradientTransform="translate(-2.11 1.27) rotate(-6.4)" xlink:href="#linear-gradient-3"/><linearGradient id="linear-gradient-15" x1="3.14" y1="14.84" x2="4.79" y2="14.84" gradientTransform="matrix(1, 0, 0, 1, 0, 0)" xlink:href="#linear-gradient-3"/><linearGradient id="linear-gradient-16" x1="0" y1="13.45" x2="36.07" y2="13.45" xlink:href="#linear-gradient-2"/></defs><g id="Layer_2" data-name="Layer 2"><g id="Layer_1-2" data-name="Layer 1"><path class="cls-1" d="M33.34,2.1H2.29V24.16C14.74,19.77,26.29,12.28,33.34,2.1Z"/><path class="cls-2" d="M2.29,24.16v1H34.05V2.1h-.71C26.29,12.28,14.74,19.77,2.29,24.16Z"/><rect class="cls-3" x="18.35" y="18.28" width="2.7" height="2.74" transform="translate(41.47 36.98) rotate(173.6)"/><rect class="cls-4" x="18.24" y="13.49" width="2.7" height="2.74" transform="translate(4.23 -4.34) rotate(14.15)"/><rect class="cls-5" x="16.82" y="9.22" width="2.7" height="2.74" transform="translate(3.14 -4.12) rotate(14.15)"/><rect class="cls-6" x="19.7" y="10.12" width="2.7" height="2.74"/><rect class="cls-7" x="26.16" y="13.55" width="3.29" height="3.34" transform="translate(4.56 -6.34) rotate(14.15)"/><rect class="cls-8" x="29.17" y="16.92" width="3.29" height="3.34" transform="translate(65.23 29.08) rotate(165.85)"/><rect class="cls-9" x="27.57" y="9.64" width="3.29" height="3.34" transform="translate(-2.04 9.13) rotate(-17.16)"/><rect class="cls-10" x="8.37" y="9.61" width="2.49" height="2.52" transform="translate(1.27 -1) rotate(6.4)"/><rect class="cls-11" x="8.6" y="13.58" width="2.49" height="2.52" transform="translate(-3.94 3.56) rotate(-17.16)"/><rect class="cls-12" x="10.97" y="10.71" width="2.49" height="2.52" transform="translate(1.41 -1.29) rotate(6.4)"/><rect class="cls-13" x="11.2" y="14.68" width="2.49" height="2.52" transform="translate(-4.15 4.38) rotate(-17.16)"/><rect class="cls-14" x="9.06" y="18.22" width="2.49" height="2.52" transform="translate(2.24 -1.03) rotate(6.4)"/><rect class="cls-15" x="8.92" y="4.3" width="3.18" height="0.82"/><rect class="cls-15" x="7.96" y="5.7" width="5.11" height="0.82"/><rect class="cls-15" x="18" y="4.3" width="3.18" height="0.82"/><rect class="cls-15" x="17.04" y="5.7" width="5.11" height="0.82"/><rect class="cls-15" x="27.63" y="4.3" width="3.18" height="0.82"/><rect class="cls-15" x="26.66" y="5.7" width="5.11" height="0.82"/><rect class="cls-15" x="14.71" y="3.59" width="1" height="19.66"/><rect class="cls-15" x="5.54" y="3.59" width="1" height="19.66"/><rect class="cls-15" x="23.88" y="3.59" width="1" height="19.66"/><path class="cls-16" d="M4.79,9.48H3.14V9H4.79Zm-.4-1.61H3.15v.5H4.39Zm.4,2.23H3.14v.49H4.79Zm0,5.74H3.14v.49H4.79Zm-.4-1.11H3.15v.49H4.39ZM4.79,17H3.14v.5H4.79Zm0,4.37H3.14v.49H4.79Z"/><path class="cls-17" d="M36.07,26.9H0V0H36.07ZM1,25.9H35.07V1H1Z"/></g></g></svg>