<svg xmlns="http://www.w3.org/2000/svg" xmlns:xlink="http://www.w3.org/1999/xlink" viewBox="0 0 24.92 27.71"><defs><style>.cls-1,.cls-2,.cls-3{fill-rule:evenodd;}.cls-1{fill:url(#linear-gradient);}.cls-2{fill:url(#linear-gradient-2);}.cls-3{fill:url(#linear-gradient-3);}</style><linearGradient id="linear-gradient" x1="0.09" y1="3.75" x2="24.92" y2="3.75" gradientUnits="userSpaceOnUse"><stop offset="0" stop-color="#8a68e8"/><stop offset="1" stop-color="#5939d1"/></linearGradient><linearGradient id="linear-gradient-2" x1="0" y1="23.96" x2="24.84" y2="23.96" xlink:href="#linear-gradient"/><linearGradient id="linear-gradient-3" x1="4.02" y1="13.96" x2="20.73" y2="13.96" gradientUnits="userSpaceOnUse"><stop offset="0" stop-color="#acaab6"/><stop offset="1" stop-color="#dedce8"/></linearGradient></defs><g id="Layer_2" data-name="Layer 2"><g id="Layer_1-2" data-name="Layer 1"><path class="cls-1" d="M2.6,3.3a15.92,15.92,0,0,1,21,1.36c.2.2.39.4.58.61l.54.63.24.31-1.59,1.3-.25-.31c-.15-.19-.31-.37-.48-.55s-.32-.36-.5-.53a13.86,13.86,0,0,0-18-1.35L6,6.7.09,7.12.51,1.21Z"/><path class="cls-2" d="M22.32,24.41a15.92,15.92,0,0,1-21-1.36l-.57-.61a8.14,8.14,0,0,1-.54-.63L0,21.5l1.6-1.3.25.31c.15.19.31.38.47.56s.33.35.5.52a13.86,13.86,0,0,0,18,1.35L18.92,21l5.92-.43-.43,5.91Z"/><path class="cls-3" d="M20.73,13V14.9H18.57a6.15,6.15,0,0,1-1.15,2.77L19,19.2l-1.33,1.33L16.09,19a6.19,6.19,0,0,1-2.78,1.15v2.16H11.43V20.15A6.2,6.2,0,0,1,8.66,19L7.13,20.53,5.8,19.2l1.53-1.53A6.15,6.15,0,0,1,6.18,14.9H4V13H6.18a6.19,6.19,0,0,1,1.15-2.78L5.8,8.71,7.13,7.38,8.66,8.91a6.32,6.32,0,0,1,2.77-1.15V5.6h1.88V7.76a6.31,6.31,0,0,1,2.78,1.15l1.53-1.53L19,8.71l-1.53,1.53A6.19,6.19,0,0,1,18.57,13Zm-8.36-1.71A2.65,2.65,0,1,0,15,14,2.65,2.65,0,0,0,12.37,11.31Z"/></g></g></svg>