<svg xmlns="http://www.w3.org/2000/svg" xmlns:xlink="http://www.w3.org/1999/xlink" viewBox="0 0 29.31 29.31"><defs><style>.cls-1{fill:url(#linear-gradient);}.cls-2{fill:url(#linear-gradient-2);}.cls-3{fill:url(#linear-gradient-3);}.cls-4{fill:url(#linear-gradient-4);}</style><linearGradient id="linear-gradient" y1="11.94" x2="27.31" y2="11.94" gradientUnits="userSpaceOnUse"><stop offset="0" stop-color="#8a68e8"/><stop offset="1" stop-color="#5939d1"/></linearGradient><linearGradient id="linear-gradient-2" x1="3.28" y1="18.31" x2="29.31" y2="18.31" gradientUnits="userSpaceOnUse"><stop offset="0" stop-color="#5939d1"/><stop offset="1" stop-color="#8a68e8"/></linearGradient><linearGradient id="linear-gradient-3" x1="7.95" y1="10.98" x2="20" y2="10.98" gradientUnits="userSpaceOnUse"><stop offset="0" stop-color="#acaab6"/><stop offset="1" stop-color="#dedce8"/></linearGradient><linearGradient id="linear-gradient-4" x1="8.54" y1="10.6" x2="20.59" y2="10.6" gradientTransform="translate(30.04 28.94) rotate(180)" xlink:href="#linear-gradient"/></defs><g id="Layer_2" data-name="Layer 2"><g id="Layer_1-2" data-name="Layer 1"><path class="cls-1" d="M2.29,14.66A12.35,12.35,0,0,1,25.77,9.28c.53-.64,1.05-1.3,1.54-2a14.64,14.64,0,1,0-24,16.58c.78-.26,1.55-.55,2.31-.84A12.32,12.32,0,0,1,2.29,14.66Z"/><path class="cls-2" d="M25.77,9.28A12.34,12.34,0,0,1,5.59,23c-.76.29-1.53.58-2.31.84a14.65,14.65,0,0,0,26-9.22,14.46,14.46,0,0,0-2-7.36C26.82,8,26.3,8.64,25.77,9.28Z"/><polygon class="cls-3" points="7.95 9.83 14.65 9.83 14.65 7.3 20 10.91 14.78 14.66 14.78 11.95 7.95 11.95 7.95 9.83"/><polygon class="cls-4" points="21.5 19.48 14.8 19.48 14.8 22.02 9.45 18.41 14.67 14.66 14.67 17.36 21.5 17.36 21.5 19.48"/></g></g></svg>