<svg xmlns="http://www.w3.org/2000/svg" xmlns:xlink="http://www.w3.org/1999/xlink" viewBox="0 0 35.41 26.99"><defs><style>.cls-1{fill:url(#linear-gradient);}.cls-2{fill:url(#linear-gradient-2);}.cls-3{fill:#fff;}.cls-4,.cls-6{fill-rule:evenodd;}.cls-4{fill:url(#linear-gradient-3);}.cls-5{fill:url(#linear-gradient-4);}.cls-6{fill:url(#linear-gradient-5);}</style><linearGradient id="linear-gradient" x1="28.74" y1="19.99" x2="29.67" y2="19.99" gradientUnits="userSpaceOnUse"><stop offset="0" stop-color="#8a68e8"/><stop offset="1" stop-color="#5939d1"/></linearGradient><linearGradient id="linear-gradient-2" x1="0" y1="15.3" x2="32.37" y2="15.3" xlink:href="#linear-gradient"/><linearGradient id="linear-gradient-3" y1="2.45" x2="32.37" y2="2.45" gradientUnits="userSpaceOnUse"><stop offset="0" stop-color="#acaab6"/><stop offset="1" stop-color="#dedce8"/></linearGradient><linearGradient id="linear-gradient-4" x1="24.91" y1="12.95" x2="33.5" y2="12.95" xlink:href="#linear-gradient"/><linearGradient id="linear-gradient-5" x1="23.01" y1="21.4" x2="35.41" y2="21.4" gradientUnits="userSpaceOnUse"><stop offset="0" stop-color="#5939d1"/><stop offset="1" stop-color="#8a68e8"/></linearGradient></defs><g id="Layer_2" data-name="Layer 2"><g id="Layer_1-2" data-name="Layer 1"><path class="cls-1" d="M29.67,20a.46.46,0,0,1-.13.33.49.49,0,0,1-.18.11l-.15.05-.15-.05a.42.42,0,0,1-.18-.11.47.47,0,1,1,.79-.33Z"/><path class="cls-2" d="M32.37,5.6v4a5.29,5.29,0,0,0-8.46,4.23v.93h-.1A1.77,1.77,0,0,0,22,16.53V25H2a2.09,2.09,0,0,1-1.39-.52A1.81,1.81,0,0,1,0,23.13V5.6Z"/><path class="cls-3" d="M11,15.08,4.83,11.51a7.71,7.71,0,0,0,2.62,9.76L11,15.08Z"/><path class="cls-3" d="M9.46,7.55a7.62,7.62,0,0,0-4.1,3l5.81,3.35L9.46,7.55Z"/><path class="cls-3" d="M12.47,14.69,8.37,21.8A7.69,7.69,0,1,0,10.49,7.3Z"/><path class="cls-4" d="M0,4.9H32.37v-3A1.83,1.83,0,0,0,31.75.52,2.09,2.09,0,0,0,30.36,0H2A2.09,2.09,0,0,0,.62.52,1.83,1.83,0,0,0,0,1.87v3ZM23.51,2.8a.68.68,0,1,1,.67.68.67.67,0,0,1-.67-.68Zm2.34,0a.68.68,0,1,1,.68.68.68.68,0,0,1-.68-.68Zm2.35,0a.68.68,0,1,1,.68.68A.67.67,0,0,1,28.2,2.8Z"/><path class="cls-5" d="M24.91,16.31V13.88a4.3,4.3,0,0,1,4.3-4.3h0a4.3,4.3,0,0,1,4.29,4.3v2.43H32V13.88a2.78,2.78,0,0,0-2.78-2.78h0a2.77,2.77,0,0,0-2.78,2.78v2.43Z"/><path class="cls-6" d="M34.61,15.81H23.81a.76.76,0,0,0-.8.72v9.73a.76.76,0,0,0,.8.73h10.8a.77.77,0,0,0,.8-.73V16.53A.76.76,0,0,0,34.61,15.81ZM30.67,20a1.43,1.43,0,0,1-.43,1,1.46,1.46,0,0,1-.57.36v2.24c-.33.3-.64.33-.93,0V21.37a1.62,1.62,0,0,1-.57-.36,1.52,1.52,0,0,1-.43-1,1.47,1.47,0,0,1,.43-1,1.45,1.45,0,0,1,1-.43,1.43,1.43,0,0,1,1,.43,1.34,1.34,0,0,1,.43,1Z"/></g></g></svg>