<svg xmlns="http://www.w3.org/2000/svg" xmlns:xlink="http://www.w3.org/1999/xlink" viewBox="0 0 31.7 28.56"><defs><style>.cls-1,.cls-2,.cls-3,.cls-4,.cls-6{fill-rule:evenodd;}.cls-1{fill:url(#linear-gradient);}.cls-2{fill:url(#linear-gradient-2);}.cls-3{fill:#fff;}.cls-4{fill:url(#linear-gradient-3);}.cls-5{fill:#efefef;}.cls-6{fill:url(#linear-gradient-4);}</style><linearGradient id="linear-gradient" y1="14.66" x2="21.69" y2="14.66" gradientUnits="userSpaceOnUse"><stop offset="0" stop-color="#5939d1"/><stop offset="1" stop-color="#8a68e8"/></linearGradient><linearGradient id="linear-gradient-2" x1="6.17" y1="23.66" x2="21.69" y2="23.66" gradientUnits="userSpaceOnUse"><stop offset="0" stop-color="#8a68e8"/><stop offset="1" stop-color="#5939d1"/></linearGradient><linearGradient id="linear-gradient-3" x1="7.21" y1="1.17" x2="15.92" y2="1.17" gradientUnits="userSpaceOnUse"><stop offset="0" stop-color="#acaab6"/><stop offset="1" stop-color="#dedce8"/></linearGradient><linearGradient id="linear-gradient-4" x1="19.26" y1="19.22" x2="31.7" y2="19.22" xlink:href="#linear-gradient-3"/></defs><g id="Layer_2" data-name="Layer 2"><g id="Layer_1-2" data-name="Layer 1"><path class="cls-1" d="M18.5,18.76a7,7,0,0,1,.28-1.2A6.6,6.6,0,0,1,21.69,14V.75H16.52V1.83a.83.83,0,0,1-.46.69,1.76,1.76,0,0,1-.86.21H7.93a1.76,1.76,0,0,1-.86-.21.83.83,0,0,1-.46-.69V.75H0V28.56H6.17A51.16,51.16,0,0,0,18.5,18.76Z"/><path class="cls-2" d="M19.14,22.63a6.59,6.59,0,0,1-.64-3.87,51.16,51.16,0,0,1-12.33,9.8H21.69V25.38A6.64,6.64,0,0,1,19.14,22.63Z"/><polygon class="cls-3" points="12.24 22.65 11.57 23.32 13.02 24.77 13.35 25.1 13.69 24.77 17.3 21.16 16.63 20.49 13.35 23.76 12.24 22.65 12.24 22.65"/><polygon class="cls-3" points="12.24 15.39 11.57 16.06 13.02 17.5 13.35 17.84 13.69 17.5 17.3 13.89 16.63 13.22 13.35 16.5 12.24 15.39 12.24 15.39"/><polygon class="cls-3" points="12.24 8.12 11.57 8.79 13.02 10.24 13.35 10.57 13.69 10.24 17.3 6.63 16.63 5.96 13.35 9.23 12.24 8.12"/><path class="cls-4" d="M7.93,0a1,1,0,0,0-.56.15s-.16.11-.16.18V2c0,.07.11.16.16.19a1.08,1.08,0,0,0,.56.14H15.2a1.08,1.08,0,0,0,.56-.14s.16-.12.16-.19V.33c0-.07-.12-.16-.16-.18A1,1,0,0,0,15.2,0Z"/><rect class="cls-5" x="4.48" y="7.57" width="2.96" height="2.69"/><rect class="cls-5" x="4.48" y="15.14" width="2.96" height="2.69"/><rect class="cls-5" x="4.48" y="22.31" width="2.96" height="2.69"/><path class="cls-6" d="M25.86,18.85V13a5.84,5.84,0,0,1,5.84,5.84Zm-.76.73H31a5.85,5.85,0,1,1-5.85-5.84Z"/></g></g></svg>