<svg xmlns="http://www.w3.org/2000/svg" viewBox="0 0 89.54 63.91"><defs><style>.cls-1{fill:#462b73;}.cls-2{fill:#fbae48;}.cls-3{fill:#6967af;}.cls-4{fill:#939598;}</style></defs><g id="Layer_2" data-name="Layer 2"><g id="Page_1" data-name="Page 1"><g id="_Icon4_" data-name="&lt;Icon4&gt;"><rect class="cls-1" x="49.46" y="9.16" width="1.01" height="8.39" transform="translate(28.85 -33.86) rotate(50.94)"/><rect class="cls-1" x="48.4" y="14.82" width="6.73" height="1.52" transform="translate(31.24 -34.44) rotate(50.94)"/><path class="cls-1" d="M51.11,14.76a1.81,1.81,0,0,0,.26-2.54L48.56,14.5A1.81,1.81,0,0,0,51.11,14.76Z"/><polygon class="cls-2" points="36.76 15.58 43.92 33.93 16.65 33.93 9.49 15.58 36.76 15.58"/><path class="cls-1" d="M74.1,25.22A1.35,1.35,0,0,1,72.65,24V8.26A10.28,10.28,0,0,1,76.24.59l.55-.5c.55-.5,2.67,1.19,2.12,1.69l-.55.49a8.08,8.08,0,0,0-2.8,6V24A1.36,1.36,0,0,1,74.1,25.22Z"/><rect class="cls-1" x="39.97" y="33.93" width="28.75" height="9.04"/><path class="cls-2" d="M55,15.58H77.42A12.11,12.11,0,0,1,89.54,27.69v3.18A12.11,12.11,0,0,1,77.43,43H55a0,0,0,0,1,0,0V15.58a0,0,0,0,1,0,0Z"/><path class="cls-2" d="M44.38,43H40.57A19.63,19.63,0,0,0,10.5,26.36a.65.65,0,0,1-.88-.18L8.21,24.09a.66.66,0,0,1,.18-.91A23.44,23.44,0,0,1,44.38,43Z"/><rect class="cls-1" x="78.17" y="11.15" width="1.53" height="4.43"/><path d="M40.68,41a19,19,0,0,0-.7-3.56,1.2,1.2,0,0,0,.65-1.57L40,34.3a1.2,1.2,0,0,0-1.56-.66,20.31,20.31,0,0,0-2.12-3.19,1.2,1.2,0,0,0,0-1.7l-1.16-1.16a1.21,1.21,0,0,0-1.7,0,19.69,19.69,0,0,0-3-2A1.21,1.21,0,0,0,29.81,24l-1.51-.64a1.21,1.21,0,0,0-1.58.64A19.48,19.48,0,0,0,23,23.23,1.22,1.22,0,0,0,21.76,22H20.12a1.21,1.21,0,0,0-1.21,1.2,20.65,20.65,0,0,0-3.55.7,1.21,1.21,0,0,0-1.57-.65l-1.52.62a1.21,1.21,0,0,0-.67,1.56,20.22,20.22,0,0,0-3.18,2.12,1.22,1.22,0,0,0-1.71,0L5.55,28.75a1.2,1.2,0,0,0,0,1.7,20.2,20.2,0,0,0-2,3A1.22,1.22,0,0,0,2,34.1l-.63,1.52A1.2,1.2,0,0,0,2,37.19,20.2,20.2,0,0,0,1.2,41,1.2,1.2,0,0,0,0,42.15v1.64A1.21,1.21,0,0,0,1.2,45a18.91,18.91,0,0,0,.7,3.55,1.21,1.21,0,0,0-.66,1.58l.62,1.52a1.21,1.21,0,0,0,1.57.66A19.42,19.42,0,0,0,5.55,55.5a1.2,1.2,0,0,0,0,1.7l1.16,1.16a1.21,1.21,0,0,0,1.71,0,20,20,0,0,0,3,2A1.21,1.21,0,0,0,12.07,62l1.51.63A1.2,1.2,0,0,0,15.16,62a19.32,19.32,0,0,0,3.75.75,1.21,1.21,0,0,0,1.21,1.2h1.64A1.21,1.21,0,0,0,23,62.71,19.9,19.9,0,0,0,26.52,62a1.21,1.21,0,0,0,1.57.65l1.52-.62a1.21,1.21,0,0,0,.67-1.57,19.34,19.34,0,0,0,3.18-2.12,1.2,1.2,0,0,0,1.7,0l1.16-1.16a1.2,1.2,0,0,0,0-1.7,19.78,19.78,0,0,0,2-3,1.21,1.21,0,0,0,1.57-.65l.64-1.51a1.21,1.21,0,0,0-.64-1.58A19.33,19.33,0,0,0,40.68,45a1.21,1.21,0,0,0,1.2-1.21V42.15A1.2,1.2,0,0,0,40.68,41Z"/><circle class="cls-3" cx="20.94" cy="42.97" r="10.79" transform="translate(-24.25 27.39) rotate(-45)"/><path class="cls-4" d="M27.11,43a6.17,6.17,0,1,1-6.17-6.17A6.17,6.17,0,0,1,27.11,43Z"/><path d="M87.46,49.14A12.11,12.11,0,0,0,87,46.86a.79.79,0,0,0,.42-1l-.4-1a.77.77,0,0,0-1-.43,12.85,12.85,0,0,0-1.37-2,.77.77,0,0,0,0-1.09l-.75-.75a.77.77,0,0,0-1.09,0,13.37,13.37,0,0,0-1.93-1.31.78.78,0,0,0-.42-1l-1-.4a.77.77,0,0,0-1,.4,12.86,12.86,0,0,0-2.41-.48.78.78,0,0,0-.78-.77H74.23a.77.77,0,0,0-.77.77,12.38,12.38,0,0,0-2.29.45.77.77,0,0,0-1-.42l-1,.4a.77.77,0,0,0-.43,1,12.41,12.41,0,0,0-2.05,1.37.78.78,0,0,0-1.1,0l-.74.75a.76.76,0,0,0,0,1.09,13.3,13.3,0,0,0-1.3,1.93.78.78,0,0,0-1,.42l-.41,1a.79.79,0,0,0,.41,1,12.7,12.7,0,0,0-.48,2.41.77.77,0,0,0-.77.78v1a.77.77,0,0,0,.77.78A12.27,12.27,0,0,0,62.52,54a.78.78,0,0,0-.43,1l.4,1a.78.78,0,0,0,1,.43,13.5,13.5,0,0,0,1.36,2,.76.76,0,0,0,0,1.09l.74.75a.78.78,0,0,0,1.1,0,12.54,12.54,0,0,0,1.93,1.3.78.78,0,0,0,.42,1l1,.4a.78.78,0,0,0,1-.4,12.7,12.7,0,0,0,2.41.48.77.77,0,0,0,.77.77h1.06a.78.78,0,0,0,.78-.77,12.27,12.27,0,0,0,2.28-.45.78.78,0,0,0,1,.42l1-.4a.77.77,0,0,0,.43-1,12.85,12.85,0,0,0,2-1.37.77.77,0,0,0,1.09,0l.75-.75a.77.77,0,0,0,0-1.09A12.54,12.54,0,0,0,86,56.57a.78.78,0,0,0,1-.42l.41-1a.78.78,0,0,0-.41-1,12,12,0,0,0,.49-2.41.77.77,0,0,0,.77-.78v-1A.77.77,0,0,0,87.46,49.14Z"/><circle class="cls-3" cx="74.76" cy="50.44" r="6.94"/><circle class="cls-4" cx="74.76" cy="50.44" r="3.97"/><path class="cls-2" d="M6.55,15.58H36.76L35,11.15H6.55a.65.65,0,0,0-.65.64v3.14A.65.65,0,0,0,6.55,15.58Z"/><path class="cls-2" d="M59,21l-2.17,5.88-6.07-7.49c-.56-.7-.73-1.5-.37-1.79l3.34-2.72c.36-.29,1.12,0,1.68.74l3.07,3.8A1.87,1.87,0,0,1,59,21Z"/></g></g></g></svg>