<svg xmlns="http://www.w3.org/2000/svg" xmlns:xlink="http://www.w3.org/1999/xlink" viewBox="0 0 29.34 32.15"><defs><style>.cls-1{fill:url(#linear-gradient);}.cls-2{fill:url(#linear-gradient-2);}.cls-3{fill:#efefef;}.cls-4{fill:url(#linear-gradient-3);}.cls-5{fill:url(#linear-gradient-4);}</style><linearGradient id="linear-gradient" y1="8.45" x2="19.11" y2="8.45" gradientUnits="userSpaceOnUse"><stop offset="0" stop-color="#8a68e8"/><stop offset="1" stop-color="#5939d1"/></linearGradient><linearGradient id="linear-gradient-2" y1="16.07" x2="20.09" y2="16.07" gradientUnits="userSpaceOnUse"><stop offset="0" stop-color="#5939d1"/><stop offset="1" stop-color="#8a68e8"/></linearGradient><linearGradient id="linear-gradient-3" x1="13.63" y1="14.76" x2="28.82" y2="14.76" xlink:href="#linear-gradient"/><linearGradient id="linear-gradient-4" x1="14.78" y1="17.66" x2="29.34" y2="17.66" xlink:href="#linear-gradient-2"/></defs><g id="Layer_2" data-name="Layer 2"><g id="Layer_1-2" data-name="Layer 1"><path class="cls-1" d="M19.11,0H1A1,1,0,0,0,0,1V16.91C5,9.8,11.41,3.66,19.11,0Z"/><path class="cls-2" d="M19.11,0C11.41,3.66,5,9.8,0,16.91V31.15a1,1,0,0,0,1,1H19.1a1,1,0,0,0,1-1V1A1,1,0,0,0,19.11,0Z"/><rect class="cls-3" y="5.02" width="20.09" height="22.1"/><rect class="cls-3" x="6.76" y="1.88" width="6.03" height="1.26"/><path class="cls-4" d="M22,8.14A7.26,7.26,0,0,0,15.73,18.9,4,4,0,0,1,15.07,20a3.48,3.48,0,0,1-.64.56,3.23,3.23,0,0,1-.76.4c-.09,0,0,.09,0,.11s.18.09.27.13a4.92,4.92,0,0,0,.58.19l.24.05c3-5.11,8.45-7.75,14-8.69A7.25,7.25,0,0,0,22,8.14Z"/><path class="cls-5" d="M14.78,21.39a3.7,3.7,0,0,0,.83.1,4.79,4.79,0,0,0,1.12-.09,6.87,6.87,0,0,0,1-.24A7.25,7.25,0,0,0,28.82,12.7C23.23,13.64,17.79,16.28,14.78,21.39Z"/><path class="cls-3" d="M25.15,18.05H22.84a.8.8,0,0,1-.75.59.79.79,0,0,1-.75-.59H19a.24.24,0,0,1-.22-.33c.09-.2.16-.43.19-.49a6.94,6.94,0,0,0,.38-2,3.33,3.33,0,0,1,.49-1.77A2.76,2.76,0,0,1,22,12.38h.14a2.71,2.71,0,0,1,.85.15,2.75,2.75,0,0,1,1.29.92,3.41,3.41,0,0,1,.48,1.77,7.6,7.6,0,0,0,.38,2s.1.29.19.49A.22.22,0,0,1,25.15,18.05Z"/><path class="cls-3" d="M22.93,11.07a.25.25,0,0,1,.25.25v.81a2.8,2.8,0,0,0-.95-.17h-.17a2.79,2.79,0,0,0-1.11.23v-.87a.25.25,0,0,1,.25-.25Z"/></g></g></svg>