<svg xmlns="http://www.w3.org/2000/svg" xmlns:xlink="http://www.w3.org/1999/xlink" viewBox="0 0 30.55 26.91"><defs><style>.cls-1{fill:url(#linear-gradient);}.cls-2{fill:url(#linear-gradient-2);}.cls-3{fill:url(#linear-gradient-3);}.cls-4{fill:url(#linear-gradient-4);}.cls-5{fill:url(#linear-gradient-5);}.cls-6{fill:#efefef;}</style><linearGradient id="linear-gradient" y1="18.48" x2="30.55" y2="18.48" gradientUnits="userSpaceOnUse"><stop offset="0" stop-color="#5939d1"/><stop offset="1" stop-color="#8a68e8"/></linearGradient><linearGradient id="linear-gradient-2" y1="4.87" x2="30.55" y2="4.87" gradientUnits="userSpaceOnUse"><stop offset="0" stop-color="#8a68e8"/><stop offset="1" stop-color="#5939d1"/></linearGradient><linearGradient id="linear-gradient-3" y1="16.75" x2="30.55" y2="16.75" xlink:href="#linear-gradient-2"/><linearGradient id="linear-gradient-4" x1="5.4" y1="2.33" x2="8.26" y2="2.33" gradientUnits="userSpaceOnUse"><stop offset="0" stop-color="#acaab6"/><stop offset="1" stop-color="#dedce8"/></linearGradient><linearGradient id="linear-gradient-5" x1="22.35" y1="2.33" x2="25.21" y2="2.33" xlink:href="#linear-gradient-4"/></defs><g id="Layer_2" data-name="Layer 2"><g id="Layer_1-2" data-name="Layer 1"><path class="cls-1" d="M30.55,10.06V26.91H0V24.8A144.67,144.67,0,0,0,30.55,10.06Z"/><rect class="cls-2" y="2.17" width="30.55" height="5.41"/><path class="cls-3" d="M30.55,8.69v1.37A144.67,144.67,0,0,1,0,24.8V8.69Z"/><polygon class="cls-4" points="5.4 2.18 5.4 4.66 8.26 4.66 8.26 2.18 8.26 0 5.4 0 5.4 2.18"/><polygon class="cls-5" points="24.6 0 22.83 0 22.35 0 22.35 2.18 22.35 4.66 22.83 4.66 24.6 4.66 25.21 4.66 25.21 2.18 25.21 0 24.6 0"/><path class="cls-6" d="M11.65,14.2h-3V11.52h3ZM17,11.52H14V14.2h3Zm5.34,0h-3V14.2h3Zm5.33,0h-3V14.2h3Zm-21.34,5h-3v2.68h3Zm5.34,0h-3v2.68h3Zm5.33,0H14v2.68h3Zm5.34,0h-3v2.68h3Zm5.33,0h-3v2.68h3Zm-21.34,5h-3v2.68h3Zm5.34,0h-3v2.68h3Zm5.33,0H14v2.68h3Zm5.34,0h-3v2.68h3Z"/></g></g></svg>