<svg xmlns="http://www.w3.org/2000/svg" xmlns:xlink="http://www.w3.org/1999/xlink" viewBox="0 0 33.57 33.57"><defs><style>.cls-1{fill-rule:evenodd;fill:url(#linear-gradient);}.cls-2{fill:url(#linear-gradient-2);}.cls-3{fill:url(#linear-gradient-3);}.cls-4{fill:url(#linear-gradient-4);}.cls-5{fill:url(#linear-gradient-5);}.cls-6{fill:url(#linear-gradient-6);}.cls-7{fill:url(#linear-gradient-7);}.cls-8{fill:url(#linear-gradient-8);}.cls-9{fill:url(#linear-gradient-9);}.cls-10{fill:url(#linear-gradient-10);}</style><linearGradient id="linear-gradient" x1="9.09" y1="16.78" x2="24.48" y2="16.78" gradientUnits="userSpaceOnUse"><stop offset="0" stop-color="#acaab6"/><stop offset="1" stop-color="#dedce8"/></linearGradient><linearGradient id="linear-gradient-2" x1="3.01" y1="16.78" x2="30.55" y2="16.78" gradientUnits="userSpaceOnUse"><stop offset="0" stop-color="#8a68e8"/><stop offset="1" stop-color="#5939d1"/></linearGradient><linearGradient id="linear-gradient-3" x1="14.35" y1="30.51" x2="20.12" y2="30.51" gradientUnits="userSpaceOnUse"><stop offset="0" stop-color="#5939d1"/><stop offset="1" stop-color="#8a68e8"/></linearGradient><linearGradient id="linear-gradient-4" x1="13.45" y1="30.7" x2="18.63" y2="30.7" xlink:href="#linear-gradient-3"/><linearGradient id="linear-gradient-5" x1="13.45" y1="3.17" x2="19.78" y2="3.17" xlink:href="#linear-gradient-3"/><linearGradient id="linear-gradient-6" x1="15.35" y1="4.29" x2="20.12" y2="4.29" xlink:href="#linear-gradient-3"/><linearGradient id="linear-gradient-7" x1="26.89" y1="16.11" x2="33.09" y2="16.11" xlink:href="#linear-gradient-2"/><linearGradient id="linear-gradient-8" x1="27.56" y1="17.61" x2="33.57" y2="17.61" xlink:href="#linear-gradient-2"/><linearGradient id="linear-gradient-9" x1="0" y1="16.21" x2="5.62" y2="16.21" xlink:href="#linear-gradient-2"/><linearGradient id="linear-gradient-10" x1="0.83" y1="17.24" x2="6.68" y2="17.24" xlink:href="#linear-gradient-2"/></defs><g id="Layer_2" data-name="Layer 2"><g id="Layer_1-2" data-name="Layer 1"><path class="cls-1" d="M24.48,15.92v1.73h-2a5.77,5.77,0,0,1-1.06,2.56l1.41,1.4-1.23,1.23-1.4-1.41a5.77,5.77,0,0,1-2.56,1.06v2H15.92v-2a5.77,5.77,0,0,1-2.56-1.06L12,22.84l-1.23-1.23,1.41-1.4a5.66,5.66,0,0,1-1.06-2.56h-2V15.92h2a5.66,5.66,0,0,1,1.06-2.56L10.73,12,12,10.73l1.4,1.41a5.66,5.66,0,0,1,2.56-1.06v-2h1.73v2a5.66,5.66,0,0,1,2.56,1.06l1.4-1.41L22.84,12l-1.41,1.4a5.77,5.77,0,0,1,1.06,2.56Zm-7.7-2.6a3.47,3.47,0,1,0,3.47,3.46A3.46,3.46,0,0,0,16.78,13.32Z"/><path class="cls-2" d="M20.11,3A14.18,14.18,0,0,1,30.55,13.46h-.32a3.49,3.49,0,0,0-1.08.17,12.76,12.76,0,0,0-9.21-9.2,3.22,3.22,0,0,0,.18-1.08c0-.11,0-.22,0-.33ZM13.62,4.42a12.77,12.77,0,0,0-9.2,9.2,3.54,3.54,0,0,0-1.08-.17H3A14.21,14.21,0,0,1,13.46,3c0,.11,0,.22,0,.33a3.49,3.49,0,0,0,.17,1.08ZM4.42,19.94a12.76,12.76,0,0,0,9.2,9.21,3.49,3.49,0,0,0-.17,1.08c0,.11,0,.22,0,.32A14.18,14.18,0,0,1,3,20.11h.33a3.26,3.26,0,0,0,1.08-.18Zm15.52,9.21a12.75,12.75,0,0,0,9.21-9.21,3.22,3.22,0,0,0,1.08.18h.32A14.15,14.15,0,0,1,20.11,30.55c0-.1,0-.21,0-.32A3.22,3.22,0,0,0,19.94,29.15Z"/><path class="cls-3" d="M14.35,32.5l.07.09a3.36,3.36,0,0,0,2.36,1,3.34,3.34,0,0,0,2.36-5.7,2.92,2.92,0,0,0-.51-.42C16.26,28,14.88,30.06,14.35,32.5Z"/><path class="cls-4" d="M14.42,28.87a3.33,3.33,0,0,0-.07,4.63c.53-2.44,1.91-4.47,4.28-5.05a3.33,3.33,0,0,0-4.21.42Z"/><path class="cls-5" d="M19.78,1.9A3.1,3.1,0,0,0,19.14,1a3.28,3.28,0,0,0-2.36-1,3.34,3.34,0,0,0-2.36,5.7,3.28,3.28,0,0,0,.93.64A6.19,6.19,0,0,1,19.78,1.9Z"/><path class="cls-6" d="M15.35,6.34A3.31,3.31,0,0,0,19.78,1.9,6.19,6.19,0,0,0,15.35,6.34Z"/><path class="cls-7" d="M33.09,15.09a3.25,3.25,0,0,0-.5-.67,3.33,3.33,0,0,0-5,4.35A13.33,13.33,0,0,1,33.09,15.09Z"/><path class="cls-8" d="M27.56,18.77a3.79,3.79,0,0,0,.31.37,3.34,3.34,0,0,0,5.7-2.36,3.26,3.26,0,0,0-.48-1.69A13.33,13.33,0,0,0,27.56,18.77Z"/><path class="cls-9" d="M5.62,14.36A3.33,3.33,0,0,0,.83,19,14.9,14.9,0,0,1,5.62,14.36Z"/><path class="cls-10" d="M5.62,14.36A14.9,14.9,0,0,0,.83,19a1.22,1.22,0,0,0,.15.17,3.34,3.34,0,0,0,5.7-2.36,3.36,3.36,0,0,0-1-2.36Z"/></g></g></svg>