<?xml version="1.0" encoding="utf-8"?>
<!-- Generator: Adobe Illustrator 25.4.1, SVG Export Plug-In . SVG Version: 6.00 Build 0)  -->
<svg version="1.1" id="Layer_1" xmlns="http://www.w3.org/2000/svg" xmlns:xlink="http://www.w3.org/1999/xlink" x="0px" y="0px"
	 viewBox="0 0 951.9 1036.3" style="enable-background:new 0 0 951.9 1036.3;" xml:space="preserve">
<style type="text/css">
	.st0{fill-rule:evenodd;clip-rule:evenodd;fill:#D0CDE8;}
	
		.st1{clip-path:url(#SVGID_00000163064155285624601660000011270464687863165335_);fill-rule:evenodd;clip-rule:evenodd;fill:#A69FD2;}
	.st2{fill-rule:evenodd;clip-rule:evenodd;fill:#6E62B5;}
	
		.st3{clip-path:url(#SVGID_00000098909714810242741790000008496718047867235728_);fill-rule:evenodd;clip-rule:evenodd;fill:#5D50AA;}
	
		.st4{clip-path:url(#SVGID_00000101082950910296020050000009145586637041635991_);fill-rule:evenodd;clip-rule:evenodd;fill:#5D50AA;}
	
		.st5{clip-path:url(#SVGID_00000115509016904865164830000011487366291205169575_);fill-rule:evenodd;clip-rule:evenodd;fill:#5D50AA;}
	
		.st6{clip-path:url(#SVGID_00000044872196364828745320000011952563454883649983_);fill-rule:evenodd;clip-rule:evenodd;fill:#5D50AA;}
	
		.st7{clip-path:url(#SVGID_00000052789980290279914160000002644869137695877560_);fill-rule:evenodd;clip-rule:evenodd;fill:#5D50AA;}
	
		.st8{clip-path:url(#SVGID_00000046339783004284555730000007967820974152673186_);fill-rule:evenodd;clip-rule:evenodd;fill:#5D50AA;}
	.st9{fill-rule:evenodd;clip-rule:evenodd;fill:#EA9264;}
	.st10{fill-rule:evenodd;clip-rule:evenodd;fill:#6F6B96;}
	.st11{fill-rule:evenodd;clip-rule:evenodd;fill:#4B5563;}
	.st12{fill-rule:evenodd;clip-rule:evenodd;fill:#F5F4FA;}
	
		.st13{clip-path:url(#SVGID_00000062159562284617589230000014698702731842735000_);fill-rule:evenodd;clip-rule:evenodd;fill:#FFFFFF;}
	
		.st14{clip-path:url(#SVGID_00000062159562284617589230000014698702731842735000_);fill-rule:evenodd;clip-rule:evenodd;fill:#ECECEE;}
	
		.st15{clip-path:url(#SVGID_00000062159562284617589230000014698702731842735000_);fill:none;stroke:#ECECEE;stroke-width:0.4596;stroke-linecap:round;stroke-linejoin:round;stroke-miterlimit:10;}
	
		.st16{clip-path:url(#SVGID_00000062159562284617589230000014698702731842735000_);fill-rule:evenodd;clip-rule:evenodd;fill:#7CFBFD;}
	
		.st17{clip-path:url(#SVGID_00000062159562284617589230000014698702731842735000_);fill-rule:evenodd;clip-rule:evenodd;fill:#FD69B4;}
	
		.st18{clip-path:url(#SVGID_00000062159562284617589230000014698702731842735000_);fill-rule:evenodd;clip-rule:evenodd;fill:#6E62B5;}
	
		.st19{clip-path:url(#SVGID_00000062159562284617589230000014698702731842735000_);fill-rule:evenodd;clip-rule:evenodd;fill:#705FCF;}
	
		.st20{clip-path:url(#SVGID_00000062159562284617589230000014698702731842735000_);fill-rule:evenodd;clip-rule:evenodd;fill:#BEB6E9;}
	.st21{fill-rule:evenodd;clip-rule:evenodd;fill:#677588;}
	.st22{fill-rule:evenodd;clip-rule:evenodd;fill:#252F48;}
	.st23{fill-rule:evenodd;clip-rule:evenodd;fill:#303D5C;}
	.st24{fill-rule:evenodd;clip-rule:evenodd;}
	.st25{fill-rule:evenodd;clip-rule:evenodd;fill:#8885A8;}
	
		.st26{clip-path:url(#SVGID_00000126325282100012718030000009458442969889330317_);fill-rule:evenodd;clip-rule:evenodd;fill:#E47136;}
	
		.st27{clip-path:url(#SVGID_00000142136670921925631880000016469109102357687959_);fill:none;stroke:#E54C02;stroke-width:0.5519;stroke-linecap:round;stroke-linejoin:round;stroke-miterlimit:10;}
	.st28{fill-rule:evenodd;clip-rule:evenodd;fill:#3B2413;}
	.st29{fill-rule:evenodd;clip-rule:evenodd;fill:#7B789F;}
</style>
<g>
	<path class="st0" d="M476.8,50.7c-246.3,0-446.3,200-446.3,446.3s200,446.3,446.3,446.3s446.3-200,446.3-446.3
		S723.1,50.7,476.8,50.7L476.8,50.7z"/>
	<g>
		<defs>
			<path id="SVGID_1_" d="M476.8,50.7c-246.3,0-446.3,200-446.3,446.3s200,446.3,446.3,446.3s446.3-200,446.3-446.3
				S723.1,50.7,476.8,50.7L476.8,50.7z"/>
		</defs>
		<clipPath id="SVGID_00000106137828330119744810000013063955362882537896_">
			<use xlink:href="#SVGID_1_"  style="overflow:visible;"/>
		</clipPath>
		
			<path style="clip-path:url(#SVGID_00000106137828330119744810000013063955362882537896_);fill-rule:evenodd;clip-rule:evenodd;fill:#A69FD2;" d="
			M628.5,102.8c-11.8,1.3-25.1,0-28.4-0.3c-11.7-0.9-22.8,4-30,4.3c-10.4,0.5-28.9,3.6-33.2,5.1c-17.6,6.3-14.1,27-6.6,27.4
			c7,0.4,24.4,4.8,24.6,13.7c0.4,19.9-40.3,19.6-47.7,4.1c-4.1-8.6,10.1-18.3,5.6-24.6c-12.6-17.5-96.2,11.6-117.7,16.3
			c-6.6,1.4-33.9,3.2-33.8,14.1c0.1,9.9,43.9-0.5,50.4,3.8c2.9,2-26.5,7.9-17.3,19.5c14.6,18.4,51.2,1.1,65.9,18.2
			c6.9,8,13.3,30.7,21.6,41.9c9,12.2,28.9,25.9,27.9,42.7c-1,16.6-24.6,20.9-24.3,36.4c0.3,14.6,21,15.6,26.8,26.5
			c0.5,0.9,1.1,1.5,2.1,1.6c0.2,0,0.4,0,0.6,0c23.3-2,10.1-41.1,40.4-37.9c15.9,1.7,18.8,13.9,30.7,21.1c10.4,6.3,23.7,4.6,34.9,9.1
			c19.7,8,22.8,44.1,16.6,61.4c-14.9,41.5-56.8-14-72.8-4.1c-8.2,5.1-3.9,21.4-10.7,28.5c-9.5,9.8-24.9,4.2-36,10.9
			c-22.4,13.5-17.6,40.5-50,44.9c-33.1,4.5-45.1-41-79.2-42.8c-64.8-3.4-123.4,11.2-179.1,44.8c-17.8,10.7-33.2,27.4-52.7,35
			c-23.3,9-78.8,6.9-94.8,24.2c-9.2,9.9,10.1,62.7,21,65c9.3,2,14.1-19.7,20.7-16.6c2.7,1.3,14,55.1,16.7,62.1
			c12.6,32.7,20.9,69.9,35.9,101.2c7.2,15,21.4,25.7,27.6,41.1c5.7,14,1.5,31,10.2,43.8c15.7,23,63.7,38.3,81.6,62.4
			c5.6,7.5-1.5,17.6,0.5,25.9c1.8,7.8,13.1,9.4,15.8,17.7c1.8,5.5-2.2,21.7,4.2,24.3c14.7,6,27.8-26.8,29.1-36.3
			c6.6-50.2-0.5-104,3-154.9c6.3-91.5,93.3-93.3,125.8-173.6c14-34.5-28.1-65.8-12.5-89.2c6.7-10,32.8-4.5,44.1-10
			c19.2-9.4,36.2-25.8,54.8-34.3c10.7-4.9,23.6-3.1,34.5-7.7c6.9-2.9,11.4-10.1,18.6-12.1c13-3.6,26.5,4.6,40.4,0.5
			c24.5-7.2,55.9-35.2,71.5-55.4c5.3-6.8,10.6-25.7,18.7-29.1c2.7-1.2,2.4,10.8,2.3,11.8c-1.3,13-18.2,32.3,3.5,36.3
			c6.2,1.1,12.2,0.3,17.7-2.7c11.1-5.9,16.5-19.1,27-26.2c24.9-16.8,54.9-17.6,76.8-40.8c71.8-76.2,48.6-228-48.4-272.7
			c-24.5-11.3-111.2,3.5-158,13.2C635.6,94.7,634.7,102.1,628.5,102.8L628.5,102.8z"/>
		
			<path style="clip-path:url(#SVGID_00000106137828330119744810000013063955362882537896_);fill-rule:evenodd;clip-rule:evenodd;fill:#A69FD2;" d="
			M511.5,368.9c1.3-1.8-3.7,2.4-5.7,3.1c-4,1.4-8.3,2-12.5,2c-27.9,0.2-26.9,7.1-49.7,11.5c-2.6,0.5-16.9,3.1-17-1.7
			c-0.2-6.4,15.7-9.2,19.9-10.4c7.7-2.3,12.7-9.3,19.8-12.7c10.7-5.1,23.2-5.5,34.8-6c5.5-0.3,24.2,6.6,15.4,14.7"/>
		
			<path style="clip-path:url(#SVGID_00000106137828330119744810000013063955362882537896_);fill-rule:evenodd;clip-rule:evenodd;fill:#A69FD2;" d="
			M372.2,395.4c-9,8.6,50.5,12.6,55.8,6c5.3-6.6-11.4-7.4-11.2-14.1c0.1-2.5-0.7-4.8-3.7-4.8c-7.2,0-13,7.4-19.3,9.9
			C387.3,394.9,377.7,390.1,372.2,395.4L372.2,395.4z"/>
		
			<path style="clip-path:url(#SVGID_00000106137828330119744810000013063955362882537896_);fill-rule:evenodd;clip-rule:evenodd;fill:#A69FD2;" d="
			M443.7,407c1.8-2.4,8.9-6.3,10.4-7.2c1.9-1.1,11.7-6.8,12.7-2.1C469,407.9,440,412,443.7,407"/>
	</g>
	<path class="st2" d="M75.8,570.9c0,0,45.3-93.3,45.3-133.3c0-25-20.3-45.3-45.3-45.3s-45.3,20.3-45.3,45.3
		C30.5,477.5,75.8,570.9,75.8,570.9L75.8,570.9z M75.8,409c14.2,0,25.7,11.5,25.7,25.7c0,14.2-11.5,25.7-25.7,25.7
		c-14.2,0-25.7-11.5-25.7-25.7C50.1,420.5,61.6,409,75.8,409L75.8,409z"/>
	<g>
		<defs>
			<path id="SVGID_00000166662942007183681200000014697694354315984033_" d="M75.8,570.9c0,0,45.3-93.3,45.3-133.3
				c0-25-20.3-45.3-45.3-45.3s-45.3,20.3-45.3,45.3C30.5,477.5,75.8,570.9,75.8,570.9L75.8,570.9z M75.8,409
				c14.2,0,25.7,11.5,25.7,25.7c0,14.2-11.5,25.7-25.7,25.7c-14.2,0-25.7-11.5-25.7-25.7C50.1,420.5,61.6,409,75.8,409L75.8,409z"/>
		</defs>
		<clipPath id="SVGID_00000143602610889584562040000006476403581662177973_">
			<use xlink:href="#SVGID_00000166662942007183681200000014697694354315984033_"  style="overflow:visible;"/>
		</clipPath>
		
			<path style="clip-path:url(#SVGID_00000143602610889584562040000006476403581662177973_);fill-rule:evenodd;clip-rule:evenodd;fill:#5D50AA;" d="
			M84.6,386c0.6,3.2,15.6,18.9,18.2,23.9c18,35-4.9,71.9-19,104c-7.4,16.8-15.5,33.3-24.5,49.4c-1.4,2.5-17.6,26.1-11.6,26.2
			c15.2,0.4,31.5-11.4,39.9-22.9c35-47.2,76.1-223.8-35.3-198.1"/>
	</g>
	<path class="st2" d="M802.9,358.1c0,0,25.1-51.6,25.1-73.8c0-13.8-11.2-25.1-25.1-25.1c-13.8,0-25.1,11.2-25.1,25.1
		C777.9,306.4,802.9,358.1,802.9,358.1L802.9,358.1z M802.9,268.5c7.8,0,14.2,6.4,14.2,14.2c0,7.8-6.4,14.2-14.2,14.2
		c-7.8,0-14.2-6.4-14.2-14.2C788.7,274.9,795.1,268.5,802.9,268.5L802.9,268.5z"/>
	<g>
		<defs>
			<path id="SVGID_00000121995953728891284390000013307355432034918074_" d="M802.9,358.1c0,0,25.1-51.6,25.1-73.8
				c0-13.8-11.2-25.1-25.1-25.1c-13.8,0-25.1,11.2-25.1,25.1C777.9,306.4,802.9,358.1,802.9,358.1L802.9,358.1z M802.9,268.5
				c7.8,0,14.2,6.4,14.2,14.2c0,7.8-6.4,14.2-14.2,14.2c-7.8,0-14.2-6.4-14.2-14.2C788.7,274.9,795.1,268.5,802.9,268.5L802.9,268.5
				z"/>
		</defs>
		<clipPath id="SVGID_00000037653023789615836970000010378913906321879455_">
			<use xlink:href="#SVGID_00000121995953728891284390000013307355432034918074_"  style="overflow:visible;"/>
		</clipPath>
		
			<path style="clip-path:url(#SVGID_00000037653023789615836970000010378913906321879455_);fill-rule:evenodd;clip-rule:evenodd;fill:#5D50AA;" d="
			M807.8,255.8c0.3,1.8,8.6,10.4,10.1,13.2c9.9,19.4-2.7,39.8-10.5,57.5c-4.1,9.3-8.6,18.4-13.6,27.3c-0.8,1.4-9.7,14.4-6.4,14.5
			c8.4,0.2,17.4-6.3,22.1-12.7c19.3-26.1,42.1-123.8-19.5-109.6"/>
	</g>
	<path class="st2" d="M438.2,165.4c0,0,38.6-79.5,38.6-113.6c0-21.3-17.3-38.6-38.6-38.6c-21.3,0-38.6,17.3-38.6,38.6
		C399.7,85.8,438.2,165.4,438.2,165.4L438.2,165.4z M438.2,27.5c12.1,0,21.9,9.8,21.9,21.9c0,12.1-9.8,21.9-21.9,21.9
		c-12.1,0-21.9-9.8-21.9-21.9C416.4,37.3,426.2,27.5,438.2,27.5L438.2,27.5z"/>
	<g>
		<defs>
			<path id="SVGID_00000119823710338113895640000002883910133181616796_" d="M438.2,165.4c0,0,38.6-79.5,38.6-113.6
				c0-21.3-17.3-38.6-38.6-38.6c-21.3,0-38.6,17.3-38.6,38.6C399.7,85.8,438.2,165.4,438.2,165.4L438.2,165.4z M438.2,27.5
				c12.1,0,21.9,9.8,21.9,21.9c0,12.1-9.8,21.9-21.9,21.9c-12.1,0-21.9-9.8-21.9-21.9C416.4,37.3,426.2,27.5,438.2,27.5L438.2,27.5z
				"/>
		</defs>
		<clipPath id="SVGID_00000145018876701595659710000013735699316693190057_">
			<use xlink:href="#SVGID_00000119823710338113895640000002883910133181616796_"  style="overflow:visible;"/>
		</clipPath>
		
			<path style="clip-path:url(#SVGID_00000145018876701595659710000013735699316693190057_);fill-rule:evenodd;clip-rule:evenodd;fill:#5D50AA;" d="
			M445.8,7.9c0.5,2.7,13.3,16.1,15.5,20.4c15.3,29.8-4.2,61.3-16.2,88.6c-6.3,14.3-13.2,28.4-20.9,42c-1.2,2.2-15,22.2-9.9,22.3
			c12.9,0.4,26.8-9.7,34-19.5C478.1,121.5,513.2-28.8,418.3-7"/>
	</g>
	<path class="st2" d="M413.2,666.7c0,0,25.1-51.6,25.1-73.8c0-13.8-11.2-25.1-25.1-25.1c-13.8,0-25.1,11.2-25.1,25.1
		C388.1,615,413.2,666.7,413.2,666.7L413.2,666.7z M413.2,577.1c7.8,0,14.2,6.4,14.2,14.2c0,7.8-6.4,14.2-14.2,14.2
		c-7.8,0-14.2-6.4-14.2-14.2C399,583.5,405.4,577.1,413.2,577.1L413.2,577.1z"/>
	<g>
		<defs>
			<path id="SVGID_00000107570322861335520650000007984747148066618008_" d="M413.2,666.7c0,0,25.1-51.6,25.1-73.8
				c0-13.8-11.2-25.1-25.1-25.1c-13.8,0-25.1,11.2-25.1,25.1C388.1,615,413.2,666.7,413.2,666.7L413.2,666.7z M413.2,577.1
				c7.8,0,14.2,6.4,14.2,14.2c0,7.8-6.4,14.2-14.2,14.2c-7.8,0-14.2-6.4-14.2-14.2C399,583.5,405.4,577.1,413.2,577.1L413.2,577.1z"
				/>
		</defs>
		<clipPath id="SVGID_00000013160490206958676410000005117090765188822455_">
			<use xlink:href="#SVGID_00000107570322861335520650000007984747148066618008_"  style="overflow:visible;"/>
		</clipPath>
		
			<path style="clip-path:url(#SVGID_00000013160490206958676410000005117090765188822455_);fill-rule:evenodd;clip-rule:evenodd;fill:#5D50AA;" d="
			M418.1,564.4c0.3,1.8,8.6,10.4,10.1,13.2c9.9,19.4-2.7,39.8-10.5,57.5c-4.1,9.3-8.6,18.4-13.6,27.3c-0.8,1.4-9.7,14.4-6.4,14.5
			c8.4,0.2,17.4-6.3,22.1-12.7c19.3-26.1,42.1-123.8-19.5-109.6"/>
	</g>
	<path class="st2" d="M184.1,765.5c0,0,25.1-51.6,25.1-73.8c0-13.8-11.2-25.1-25.1-25.1S159,677.9,159,691.7
		C159,713.8,184.1,765.5,184.1,765.5L184.1,765.5z M184.1,675.9c7.8,0,14.2,6.4,14.2,14.2c0,7.8-6.4,14.2-14.2,14.2
		c-7.8,0-14.2-6.4-14.2-14.2C169.8,682.3,176.2,675.9,184.1,675.9L184.1,675.9z"/>
	<g>
		<defs>
			<path id="SVGID_00000034083390246025268410000000908333980499632284_" d="M184.1,765.5c0,0,25.1-51.6,25.1-73.8
				c0-13.8-11.2-25.1-25.1-25.1S159,677.9,159,691.7C159,713.8,184.1,765.5,184.1,765.5L184.1,765.5z M184.1,675.9
				c7.8,0,14.2,6.4,14.2,14.2c0,7.8-6.4,14.2-14.2,14.2c-7.8,0-14.2-6.4-14.2-14.2C169.8,682.3,176.2,675.9,184.1,675.9L184.1,675.9
				z"/>
		</defs>
		<clipPath id="SVGID_00000098902706820630188040000008017636640380671408_">
			<use xlink:href="#SVGID_00000034083390246025268410000000908333980499632284_"  style="overflow:visible;"/>
		</clipPath>
		
			<path style="clip-path:url(#SVGID_00000098902706820630188040000008017636640380671408_);fill-rule:evenodd;clip-rule:evenodd;fill:#5D50AA;" d="
			M188.9,663.2c0.3,1.8,8.6,10.4,10.1,13.2c9.9,19.4-2.7,39.8-10.5,57.5c-4.1,9.3-8.6,18.4-13.6,27.3c-0.8,1.4-9.7,14.4-6.4,14.5
			c8.4,0.2,17.4-6.3,22.1-12.7c19.3-26.1,42.1-123.8-19.5-109.6"/>
	</g>
	<path class="st2" d="M608.3,308.6c0,0,25.1-51.6,25.1-73.8c0-13.8-11.2-25.1-25.1-25.1c-13.8,0-25.1,11.2-25.1,25.1
		C583.2,257,608.3,308.6,608.3,308.6L608.3,308.6z M608.3,219.1c7.8,0,14.2,6.4,14.2,14.2s-6.4,14.2-14.2,14.2
		c-7.8,0-14.2-6.4-14.2-14.2S600.4,219.1,608.3,219.1L608.3,219.1z"/>
	<g>
		<defs>
			<path id="SVGID_00000055677542114169316010000014052549241851831202_" d="M608.3,308.6c0,0,25.1-51.6,25.1-73.8
				c0-13.8-11.2-25.1-25.1-25.1c-13.8,0-25.1,11.2-25.1,25.1C583.2,257,608.3,308.6,608.3,308.6L608.3,308.6z M608.3,219.1
				c7.8,0,14.2,6.4,14.2,14.2s-6.4,14.2-14.2,14.2c-7.8,0-14.2-6.4-14.2-14.2S600.4,219.1,608.3,219.1L608.3,219.1z"/>
		</defs>
		<clipPath id="SVGID_00000021089812487400607070000015632065510391285179_">
			<use xlink:href="#SVGID_00000055677542114169316010000014052549241851831202_"  style="overflow:visible;"/>
		</clipPath>
		
			<path style="clip-path:url(#SVGID_00000021089812487400607070000015632065510391285179_);fill-rule:evenodd;clip-rule:evenodd;fill:#5D50AA;" d="
			M613.2,206.4c0.3,1.8,8.6,10.4,10.1,13.2c9.9,19.4-2.7,39.8-10.5,57.5c-4.1,9.3-8.6,18.4-13.6,27.3c-0.8,1.4-9.7,14.4-6.4,14.5
			c8.4,0.2,17.4-6.3,22.1-12.7c19.3-26.1,42.1-123.8-19.5-109.6"/>
	</g>
	<path class="st9" d="M821.5,497.6c0,0-93.2-26.9-110.5-43.8l-4.7,9.7c0,0,82.2,61,106.3,63C812.6,526.5,833.1,521.1,821.5,497.6
		L821.5,497.6z"/>
	<path class="st10" d="M792.7,544.9c15.1-1.6,70.7-83.2,60.5-110.2c-9.1-24.3-35.7-21.6-51.2,17.4c-16,40.4-14,32.6-22.8,50.1
		C778.2,511,783,541.5,792.7,544.9L792.7,544.9z"/>
	<path class="st9" d="M712.9,455.7c0,0-11.2-16.7-19.3-18.3c0,0-6.2-1-5.1,2.4c0,0-4.1,1.5-3,4c0,0-3.2,2.7-1.5,5.5
		c1.7,2.8-3.2,3.2,0.1,6c0,0,22.8,10.5,27.5,9L712.9,455.7L712.9,455.7z"/>
	<path class="st11" d="M617.8,467c-0.5,0.4-0.9,1-1,1.6c-0.1,0.6,0,1.3,0.4,1.8c6.4,9,32.4,45.2,38.8,54.2c0.4,0.5,1,0.9,1.6,1
		c0.6,0.1,1.3,0,1.9-0.4c11.6-8.3,69.9-50.1,81.5-58.4c0.5-0.4,0.9-1,1-1.6c0.1-0.6,0-1.3-0.4-1.8c-6.4-9-32.4-45.2-38.8-54.2
		c-0.4-0.5-1-0.9-1.6-1c-0.6-0.1-1.3,0-1.8,0.4C687.7,416.9,629.4,458.7,617.8,467L617.8,467z"/>
	<path class="st12" d="M622,467.9c-0.5,0.4-0.9,1-1,1.6c-0.1,0.6,0,1.3,0.4,1.8c6,8.4,29.1,40.6,35.1,49c0.4,0.5,1,0.9,1.6,1
		c0.6,0.1,1.3,0,1.9-0.4c10.8-7.7,61.8-44.2,72.6-52c0.5-0.4,0.9-1,1-1.6c0.1-0.6,0-1.3-0.4-1.8c-6-8.4-29.1-40.6-35.1-49
		c-0.4-0.5-1-0.9-1.6-1c-0.6-0.1-1.3,0-1.8,0.4C683.7,423.7,632.8,460.2,622,467.9L622,467.9z"/>
	<g>
		<defs>
			<path id="SVGID_00000142862822186553553100000015795257763996957595_" d="M622,467.9c-0.5,0.4-0.9,1-1,1.6
				c-0.1,0.6,0,1.3,0.4,1.8c6,8.4,29.1,40.6,35.1,49c0.4,0.5,1,0.9,1.6,1c0.6,0.1,1.3,0,1.9-0.4c10.8-7.7,61.8-44.2,72.6-52
				c0.5-0.4,0.9-1,1-1.6c0.1-0.6,0-1.3-0.4-1.8c-6-8.4-29.1-40.6-35.1-49c-0.4-0.5-1-0.9-1.6-1c-0.6-0.1-1.3,0-1.8,0.4
				C683.7,423.7,632.8,460.2,622,467.9L622,467.9z"/>
		</defs>
		<clipPath id="SVGID_00000154419342417387441010000006365430766343626387_">
			<use xlink:href="#SVGID_00000142862822186553553100000015795257763996957595_"  style="overflow:visible;"/>
		</clipPath>
		
			<path style="clip-path:url(#SVGID_00000154419342417387441010000006365430766343626387_);fill-rule:evenodd;clip-rule:evenodd;fill:#FFFFFF;" d="
			M682.5,433.5c-0.8-1.1-2.4-1.4-3.5-0.6c-6.4,4.6-26.2,19-32.6,23.7c-1.1,0.8-1.4,2.4-0.6,3.5c6.3,8.7,31.3,43.2,37.6,51.9
			c0.8,1.1,2.4,1.4,3.5,0.6c6.4-4.6,26.2-19,32.6-23.7c1.1-0.8,1.4-2.4,0.6-3.5C713.8,476.7,688.8,442.2,682.5,433.5L682.5,433.5z"
			/>
		
			<polygon style="clip-path:url(#SVGID_00000154419342417387441010000006365430766343626387_);fill-rule:evenodd;clip-rule:evenodd;fill:#ECECEE;" points="
			687.8,452.8 678.9,459.5 681,462.4 689.9,455.7 687.8,452.8 		"/>
		
			<polygon style="clip-path:url(#SVGID_00000154419342417387441010000006365430766343626387_);fill-rule:evenodd;clip-rule:evenodd;fill:#ECECEE;" points="
			672.8,464 663.9,470.7 666,473.6 674.9,466.9 672.8,464 		"/>
		
			<polygon style="clip-path:url(#SVGID_00000154419342417387441010000006365430766343626387_);fill:none;stroke:#ECECEE;stroke-width:0.4596;stroke-linecap:round;stroke-linejoin:round;stroke-miterlimit:10;" points="
			680.3,469.7 667.2,479.5 672.8,487 685.9,477.2 680.3,469.7 		"/>
		
			<path style="clip-path:url(#SVGID_00000154419342417387441010000006365430766343626387_);fill-rule:evenodd;clip-rule:evenodd;fill:#7CFBFD;" d="
			M670.4,479.4c-0.1-0.1-0.1-0.2,0-0.4c0.1-0.1,0.2-0.3,0.3-0.4c1.6-1.2,6.1-4.6,7.7-5.8c0.2-0.1,0.3-0.2,0.5-0.2
			c0.2,0,0.3,0,0.4,0.1c0.7,1,2.8,3.7,3.5,4.7c0.1,0.1,0.1,0.2,0,0.4c-0.1,0.1-0.2,0.3-0.3,0.4c-1.6,1.2-6.1,4.6-7.7,5.8
			c-0.2,0.1-0.3,0.2-0.5,0.2c-0.2,0-0.3,0-0.4-0.1C673.1,483.1,671.1,480.4,670.4,479.4L670.4,479.4z"/>
		
			<path style="clip-path:url(#SVGID_00000154419342417387441010000006365430766343626387_);fill-rule:evenodd;clip-rule:evenodd;fill:#7CFBFD;" d="
			M695,481.2c-0.1-0.1-0.1-0.2,0-0.4c0.1-0.2,0.2-0.3,0.3-0.4c1.6-1.2,6.1-4.6,7.7-5.8c0.2-0.1,0.3-0.2,0.5-0.2c0.2,0,0.3,0,0.4,0.1
			c0.7,1,2.8,3.7,3.5,4.7c0.1,0.1,0.1,0.2,0,0.4c-0.1,0.1-0.2,0.3-0.3,0.4c-1.6,1.2-6.1,4.6-7.7,5.8c-0.2,0.1-0.3,0.2-0.5,0.2
			c-0.2,0-0.3,0-0.4-0.1C697.8,484.9,695.7,482.2,695,481.2L695,481.2z"/>
		
			<path style="clip-path:url(#SVGID_00000154419342417387441010000006365430766343626387_);fill-rule:evenodd;clip-rule:evenodd;fill:#FD69B4;" d="
			M685.8,466.4c-0.1-0.1-0.1-0.3-0.1-0.4c0-0.2,0.1-0.3,0.2-0.4c1.2-0.9,4.5-3.4,5.7-4.2c0.1-0.1,0.3-0.1,0.4-0.1
			c0.2,0,0.3,0.1,0.4,0.3c1,1.4,3.9,5.1,4.9,6.5c0.1,0.1,0.1,0.3,0.1,0.4c0,0.2-0.1,0.3-0.2,0.4c-1.2,0.9-4.5,3.4-5.7,4.2
			c-0.1,0.1-0.3,0.1-0.4,0.1c-0.2,0-0.3-0.1-0.4-0.3C689.7,471.5,686.9,467.7,685.8,466.4L685.8,466.4z"/>
		
			<polygon style="clip-path:url(#SVGID_00000154419342417387441010000006365430766343626387_);fill-rule:evenodd;clip-rule:evenodd;fill:#FFFFFF;" points="
			692.1,463.9 688.3,466.8 688.5,467.1 692.4,464.3 692.1,463.9 		"/>
		
			<polygon style="clip-path:url(#SVGID_00000154419342417387441010000006365430766343626387_);fill-rule:evenodd;clip-rule:evenodd;fill:#FFFFFF;" points="
			692.9,465 689.1,467.9 689.4,468.2 693.2,465.3 692.9,465 		"/>
		
			<polygon style="clip-path:url(#SVGID_00000154419342417387441010000006365430766343626387_);fill-rule:evenodd;clip-rule:evenodd;fill:#FFFFFF;" points="
			693.8,466.1 689.9,469 690.2,469.3 694,466.4 693.8,466.1 		"/>
		
			<polygon style="clip-path:url(#SVGID_00000154419342417387441010000006365430766343626387_);fill-rule:evenodd;clip-rule:evenodd;fill:#FFFFFF;" points="
			694.6,467.2 690.8,470.1 691,470.4 694.8,467.5 694.6,467.2 		"/>
		
			<polygon style="clip-path:url(#SVGID_00000154419342417387441010000006365430766343626387_);fill-rule:evenodd;clip-rule:evenodd;fill:#6E62B5;" points="
			676.6,480.2 674.1,479.9 674,480.7 676.5,481 676.5,481 677.2,481.1 678.1,474.7 677.4,474.6 676.6,480.2 		"/>
		
			<polygon style="clip-path:url(#SVGID_00000154419342417387441010000006365430766343626387_);fill-rule:evenodd;clip-rule:evenodd;fill:#6E62B5;" points="
			701.2,482.1 698.8,481.8 698.7,482.5 701.1,482.9 701.1,482.9 701.8,483 702.7,476.5 702,476.4 701.2,482.1 		"/>
		
			<path style="clip-path:url(#SVGID_00000154419342417387441010000006365430766343626387_);fill:none;stroke:#ECECEE;stroke-width:0.4596;stroke-linecap:round;stroke-linejoin:round;stroke-miterlimit:10;" d="
			M695.3,458.5l-13.1,9.8l5.6,7.5l13.1-9.8L695.3,458.5L695.3,458.5z M690,482.6l-13.1,9.8l5.6,7.5l13.1-9.8L690,482.6L690,482.6z
			 M705,471.4l-13.1,9.8l5.6,7.5l13.1-9.8L705,471.4L705,471.4z"/>
		
			<path style="clip-path:url(#SVGID_00000154419342417387441010000006365430766343626387_);fill-rule:evenodd;clip-rule:evenodd;fill:#705FCF;" d="
			M655.6,456.7c-1.8,1.3-2.2,3.8-0.9,5.5c1.3,1.8,3.8,2.2,5.5,0.9c1.8-1.3,2.2-3.8,0.9-5.5C659.8,455.8,657.4,455.4,655.6,456.7
			L655.6,456.7z M661.5,460.7c0.2-1,0-2-0.6-2.9c-1.2-1.6-3.5-2-5.1-0.8c-1.6,1.2-2,3.4-0.8,5.1c0.6,0.9,1.6,1.4,2.6,1.5
			c0.3-0.3,0.9-0.5,1-1.3c0-0.2-0.3-0.6-0.4-0.7c-0.2,0-0.5-0.1-0.8-0.6c-0.1,0.1-0.3,0.1-0.3,0.1c-0.3-0.2-0.6-0.4-0.6-0.9
			c-1-0.9-0.8-1.9-0.1-2.5c0.8-0.6,1.9-0.4,2.4,0.8c0.4,0.1,0.5,0.5,0.6,0.9c0,0.1,0,0.2-0.2,0.3c0.3,0.5,0.4,0.8,0.3,1
			c0,0.1,0.3,0.5,0.5,0.6C660.7,461.4,661.1,460.9,661.5,460.7L661.5,460.7z"/>
		
			<polygon style="clip-path:url(#SVGID_00000154419342417387441010000006365430766343626387_);fill-rule:evenodd;clip-rule:evenodd;fill:#BEB6E9;" points="
			681.5,441.1 679.9,438.9 661.3,452.4 662.9,454.7 681.5,441.1 		"/>
		
			<polygon style="clip-path:url(#SVGID_00000154419342417387441010000006365430766343626387_);fill-rule:evenodd;clip-rule:evenodd;fill:#BEB6E9;" points="
			679.1,449.6 677.4,447.3 664.4,456.8 666.1,459 679.1,449.6 		"/>
	</g>
	<path class="st21" d="M715.8,437.7c0.2,1.4,1.5,2.5,2.9,2.3c1.4-0.2,2.5-1.5,2.3-2.9c-0.2-1.4-1.5-2.5-2.9-2.3
		C716.6,434.9,715.6,436.2,715.8,437.7L715.8,437.7z"/>
	<path class="st11" d="M642.7,502l-10.4-14.4h0c0.7-0.5,1.6-0.7,2.5-0.6c0.9,0.1,1.7,0.6,2.2,1.4c1.9,2.6,4.6,6.3,6.4,8.9
		c0.5,0.7,0.7,1.6,0.6,2.5C643.9,500.7,643.5,501.5,642.7,502L642.7,502L642.7,502z"/>
	<path class="st22" d="M869,617.5c0,0,15.3,47.4-0.4,85.5c-15.8,38.1-60.1,131.1-60.1,131.1s7.2,39.9-6.9,79.7
		c-14.1,39.8-23.4,83.7-23.4,83.7c-5.3,2.7-10.7,2.8-16.1,0.5l10.1-371.2L869,617.5L869,617.5z"/>
	<path class="st23" d="M868.5,620.7l-96.1,6.3c0,0,29.3,154.9,54.6,215.6c0,0,23.7,15.4,35.1-13.2
		C865.6,820.9,890.1,657.6,868.5,620.7L868.5,620.7z"/>
	<path class="st23" d="M825.8,835.5l13.9,162c6.2,7.9,11.1,8.6,17.2-1.9c0,0,11.3-70.6,11.4-120.1c0.1-22.9-2.3-41.3-9.2-46.2
		L825.8,835.5L825.8,835.5z"/>
	<path class="st24" d="M778.4,994.6c0,0,3.5,19.7,0.2,31.1l-58.1,0.1c0,0,7.1-7.4,24.6-11.8c17.6-4.3,17-17.8,17-17.8
		C766.7,999.8,774.2,998.8,778.4,994.6L778.4,994.6z"/>
	<path class="st24" d="M856.9,994.8c0,0,3.3,19.3-0.5,30.8l-60.7-0.2c0,0,7.6-7.5,26-11.5c18.4-4,18.1-17.7,18.1-17.7
		C844.5,999.9,852.4,999,856.9,994.8L856.9,994.8z"/>
	<path class="st25" d="M875.8,425.1c0,0-27.5-32.9-56.2-18.3c-28.7,14.7-39.8,42-41,76.1c-3.3,89.1-16.8,114.9-7,161.6
		c0,0,105.9,20.4,104.3-1.9c0,0-8.9-72.5-3.4-107C885.5,493.1,890.6,450.3,875.8,425.1L875.8,425.1z"/>
	<path class="st9" d="M829.4,389.6l-0.4,22.9c0,0,14.1,6.5,16.5-0.7l1.1-38.5L829.4,389.6L829.4,389.6z"/>
	<g>
		<defs>
			<path id="SVGID_00000087384845685678898000000010263883339976514187_" d="M829.4,389.6l-0.4,22.9c0,0,14.1,6.5,16.5-0.7l1.1-38.5
				L829.4,389.6L829.4,389.6z"/>
		</defs>
		<clipPath id="SVGID_00000107588650481956633560000002118683055825651116_">
			<use xlink:href="#SVGID_00000087384845685678898000000010263883339976514187_"  style="overflow:visible;"/>
		</clipPath>
		
			<path style="clip-path:url(#SVGID_00000107588650481956633560000002118683055825651116_);fill-rule:evenodd;clip-rule:evenodd;fill:#E47136;" d="
			M846.7,382.2c-0.1-0.3-0.1,0.7-0.2,1c-0.3,0.7-0.6,1.4-0.9,2c-1,1.9-2.2,3.8-3.4,5.6c-3.7,5.2-8.8,10.4-14.5,13.3
			c-1.4,0.7-5.6,2.8-6.9,1.1c-0.9-1.1,0.2-3.4,0.6-4.4c1.6-4.8,3.6-9.4,5.7-14c2.8-6.3,5.7-12.5,8.8-18.5c1-2,2.6-5.6,5.2-5.7
			c3.5-0.2,8.2,3.8,11.4,5.2"/>
	</g>
	<path class="st9" d="M821.2,327.9c0,0-28.3,56.6-7.8,66.2c20.5,9.5,37.5-15.6,37.5-15.6c9.3-20.2,8.9-33.7,7.7-46.8L821.2,327.9
		L821.2,327.9z"/>
	<g>
		<defs>
			<path id="SVGID_00000054988526922487867740000001429323664175034799_" d="M821.2,327.9c0,0-28.3,56.6-7.8,66.2
				c20.5,9.5,37.5-15.6,37.5-15.6c9.3-20.2,8.9-33.7,7.7-46.8L821.2,327.9L821.2,327.9z"/>
		</defs>
		<clipPath id="SVGID_00000102525293841724622720000016378681335378167709_">
			<use xlink:href="#SVGID_00000054988526922487867740000001429323664175034799_"  style="overflow:visible;"/>
		</clipPath>
		
			<path style="clip-path:url(#SVGID_00000102525293841724622720000016378681335378167709_);fill:none;stroke:#E54C02;stroke-width:0.5519;stroke-linecap:round;stroke-linejoin:round;stroke-miterlimit:10;" d="
			M816.3,362.4l-4.9,9.5l4.9,1.8 M812.4,381.5c-0.6-0.5,4.3,2.6,7.9-1"/>
	</g>
	<path class="st28" d="M847.4,375.8c-0.4,7.8-1.8,7.4-2.3,17.1c0.8,0.7,1.1-1.5,3.3-4c4.4-4.9,14.4-18.7,16.8-35.5
		c0.4-2.9,1-10.2-0.4-15.3c-0.7-2.6-3.8-2.4-4-2.9c0.7-2.9-1.2-6.2-3.7-7.3c-33.2-14.9-40.4,6.1-39,6.7c9.1-0.1,13.3-0.8,26.8,9.9
		c2.4,1.9,6.7-1.3,8.1-2.1c0.2,0-7.3,6.9-7.2,7.2c0.4,0.6-2.4,6.4-2.6,7.2c-1.2,5.2,0.2,11.7,2.3,8.9c0.3-0.4,2.9-4.6,5.5-6.3
		C852.4,358.7,862,358,847.4,375.8L847.4,375.8z"/>
	<path class="st9" d="M799.9,510c0,0-101.1,14.5-123.4,4.9l-2.2,10.3c0,0,99.7,23.4,122.8,16.6C797.1,541.8,802.8,522.1,799.9,510
		L799.9,510z"/>
	<path class="st29" d="M796.7,543.8c16.2,1.6,92.1-71.9,87.4-102.3c-4.3-27.4-32.7-30.4-57.4,7.1c-25.6,38.9-27.2,46-40.2,62.4
		C783.4,520.1,787.3,538.2,796.7,543.8L796.7,543.8z"/>
	<path class="st9" d="M679.3,517.1c0,0-20.8-16.8-29.9-16.3c0,0-6.9,0.7-4.7,4.1c0,0-4,2.8-2.1,5.4c0,0-2.6,3.9,0,6.5
		c2.6,2.6-2.5,4.5,1.8,6.6c0,0,31.4,4.4,35.9,1.4L679.3,517.1L679.3,517.1z"/>
</g>
</svg>
