<?xml version="1.0" encoding="UTF-8"?>
<svg id="Layer_2" data-name="Layer 2" xmlns="http://www.w3.org/2000/svg" viewBox="0 0 1394.79 239.68">
  <defs>
    <style>
      .cls-1 {
        fill: #5c4ee5;
      }

      .cls-1, .cls-2, .cls-3, .cls-4 {
        stroke-width: 0px;
      }

      .cls-2 {
        fill: #7f61ff;
      }

      .cls-3 {
        fill: #9583ff;
      }

      .cls-4 {
        fill: #13025b;
      }
    </style>
  </defs>
  <g id="Light">
    <g>
      <g>
        <path class="cls-1" d="m132.81,208.23l-58.52,30.7c-2.05,1.08-4.29.94-6.09-.03-1.99-1.07-3.43-3.16-3.43-5.73v-60.64s46.63-2.31,46.63-2.31l21.41,38.01Z"/>
        <path class="cls-2" d="m108.41,98.28l-76.02-15.58v68.8c0,1.21.34,2.37.94,3.36s1.47,1.83,2.54,2.39l28.91,15.16v.11l68.04,35.69,68.04-35.69-92.44-74.25Z"/>
        <path class="cls-3" d="m9.52.75C7.4-.36,5.07-.17,3.25.88S0,4.02,0,6.51v56.71c0,1.21.34,2.37.94,3.36s1.47,1.83,2.54,2.39l61.29,32.16h0l136.08,71.39v-67.46c0-1.17-.31-2.29-.88-3.27-.6-1.04-1.5-1.91-2.6-2.49L9.52.75Z"/>
      </g>
      <path class="cls-4" d="m346.18,176.1c10.27-10.58,15.47-23.95,15.47-39.72s-5.2-29.14-15.47-39.72c-10.21-10.69-23.08-16.11-38.27-16.11h-42.57v111.65h42.57c15.19,0,28.06-5.42,38.27-16.1Zm-59.43-75.11h21.17c10,0,17.86,3.24,24.05,9.91,6.14,6.46,9.26,15.03,9.26,25.47s-3.03,18.91-9.25,25.63c-6.15,6.48-14.24,9.76-24.05,9.76h-21.17v-70.78Z"/>
      <path class="cls-4" d="m386.1,76.27c-6.67,0-12.31,5.71-12.31,12.47s5.63,12.3,12.31,12.3,12.47-5.52,12.47-12.3-5.71-12.47-12.47-12.47Z"/>
      <rect class="cls-4" x="376.21" y="112.95" width="19.95" height="79.53"/>
      <path class="cls-4" d="m497.41,128.93c8.69,0,13.87,5.84,13.87,15.63v47.64h19.95v-49.08c0-19.87-11.76-32.7-29.97-32.7-10.47,0-18.41,3.84-23.61,11.4l-.33.49-.31-.51c-4.56-7.55-11.8-11.38-21.51-11.38s-17.25,3.47-22,10.59l-.7,1.05v-9.39h-19.95v79.53h19.95v-44.75c0-11.6,5.79-18.52,15.48-18.52,8.69,0,13.87,5.84,13.87,15.63v47.64h19.95v-44.75c0-11.77,5.58-18.52,15.32-18.52Z"/>
      <path class="cls-4" d="m612.72,122.5c-7.39-8.02-17.08-12.09-28.79-12.09-12.36,0-22.53,4.07-30.24,12.09-7.82,7.98-11.78,18.05-11.78,29.93,0,12.69,4.38,23.36,12.66,30.87,8.09,7.34,19.36,11.21,32.58,11.21h0c10.5,0,20.81-3.41,29.83-9.87l-9.43-14.34c-4.43,3.56-19.2,7.89-30.94,4.47-7.24-2.11-11.88-6.73-13.76-13.73l-.13-.48h60.71c.52-3.38.75-5.83.75-8.13,0-11.94-3.75-21.73-11.46-29.93Zm-50.31,22.76l.11-.47c2.46-10.5,10.26-16.52,21.41-16.52,10.42,0,18,6.18,20.28,16.52l.1.46h-41.9Z"/>
      <path class="cls-4" d="m655.12,171.66c-2.49-2.49-5.82-3.87-9.36-3.87s-6.87,1.37-9.37,3.87c-2.49,2.49-3.86,5.82-3.86,9.37s1.37,6.87,3.86,9.36c5.16,5.16,13.57,5.16,18.73,0,2.49-2.49,3.86-5.82,3.86-9.36s-1.37-6.88-3.86-9.37Z"/>
      <path class="cls-4" d="m892.21,129.03c10.19,0,16.28,6.33,16.28,16.92v46.35h19.95v-48.92c0-10.32-2.8-18.22-8.56-24.15h0c-5.47-5.79-12.67-8.72-21.4-8.72-10.82,0-18.76,3.72-23.61,11.07l-.7,1.06v-42h-19.95v111.65h19.95v-42.98c0-12.89,6.58-20.29,18.05-20.29Z"/>
      <path class="cls-4" d="m1118.79,192.3v-111.65h-19.95v42.33l-.68-.88c-5.96-7.68-14.61-11.58-25.71-11.58s-19.86,4.12-27.51,12.25c-7.49,8.13-11.3,18.15-11.3,29.77s3.8,21.79,11.3,29.94c7.55,8.02,16.8,12.08,27.5,12.08s19.76-3.9,25.71-11.58l.68-.88v10.21h19.95Zm-26.32-23.12c-4.24,4.24-9.67,6.38-16.17,6.38s-11.87-2.08-16.32-6.37c-4.24-4.4-6.38-10-6.38-16.65s2.14-12.26,6.37-16.49c4.4-4.4,9.74-6.53,16.33-6.53s11.99,2.2,16.17,6.54c4.23,4.23,6.37,9.78,6.37,16.49s-2.14,12.26-6.37,16.64Z"/>
      <rect class="cls-4" x="1222.37" y="80.65" width="19.95" height="111.65"/>
      <path class="cls-4" d="m1377.94,138.22c4.94-3.35,10.6-4.68,16.85-3.97v-23.08c-11.32.12-20.15,5.77-23.67,15.16l-.74,1.97v-15.53h-19.95v79.53h19.95v-37.23c0-7.9,2.47-13.41,7.55-16.85Z"/>
      <path class="cls-4" d="m1325.86,122.6c-7.39-8.02-17.08-12.08-28.79-12.08-12.36,0-22.53,4.07-30.24,12.09-7.82,7.98-11.78,18.05-11.78,29.93,0,12.69,4.38,23.36,12.66,30.87,8.09,7.34,19.36,11.21,32.58,11.21h0c10.5,0,20.81-3.41,29.83-9.87l-9.43-14.35c-4.43,3.57-19.2,7.9-30.94,4.47-7.24-2.11-11.87-6.73-13.76-13.73l-.13-.48h60.71c.38-2.44.75-5.27.75-8.13,0-11.94-3.75-21.73-11.46-29.93Zm-50.31,22.76l.11-.47c2.46-10.5,10.26-16.52,21.41-16.52,10.42,0,18,6.18,20.28,16.52l.1.46h-41.91Z"/>
      <path class="cls-4" d="m1170.76,194.49c20.47,0,37.12-16.65,37.12-37.12v-44.54h-19.98v44.9c0,9.83-7.69,17.83-17.14,17.83s-17.14-8-17.14-17.83v-44.9h-19.98v44.54c0,20.47,16.65,37.12,37.12,37.12Z"/>
      <path class="cls-4" d="m1011.25,122.57c-7.39-8.02-17.08-12.08-28.79-12.08-12.36,0-22.53,4.07-30.24,12.09-7.82,7.98-11.78,18.05-11.78,29.93,0,12.69,4.38,23.36,12.66,30.87,8.09,7.34,19.36,11.21,32.58,11.21h0c10.5,0,20.81-3.41,29.83-9.87l-9.43-14.35c-4.43,3.57-19.2,7.9-30.94,4.47-7.24-2.11-11.88-6.73-13.77-13.73l-.13-.48h60.71c.38-2.44.75-5.28.75-8.13,0-11.94-3.75-21.73-11.46-29.93Zm-50.31,22.77l.11-.47c2.46-10.5,10.26-16.52,21.41-16.52,10.42,0,18,6.18,20.29,16.52l.1.46h-41.91Z"/>
      <path class="cls-4" d="m841.83,125.88c-11.21-12.43-23.75-15.29-32.32-15.5-.33,0-.67-.01-1-.01-11.38,0-22.91,4.6-30.29,12.13-8.01,8.18-11.92,17.94-11.93,29.86.02,11.96,3.92,21.73,11.93,29.9,7.6,7.75,19.58,12.35,31.29,12.12,8.57-.2,21.11-3.07,32.32-15.49l-13.62-13.73c-5.65,6.16-12.76,9.55-20.08,9.55-12.67,0-21.88-9.39-21.9-22.33.02-12.94,9.23-22.33,21.9-22.33,7.32,0,14.43,3.39,20.08,9.55l13.62-13.73Z"/>
      <path class="cls-4" d="m713.01,195.19c13.73-.29,24.85-5.38,30.2-9.65,7.51-6,11.34-14.2,11.4-24.37.03-5.79-1.44-11.52-4.03-15.72-1.87-3.5-6.58-7.49-10.42-9.89h-.02c-1.51-1.08-3.85-2.21-6.96-3.38-3.17-1.35-5.46-2.28-7.18-2.76l-7.71-2.62c-7.97-2.5-13.88-4.99-17.08-7.21-2.98-2.34-4.47-5.37-4.45-9.01.02-3.4,1.45-6.29,4.15-8.37,2.69-2.08,6.46-3.17,10.92-3.17h.15c9.11.05,18.67,3.2,27.7,9.11l9.7-18.26c-30.89-17.67-54.87-9.5-63.26-2.68-7.08,5.76-10.7,13.79-10.75,23.89-.06,9.99,3.42,17.68,10.32,22.87,7.08,5.05,13.33,7.5,23.11,10.51,9.02,2.58,15.41,5.07,19,7.38,3.62,2.17,5.45,5.37,5.42,9.51-.03,5.22-3.13,9.36-8.74,11.65-9.58,3.92-25.32,1.81-37.04-9.75l-13.37,15.37c13.1,14.06,28.43,16.75,38.96,16.54Z"/>
    </g>
  </g>
</svg>