<?xml version="1.0" encoding="utf-8"?>
<!-- Generator: Adobe Illustrator 25.4.1, SVG Export Plug-In . SVG Version: 6.00 Build 0)  -->
<svg version="1.1" id="Layer_1" xmlns="http://www.w3.org/2000/svg" xmlns:xlink="http://www.w3.org/1999/xlink" x="0px" y="0px"
	 viewBox="0 0 1983.8 1174.5" style="enable-background:new 0 0 1983.8 1174.5;" xml:space="preserve">
<style type="text/css">
	.st0{fill-rule:evenodd;clip-rule:evenodd;fill:#E9E8F4;}
	.st1{fill-rule:evenodd;clip-rule:evenodd;fill:#F1F0F8;}
	.st2{fill-rule:evenodd;clip-rule:evenodd;fill:#3F3D56;}
	.st3{fill-rule:evenodd;clip-rule:evenodd;fill:#FEBDA1;}
	.st4{fill-rule:evenodd;clip-rule:evenodd;fill:#FEC6AD;}
	
		.st5{clip-path:url(#SVGID_00000098203644142756329650000005445396849060217227_);fill-rule:evenodd;clip-rule:evenodd;fill:#FEB797;}
	.st6{fill-rule:evenodd;clip-rule:evenodd;fill:#5246ce;}
	
		.st7{clip-path:url(#SVGID_00000142141551201295174970000001418094782504464311_);fill-rule:evenodd;clip-rule:evenodd;fill:#3F3D56;}
	
		.st8{clip-path:url(#SVGID_00000035514422523613693050000015102214344967697062_);fill-rule:evenodd;clip-rule:evenodd;fill:#FD9769;}
	
		.st9{clip-path:url(#SVGID_00000145026603467934846390000011312880312325499551_);fill:none;stroke:#FC6F30;stroke-width:4.8588;stroke-linecap:round;stroke-linejoin:round;stroke-miterlimit:10;}
</style>
<g>
	<path class="st0" d="M991.9,1121.6c547.4,0,991.9,11.8,991.9,26.4c0,14.6-444.5,26.4-991.9,26.4S0,1162.7,0,1148.1
		C0,1133.5,444.5,1121.6,991.9,1121.6L991.9,1121.6z"/>
	<path class="st1" d="M1832.3,773.6c-77.3,126.7-250.8,300.3-583.1,328.8c-350.4,30-712.4-126.4-951.1-340.2
		C96.5,581.7,5,321.5,313.7,178.5c316.5-146.7,960.4-154.7,1297.1-53.1C1989.2,239.5,2004.7,491.2,1832.3,773.6L1832.3,773.6z"/>
	<path class="st2" d="M1208,887.9c0,0,19.3,51.3,31.8,56.8c12.6,5.5,75-40.1,88.2-10c0,0,107.9,89.3,107.3,118.2
		c-0.6,28.9-2.6,21.1-63,38.2c-60.4,17-136.3,51-224.6,47.7c-88.3-3.3-94.5,21.5-203.9,0c-109.5-21.6-331.3-36.5-304.3-85.9
		c27-49.3,66.4-131.4,86.5-128.4c20.1,2.9,83.4,27.7,91,17.5c7.6-10.2,26.8-39,26.8-39L1208,887.9L1208,887.9z"/>
	<path class="st3" d="M807.7,1147.6c18.3-22.7,93.7-14.8,133.7-69c21.1-28.7,23.9-27.8,48.2-23.3c24.3,4.5,158.2,52.9,53.9,71
		c-19.1,3.3-34,6.6-43.1,9.8C941.9,1156.9,781.9,1179.6,807.7,1147.6L807.7,1147.6z"/>
	<path class="st4" d="M1059.8,1123.7c-26.9,4.3-94.5-72.8-70.3-68.3c24.3,4.5,17,11.4,80.1-18.1c63.3-29.6,368.4-197.4,446.1-135.8
		c46.3,36.7,23,116-65.2,153.9C1379.7,1085.8,1169.9,1106.1,1059.8,1123.7L1059.8,1123.7z"/>
	<g>
		<defs>
			<path id="SVGID_1_" d="M1059.8,1123.7c-26.9,4.3-94.5-72.8-70.3-68.3c24.3,4.5,17,11.4,80.1-18.1
				c63.3-29.6,368.4-197.4,446.1-135.8c46.3,36.7,23,116-65.2,153.9C1379.7,1085.8,1169.9,1106.1,1059.8,1123.7L1059.8,1123.7z"/>
		</defs>
		<clipPath id="SVGID_00000134240593506799393040000015132288826884747393_">
			<use xlink:href="#SVGID_1_"  style="overflow:visible;"/>
		</clipPath>
		
			<path style="clip-path:url(#SVGID_00000134240593506799393040000015132288826884747393_);fill-rule:evenodd;clip-rule:evenodd;fill:#FEB797;" d="
			M993.8,1048c1-3.7,34.9-1.7,38.1,0.3c6.7,4.2,59.7-16.4,75.7,1.7c13.5,15.3,21.6,37,37.3,45.7c21.6,12.1,65.5,8.9,88.9,6.3
			c2.9-0.3,24.5-4.9,26-0.9c1.3,3.6-18.9,9.3-20.7,9.8c-24,7.3-49.1,11.3-73.9,14.6c-31.5,4.2-63.1,7.4-94.7,9.7
			c-15.4,1.1-36.4,3.6-50.9-3.4C995.4,1120.1,961.2,1074.7,993.8,1048L993.8,1048z"/>
	</g>
	<path class="st4" d="M755.4,676.9c0,0-168.1,174.5-242.9,191.6l13.7,30.5c0,0,235-74.6,281.6-135.3
		C807.7,763.7,785.5,702.6,755.4,676.9L755.4,676.9z"/>
	<path class="st4" d="M1294.3,664.4c0,0,158.5,183.2,232.3,204.3l-15.3,29.8c0,0-230.6-87.1-274-150.2
		C1237.4,748.3,1262.9,688.4,1294.3,664.4L1294.3,664.4z"/>
	<path class="st6" d="M864.3,353c54.1-26.4,263.2-40.4,314.8,2.9c17.4,9.1,42.8,27.3,56.8,46.2c69.8,94.2,64.3,190.4,83.1,281.2
		c-32.5,12.1-81.2,95.2-97.7,69.6c-4.9-7.6-11.2-39.3-17.8-77c-3.6,95.5-2.9,181.9,13.9,241.4c-36.3,55.2-248.4,63-382.8,1.6
		c0,0,13.6-149.1,17.2-213.8c1.1-20.1-0.1-46.9-2.1-76.8c-9.8,58.1-20.1,122.1-27.4,133.3c-16.5,25.6-65.2-57.5-97.7-69.6
		c18.8-90.8,5.9-190.6,75.7-284.8c15.7-21.1,46.2-46.4,63.3-54.2C863.8,352.9,864,353,864.3,353L864.3,353z"/>
	<g>
		<defs>
			<path id="SVGID_00000030456178399840264260000004312766031451362462_" d="M864.3,353c54.1-26.4,263.2-40.4,314.8,2.9
				c17.4,9.1,42.8,27.3,56.8,46.2c69.8,94.2,64.3,190.4,83.1,281.2c-32.5,12.1-81.2,95.2-97.7,69.6c-4.9-7.6-11.2-39.3-17.8-77
				c-3.6,95.5-2.9,181.9,13.9,241.4c-36.3,55.2-248.4,63-382.8,1.6c0,0,13.6-149.1,17.2-213.8c1.1-20.1-0.1-46.9-2.1-76.8
				c-9.8,58.1-20.1,122.1-27.4,133.3c-16.5,25.6-65.2-57.5-97.7-69.6c18.8-90.8,5.9-190.6,75.7-284.8c15.7-21.1,46.2-46.4,63.3-54.2
				C863.8,352.9,864,353,864.3,353L864.3,353z"/>
		</defs>
		<clipPath id="SVGID_00000066485498438855339260000001763854316490926007_">
			<use xlink:href="#SVGID_00000030456178399840264260000004312766031451362462_"  style="overflow:visible;"/>
		</clipPath>
		
			<path style="clip-path:url(#SVGID_00000066485498438855339260000001763854316490926007_);fill-rule:evenodd;clip-rule:evenodd;fill:#3F3D56;" d="
			M1203.6,681.9c-1.4-1.7,1.2-13.1,1.3-15c0.8-16.6,2.7-33.2,4.3-49.7c0.9-9,1.7-18,2.6-27c0.1-0.6,1.5-12.7,2.1-12.4
			c0.2,0.1,4.1,33.1,4.4,35.8c3.1,24.9,7.1,49.7,10.8,74.5c1.6,11.3,2.2,26.6,9.3,36.2c12.4,17,40.9-8.1,51.5-15.4
			c1.2-0.8,16.7-11.9,17.4-10.1c2.5,6.2-11.4,24.3-14.3,29.1c-11.2,18.5-24.5,43.1-44,54.2c-16.7,9.5-40.9-12.9-41.9-30"/>
		
			<path style="clip-path:url(#SVGID_00000066485498438855339260000001763854316490926007_);fill-rule:evenodd;clip-rule:evenodd;fill:#3F3D56;" d="
			M736.6,720.1c11.8,18.1,56.1-17.1,62.2-26.8c21.5-34.4,32.2-75.3,43.8-113.7c4.9-16.3,9-33.2,15-49.1c0.1-0.4,1.3-4.1,2.3-3.8
			c2.8,1,1.7,17.2,1.7,19.4c0.6,24,0.9,47.9,0.2,72c-2,68.9-2.9,151.5-25.3,221.8C830.5,858.9,725.2,763.1,736.6,720.1L736.6,720.1z
			"/>
	</g>
	<path class="st4" d="M566.6,842.1c0,0-43.7,34.7-77.8,20.9c-36.4-14.8-35.5,0.1-6.7,11.6c28.8,11.5-13.6,4-35.8,10.2
		c-22.2,6.1,6.3,49.8,37.1,40c22-7,43.6-18.5,69.7-34.6C563.6,883.8,566.6,842.1,566.6,842.1L566.6,842.1z"/>
	<path class="st4" d="M1490,850.6c0,0,16.3,11.6,36.4,18.1c12,3.9,24.9,6.5,37.9,2c37.1-12.8,35.5,2,6.1,11.9
		c-29.4,9.9,13.4,4.8,35.2,12.1c21.9,7.3-8.9,49.4-39.2,38c-21.6-8.2-31.3-17.4-56.5-34.9C1508.7,889.5,1490,850.6,1490,850.6
		L1490,850.6z"/>
	<path class="st4" d="M1237,1147.6c-18.3-22.7-93.7-14.8-133.7-69c-21.1-28.7-23.9-27.8-48.2-23.3c-24.3,4.5-17,11.4-80.1-18.1
		c-63.3-29.6-368.4-197.4-446.1-135.8c-46.3,36.7-23,116,65.2,153.9c88.2,37.9,391.7,60.1,450.2,80.8
		C1102.9,1156.9,1262.8,1179.6,1237,1147.6L1237,1147.6z"/>
	<path class="st4" d="M989,233.1l0.2,103.8c16.1,18.3,46.3,23.2,65.3,4.1c0,0-6.7-99.2-5.6-106L989,233.1L989,233.1z"/>
	<g>
		<defs>
			<path id="SVGID_00000176031683651609590830000017491172409793380774_" d="M989,233.1l0.2,103.8c16.1,18.3,46.3,23.2,65.3,4.1
				c0,0-6.7-99.2-5.6-106L989,233.1L989,233.1z"/>
		</defs>
		<clipPath id="SVGID_00000031182776064358812990000006579514026727146897_">
			<use xlink:href="#SVGID_00000176031683651609590830000017491172409793380774_"  style="overflow:visible;"/>
		</clipPath>
		
			<path style="clip-path:url(#SVGID_00000031182776064358812990000006579514026727146897_);fill-rule:evenodd;clip-rule:evenodd;fill:#FD9769;" d="
			M972.6,281.2c0.5,0.1,1.1,1.4,1.5,1.8c1.4,1.7,2.8,3.3,4.2,4.8c4.9,5.4,10.1,10.3,15.5,14.8c16.2,13.3,32.5,17.7,50.7,17.4
			c3.6-0.1,7.2-0.3,10.8-0.6c1.8-0.1,4,0,5.6-1c1.4-0.9,0.8-3.4,0.4-5c-1.1-4.6-2.7-9.1-4.1-13.7c-4.1-13.5-7.7-27.2-11.1-41
			c-1-4-1.9-8.1-3.1-12c-0.4-1.4-0.9-3.4-2-4.2c-1.8-1.4-5.2-0.3-7.1,0c-5.7,1-11.3,2.2-17.1,2.9c-11.8,1.4-23.6,2.6-35.4,3.6
			C971.8,249.9,981.9,277.6,972.6,281.2"/>
	</g>
	<path class="st2" d="M1119.1,177c-0.1-4.7-0.6-10.1-0.3-12.9c0.6-5.4,0.6-10.9,0.3-16.3c-1.3-23.2-5.9-47.3-15-68.7
		c-7.3-17.1-18.1-32.8-31-46.2c-1-1-10.6-11.7-12.5-9.8c-1.9,2,1.7,6.6,1.2,8.9c-0.2,1.1-10-8-10.8-8.8c-7-6.5-14.2-13.2-22-18.8
		c-1.6-1.1-6.4-5.1-8.8-4.4c-0.7,0.2,1.5,3.8,1.7,4.1c0.9,1.7,8.2,14.3,6.2,15.6c-1.5,1-11.1-4.1-12.8-4.7c-12-4.2-26-6.1-38.6-7.1
		c-12.7-1-25.8,0.3-38.5,1.4c-2.1,0.2-11.6,1.4-10.3,1.8c2.6,0.7,5.2,1.7,7.6,2.9c4.9,2.5,21.8,11.4,20.4,18.8
		c-1,5.1-15.3,10.5-19.1,13.6c-10.4,8.2-24.3,26.1-25.7,40.1c-0.2,1.5,15.9-8.9,16.8-5.2c1.6,6.4-3.6,17.6-4.6,23.9
		c-2.7,16.9-3.8,33.8-3.8,50.8c0,8.1-1.6,20.3,5.9,26.1c9.7,7.4,26.1,9.4,37.4,12.5c10.5,2.8,21.1,5.2,31.9,6.6
		c16.3,2.2,32.7,3,49.2,2.6c24.4-0.7,55.6-2.4,75.3-18.6"/>
	<path class="st4" d="M934.9,170.5c0,0,0.2,68.9,33.4,108.5c12.3,14.7,27.9,20.1,51,21.1c20.7,0.9,40.4-3.5,52.2-14.8
		c37.1-35.5,34.3-108,34.3-108c11-33.3-5.1-56-28.7-100.1l-104.6-0.9C934.7,105,920.9,119.8,934.9,170.5L934.9,170.5z"/>
	<g>
		<defs>
			<path id="SVGID_00000005951887599956067610000013185099795176777658_" d="M934.9,170.5c0,0,0.2,68.9,33.4,108.5
				c12.3,14.7,27.9,20.1,51,21.1c20.7,0.9,40.4-3.5,52.2-14.8c37.1-35.5,34.3-108,34.3-108c11-33.3-5.1-56-28.7-100.1l-104.6-0.9
				C934.7,105,920.9,119.8,934.9,170.5L934.9,170.5z"/>
		</defs>
		<clipPath id="SVGID_00000159467520694134848850000016376205382458494109_">
			<use xlink:href="#SVGID_00000005951887599956067610000013185099795176777658_"  style="overflow:visible;"/>
		</clipPath>
		
			<path style="clip-path:url(#SVGID_00000159467520694134848850000016376205382458494109_);fill:none;stroke:#FC6F30;stroke-width:4.8588;stroke-linecap:round;stroke-linejoin:round;stroke-miterlimit:10;" d="
			M1021.8,181.7l-12.2,35.2l14.7,3 M1004.2,247.6c16.5,12.3,29.6,8.8,40.2-6.1"/>
	</g>
	<path class="st2" d="M1108.8,181.8c-0.3-2.7-2.6,0.7-3-1.9c-1.3-7.9-0.9-21.8-2.7-29.5c-1.2-4.9-2.6-9.8-4.1-14.6
		c-5.7-18.3-13.8-51.2-38.4-48.1c-9,1.2-17,5.9-24.2,11.3c-4.6,3.5-10.8,9.1-17,9.1c-8.2,0.1-17.4-10.2-24.2-13.9
		c-5.7-3.1-12-6-18.6-6.2c-12.6-0.3-23.4,10.9-30.6,20.3c-12.7,16.8-13.8,44.4-11.1,63.6c0.8,5.7,7,21.7,0,25
		c-5.4,2.6-14.8-12.9-14.6-16.9c0.4-10.4-2.7-16-0.6-42.5c1.2-15.3,4.9-30.7,11.7-44.7c21.9-45.1,89.1-64.3,132.8-42.7
		c45,22.2,68,83.8,47.4,130.2"/>
	<path class="st4" d="M942.7,226.7c0.2-2.1,4.5-13.8,2.9-25.1c-1.9-13.7-10-27.1-10.8-27.6c-0.9-0.6-1.6-1-1.8-1.1
		c-1.1-0.4-2.1-0.7-3.3-0.9c-3.2-0.6-6.2,0.3-8.9,2.1c-7.4,5.1-9.7,16-9.5,24.4c0.2,11.4,4.2,24.3,12.7,32.2
		C930.7,236.8,940.7,235.9,942.7,226.7L942.7,226.7z"/>
	<path class="st4" d="M1101.3,226.7c-0.2-2.1-4.5-13.8-2.9-25.1c1.9-13.7,10-27.1,10.8-27.6c0.9-0.6,1.6-1,1.8-1.1
		c1.1-0.4,2.1-0.7,3.3-0.9c3.2-0.6,6.2,0.3,8.9,2.1c7.4,5.1,9.7,16,9.5,24.4c-0.2,11.4-4.2,24.3-12.7,32.2
		C1113.3,236.8,1103.3,235.9,1101.3,226.7L1101.3,226.7z"/>
	<path class="st2" d="M1105.8,177.3c0,0-25.6,112.8-50.5,99.7c-24.9-13.1-36.6-17.7-60-0.7c-23.4,17-61-104.6-61-104.6
		S939.1,285,993,300.2c10,2.8,19.4,6.1,28.1,5.8c41.5-1.5,67.9-29,77-68.6C1108.9,189.5,1105.8,177.3,1105.8,177.3L1105.8,177.3z"/>
</g>
</svg>
