<svg xmlns="http://www.w3.org/2000/svg" xmlns:xlink="http://www.w3.org/1999/xlink" viewBox="0 0 95.85 60.32"><defs><style>.cls-1{fill:url(#linear-gradient);}.cls-2{fill:url(#linear-gradient-2);}.cls-3{fill:#6967af;}.cls-4{fill:none;stroke:#6967af;stroke-miterlimit:10;}.cls-5{fill:#462b73;}.cls-6{mask:url(#mask);}.cls-7{mask:url(#mask-2);}.cls-8{fill:#fbae48;}</style><linearGradient id="linear-gradient" x1="27.89" y1="23.53" x2="27.89" y2="13.11" gradientUnits="userSpaceOnUse"><stop offset="0"/><stop offset="0.09" stop-color="#070707"/><stop offset="0.22" stop-color="#1a1a1a"/><stop offset="0.37" stop-color="#3a3a3a"/><stop offset="0.54" stop-color="#676767"/><stop offset="0.73" stop-color="#a0a0a0"/><stop offset="0.93" stop-color="#e4e4e4"/><stop offset="1" stop-color="#fff"/></linearGradient><linearGradient id="linear-gradient-2" x1="66.36" y1="23.23" x2="66.36" y2="12.81" xlink:href="#linear-gradient"/><mask id="mask" x="16.98" y="17.61" width="21.82" height="9.56" maskUnits="userSpaceOnUse"><rect class="cls-1" x="16.98" y="17.61" width="21.82" height="8.04"/></mask><mask id="mask-2" x="55.45" y="17.32" width="21.82" height="9.56" maskUnits="userSpaceOnUse"><rect class="cls-2" x="55.45" y="17.32" width="21.82" height="8.04"/></mask></defs><g id="Layer_2" data-name="Layer 2"><g id="Page_1" data-name="Page 1"><g id="_Icon7_" data-name="&lt;Icon7&gt;"><path class="cls-3" d="M53.36,4.65l-4.57-.09s-.33,6.63,2.33,6.63S53.36,4.65,53.36,4.65Z"/><line class="cls-4" x1="51.12" y1="17.21" x2="51.12" y2="9.25"/><polyline class="cls-3" points="51.13 16.12 53.35 17.21 53.35 17.21 49.01 17.21"/><path class="cls-3" d="M42.21,4.65l-4.57-.09s-.32,6.63,2.34,6.63S42.21,4.65,42.21,4.65Z"/><line class="cls-4" x1="39.98" y1="17.21" x2="39.98" y2="9.25"/><polyline class="cls-3" points="39.98 16.12 42.21 17.21 42.21 17.21 37.87 17.21"/><path class="cls-5" d="M30.27,58.39a1.45,1.45,0,0,1-.84,1.67A1.14,1.14,0,0,1,28.1,59L24,35.88H8L2.78,59.07a1.18,1.18,0,0,1-1.06,1A.81.81,0,0,1,1.41,60a1.47,1.47,0,0,1-.76-1.73L6,34.47.64,9.91l0-.24L0,1.53A1.34,1.34,0,0,1,1,0c.61-.08,1.15.49,1.2,1.26l.6,8L8,33.08H24.9A1.2,1.2,0,0,1,26,34.18ZM5.76,19.58c-.57-3.17-1.15-6.46-1.64-9.3C5,2.42,3.56.85,2.8.63H2.73l.56,7.62ZM16.7,30.8c-2.88,0-6.36.17-7.85,1.23H23.51C22.3,31.22,20,30.8,16.7,30.8ZM95.24,9.67l.6-8.14a1.34,1.34,0,0,0-1-1.52c-.61-.08-1.15.49-1.2,1.26l-.6,8L87.87,33.08H71a1.2,1.2,0,0,0-1.08,1.1L65.58,58.39a1.45,1.45,0,0,0,.84,1.67c.6.17,1.19-.31,1.33-1.06l4.09-23.12h16l5.19,23.19a1.18,1.18,0,0,0,1.06,1,.84.84,0,0,0,.31-.05,1.48,1.48,0,0,0,.76-1.73L89.87,34.47,95.2,9.91A2,2,0,0,0,95.24,9.67ZM92.56,8.24,93.12.62H93c-.75.22-2.15,1.79-1.31,9.65-.5,2.84-1.07,6.13-1.64,9.3ZM87,32C85.5,31,82,30.8,79.15,30.8c-3.3,0-5.6.42-6.81,1.23ZM59.85,58.74,50,51a3.15,3.15,0,0,0-.67-.37L60.7,23.16H35.14L46.57,50.65a3.48,3.48,0,0,0-.68.38L36,58.74c-1.12.87-1.27,1.58-.34,1.58a7.57,7.57,0,0,0,3.72-1.58l6.51-5.07a3.5,3.5,0,0,1,4.07,0l6.51,5.07a7.57,7.57,0,0,0,3.72,1.58C61.12,60.32,61,59.61,59.85,58.74Zm-41-36.86H77a1.39,1.39,0,0,0,1.2-1.51v-.09A1.39,1.39,0,0,0,77,18.77H18.88a1.39,1.39,0,0,0-1.2,1.51v.09A1.39,1.39,0,0,0,18.88,21.88Z"/><g class="cls-6"><path d="M34,27.18H24.94a15.12,15.12,0,0,1-2.45-5.5H20.65a10.68,10.68,0,0,0,3.05,5.5H21.92a10.71,10.71,0,0,1-2.63-6.44H36.63A10.77,10.77,0,0,1,34,27.18ZM18.53,20H37.38a.9.9,0,0,0,0-1.8H18.53a.9.9,0,0,0,0,1.8Z"/></g><path class="cls-3" d="M38.23,17.21a.88.88,0,0,1-.85.9H18.53a.9.9,0,0,1,0-1.8H37.38A.88.88,0,0,1,38.23,17.21ZM28.94,5.93a1,1,0,1,0-2,0,6.24,6.24,0,0,1,1-.07A6.63,6.63,0,0,1,28.94,5.93Zm7.69,9.59H19.29c.35-5.18,4.09-9.26,8.67-9.26S36.28,10.34,36.63,15.52ZM27,7.14s-4.86,1.22-6.31,7.44h1.84S23.51,9.39,27,7.14Z"/><g class="cls-7"><path d="M72.47,26.88H63.41A15.12,15.12,0,0,1,61,21.38H59.12a10.65,10.65,0,0,0,3.06,5.5H60.39a10.71,10.71,0,0,1-2.63-6.44H75.1A10.77,10.77,0,0,1,72.47,26.88ZM57,19.65H75.85a.9.9,0,0,0,0-1.8H57a.9.9,0,0,0,0,1.8Z"/></g><path class="cls-3" d="M76.7,16.91a.88.88,0,0,1-.85.9H57A.9.9,0,0,1,57,16H75.85A.88.88,0,0,1,76.7,16.91ZM67.41,5.63a1,1,0,1,0-2,0,6.24,6.24,0,0,1,1-.07A8.26,8.26,0,0,1,67.41,5.63Zm7.69,9.59H57.76C58.11,10,61.85,6,66.43,6S74.75,10,75.1,15.22ZM65.43,6.84s-4.86,1.22-6.31,7.44H61S62,9.1,65.43,6.84Z"/><path class="cls-8" d="M78.48,17.62V35.84a3.12,3.12,0,0,1-6.19,0,3.12,3.12,0,0,1-6.2,0H66a3.11,3.11,0,0,1-6.18,0h0a3.11,3.11,0,0,1-6.18,0,3.11,3.11,0,0,1-6.17,0,3,3,0,0,1-3.09,2.75,2.92,2.92,0,0,1-3.09-2.75h0a3.11,3.11,0,0,1-6.18,0A2.93,2.93,0,0,1,32,38.59a2.94,2.94,0,0,1-3.09-2.75,2.93,2.93,0,0,1-3.1,2.75,3,3,0,0,1-3.09-2.75,2.93,2.93,0,0,1-3.09,2.75,2.93,2.93,0,0,1-3.08-2.75V17.62Z"/></g></g></g></svg>