<svg xmlns="http://www.w3.org/2000/svg" xmlns:xlink="http://www.w3.org/1999/xlink" viewBox="0 0 31.65 31.41"><defs><style>.cls-1{fill:#6e42e8;}.cls-2{fill:#220b60;}.cls-3{fill:url(#linear-gradient);}.cls-4{fill:url(#linear-gradient-2);}.cls-5{fill:url(#linear-gradient-3);}</style><linearGradient id="linear-gradient" x1="9.59" y1="14.28" x2="14.66" y2="14.28" gradientTransform="translate(13.6 -4.52) rotate(45)" gradientUnits="userSpaceOnUse"><stop offset="0" stop-color="#acaab6"/><stop offset="1" stop-color="#dedce8"/></linearGradient><linearGradient id="linear-gradient-2" x1="14.63" y1="19.31" x2="19.7" y2="19.31" gradientTransform="translate(18.63 -6.6) rotate(45)" xlink:href="#linear-gradient"/><linearGradient id="linear-gradient-3" x1="1.52" y1="22.92" x2="32.53" y2="22.92" gradientUnits="userSpaceOnUse"><stop offset="0" stop-color="#8a68e8"/><stop offset="1" stop-color="#5939d1"/></linearGradient></defs><g id="Layer_2" data-name="Layer 2"><g id="Layer_1-2" data-name="Layer 1"><rect class="cls-1" x="17.83" y="3.9" width="3.24" height="16.09" transform="translate(41.66 6.63) rotate(135)"/><path class="cls-1" d="M29,8.08A2.8,2.8,0,0,1,29,12L25.45,15.6,15.84,6l3.58-3.58a2.75,2.75,0,0,1,3.93,0L25.6,4.67l1.17,1.16,1.59,1.6Z"/><path class="cls-2" d="M25.36,4.42l4-4a1.32,1.32,0,0,1,1.88,0h0a1.32,1.32,0,0,1,0,1.86l-4,4Z"/><path class="cls-2" d="M.39,31a1.32,1.32,0,0,1,0-1.87l4-4,.39.43L6.29,27l-4,4A1.32,1.32,0,0,1,.39,31Z"/><path class="cls-3" d="M9.18,13.47h5.55a.59.59,0,0,1,.59.59v.18a.59.59,0,0,1-.59.59H9.18a0,0,0,0,1,0,0V13.47a0,0,0,0,1,0,0Z" transform="translate(-6.42 12.81) rotate(-45)"/><path class="cls-4" d="M14.21,18.51h5.55a.59.59,0,0,1,.59.59v.18a.59.59,0,0,1-.59.59H14.21a0,0,0,0,1,0,0V18.51a0,0,0,0,1,0,0Z" transform="translate(-8.51 17.84) rotate(-45)"/><rect class="cls-2" x="20.52" y="3.75" width="0.76" height="13.59" transform="translate(-1.34 17.86) rotate(-45)"/><rect class="cls-1" x="10.24" y="11.49" width="3.24" height="16.09" transform="translate(-10.34 14.11) rotate(-45)"/><path class="cls-5" d="M15.52,25.53l-3.58,3.58a2.8,2.8,0,0,1-3.94,0L5.75,26.86,4.58,25.68,2.33,23.43a2.78,2.78,0,0,1,0-3.94l3.58-3.58Z"/><rect class="cls-2" x="10.07" y="14.19" width="0.76" height="13.59" transform="translate(-11.78 13.54) rotate(-45)"/></g></g></svg>