<svg xmlns="http://www.w3.org/2000/svg" viewBox="0 0 79.95 22.68"><defs><style>.cls-1{fill:#6967af;}.cls-2{fill:#462b73;}</style></defs><g id="Layer_2" data-name="Layer 2"><g id="Page_1" data-name="Page 1"><g id="_Icon12_" data-name="&lt;Icon12&gt;"><path class="cls-1" d="M0,11.34A11.4,11.4,0,0,0,11.47,22.68V0A11.41,11.41,0,0,0,0,11.34Z"/><path class="cls-2" d="M11.47,0V22.68A11.4,11.4,0,0,0,22.94,11.34,11.4,11.4,0,0,0,11.47,0Z"/><path class="cls-2" d="M68.48,0V22.68A11.4,11.4,0,0,0,80,11.34,11.4,11.4,0,0,0,68.48,0Z"/><path class="cls-1" d="M57,11.34A11.4,11.4,0,0,0,68.48,22.68V0A11.41,11.41,0,0,0,57,11.34Z"/><path class="cls-1" d="M28.37,11.34A11.4,11.4,0,0,0,39.84,22.68V0A11.4,11.4,0,0,0,28.37,11.34Z"/><path class="cls-2" d="M39.84,0V22.68A11.4,11.4,0,0,0,51.31,11.34,11.41,11.41,0,0,0,39.84,0Z"/></g></g></g></svg>