<svg xmlns="http://www.w3.org/2000/svg" xmlns:xlink="http://www.w3.org/1999/xlink" viewBox="0 0 36.8 33.77"><defs><style>.cls-1{fill:url(#linear-gradient);}.cls-2{fill:#fff;}.cls-3{fill:url(#linear-gradient-2);}.cls-4{fill:url(#linear-gradient-3);}</style><linearGradient id="linear-gradient" x1="16.43" y1="23.16" x2="36.8" y2="23.16" gradientUnits="userSpaceOnUse"><stop offset="0" stop-color="#5939d1"/><stop offset="1" stop-color="#8a68e8"/></linearGradient><linearGradient id="linear-gradient-2" x1="0.05" y1="11.01" x2="20.38" y2="11.01" gradientUnits="userSpaceOnUse"><stop offset="0" stop-color="#8a68e8"/><stop offset="1" stop-color="#5939d1"/></linearGradient><linearGradient id="linear-gradient-3" x1="0" y1="7.47" x2="20.35" y2="7.47" xlink:href="#linear-gradient"/></defs><g id="Layer_2" data-name="Layer 2"><g id="Layer_1-2" data-name="Layer 1"><path class="cls-1" d="M36.78,17.81c0-1.28,0-2.56,0-3.84v-.05h0v0a1.38,1.38,0,0,0-1.4-1.32H21.25v2.18a2.27,2.27,0,0,1-1.11,1.93,2.81,2.81,0,0,1-1.46.32H16.43V27a1.69,1.69,0,0,0,.39,1.29,2.14,2.14,0,0,0,1.65.39h4.1v4a8.22,8.22,0,0,0,0,.86.32.32,0,0,0,.55.23l.14-.15.79-.78,2.49-2.48,1.64-1.63h6.9a4.87,4.87,0,0,0,.54,0,1.36,1.36,0,0,0,1.16-1.34c0-1.1,0-2.21,0-3.32Z"/><path class="cls-2" d="M27.7,23a7,7,0,0,0,.88.51,7.54,7.54,0,0,0,.89.39,12.33,12.33,0,0,0,1.18.36.66.66,0,0,1-.35,1.28,12.2,12.2,0,0,1-2.64-1,10.19,10.19,0,0,1-1.17-.76,10.52,10.52,0,0,1-4.13,1.77.68.68,0,0,1-.82-.47.66.66,0,0,1,.46-.81,12.19,12.19,0,0,0,2.06-.61h0l.17-.07.22-.11c.14-.06.27-.13.4-.2s.43-.25.64-.39a8.19,8.19,0,0,1-1.89-3.07.67.67,0,0,1,.46-.82.68.68,0,0,1,.81.47l.09.24.05.12c.1.17.17.38.27.56s.21.37.32.55l.2.29.1.13h0l0,0a7,7,0,0,0,.57.64l.06-.06c.15-.15.29-.32.43-.48h0l.09-.11.16-.24a6.49,6.49,0,0,0,.55-1s0,0,0-.07h0s0,0,0-.06l.09-.21c.05-.15.1-.3.14-.45a6.39,6.39,0,0,0,.2-.84,1.42,1.42,0,0,0,0-.2v0l0-.22H22.07a.67.67,0,0,1,0-1.33h3.59v-.52a.67.67,0,0,1,.67-.66.66.66,0,0,1,.66.66v.52h3.59a.69.69,0,0,1,.67.67.68.68,0,0,1-.67.66h-.87l0,.13a8.11,8.11,0,0,1-1.5,4,7.54,7.54,0,0,1-.68.8Z"/><path class="cls-3" d="M.05,14.93a1.35,1.35,0,0,0,1.12,1.14,5.49,5.49,0,0,0,.58,0l.9,0H8.17l3.77,3.42.94.85a2.05,2.05,0,0,0,.44.39l.14,0h.07l.07,0h0l0,0a.27.27,0,0,0,.07-.08l0,0s0,0,0-.05v0h0s0,0,0,0v0c0-.11,0-.22,0-.33v-4h4.9a2.14,2.14,0,0,0,1-.2.1.1,0,0,1,.05,0l0,0h0l0,0a.1.1,0,0,0,.05,0l0,0,.07-.07,0,0,0,0,0,0,.05-.06v0l.07-.11a1.8,1.8,0,0,0,.14-.41v0h0a.22.22,0,0,0,0-.08.25.25,0,0,0,0-.08V4.69c0-1.09,0-2.2,0-3.29v0h0v0s0-.05,0-.07C11.79,2.68,4.76,7.88.05,14.93Z"/><path class="cls-4" d="M19.14,0H1.42A1.37,1.37,0,0,0,0,1.37C0,2.46,0,3.55,0,4.64V14.73a1.18,1.18,0,0,0,0,.2c4.71-7,11.74-12.25,20.3-13.68A1.36,1.36,0,0,0,19.14,0Z"/><path class="cls-2" d="M13.13,4.66A2.39,2.39,0,0,0,11.6,3.43a5.17,5.17,0,0,0-1.11-.06c-.36,0-.71,0-1.07,0a2.43,2.43,0,0,0-1.58.55A2.35,2.35,0,0,0,7,5.72V8C7,9.35,7,10.66,7,12v.09a.66.66,0,0,0,1.32,0V8.7h3.73c0,1.1,0,2.19,0,3.28v.08a.68.68,0,0,0,.67.66.67.67,0,0,0,.66-.66V6.37A3.72,3.72,0,0,0,13.13,4.66Zm-1.08.93v.16c0,.14,0,.29,0,.44V7.38H8.32V5.72s0-.06,0-.1v0l0-.08a1.09,1.09,0,0,1,.05-.17h0a.25.25,0,0,1,0-.07.86.86,0,0,1,.1-.16L8.6,5l.09-.08h0l.12-.08L9,4.77l.16,0,.08,0h2l.11,0a1,1,0,0,1,.5.29l.07.08.09.13h0v0h0s0,0,0,0a0,0,0,0,0,0,0h0l0,0v0s0,0,0,0l0,.09a.09.09,0,0,0,0,0s0,0,0,0Z"/></g></g></svg>