<svg xmlns="http://www.w3.org/2000/svg" xmlns:xlink="http://www.w3.org/1999/xlink" viewBox="0 0 27.28 30.85"><defs><style>.cls-1,.cls-2,.cls-5{fill-rule:evenodd;}.cls-1{fill:url(#linear-gradient);}.cls-2{fill:url(#linear-gradient-2);}.cls-3{fill:url(#linear-gradient-3);}.cls-4{fill:url(#linear-gradient-4);}.cls-5{fill:url(#linear-gradient-5);}</style><linearGradient id="linear-gradient" x1="1.24" y1="18.16" x2="26.04" y2="18.16" gradientUnits="userSpaceOnUse"><stop offset="0" stop-color="#5939d1"/><stop offset="1" stop-color="#8a68e8"/></linearGradient><linearGradient id="linear-gradient-2" x1="1.24" y1="12.76" x2="26.04" y2="12.76" gradientUnits="userSpaceOnUse"><stop offset="0" stop-color="#8a68e8"/><stop offset="1" stop-color="#5939d1"/></linearGradient><linearGradient id="linear-gradient-3" y1="4.03" x2="27.28" y2="4.03" gradientUnits="userSpaceOnUse"><stop offset="0" stop-color="#acaab6"/><stop offset="1" stop-color="#dedce8"/></linearGradient><linearGradient id="linear-gradient-4" x1="3.31" y1="0.97" x2="23.97" y2="0.97" xlink:href="#linear-gradient-3"/><linearGradient id="linear-gradient-5" x1="7.4" y1="26.23" x2="19.88" y2="26.23" xlink:href="#linear-gradient-2"/></defs><g id="Layer_2" data-name="Layer 2"><g id="Layer_1-2" data-name="Layer 1"><path class="cls-1" d="M22.59,16.05h0a.49.49,0,0,1,0,1H19.78A83.75,83.75,0,0,1,1.24,20.57v.26a.83.83,0,0,0,.82.83H25.21a.83.83,0,0,0,.83-.83V14.67Q24.33,15.41,22.59,16.05Z"/><path class="cls-2" d="M16.71,17a.49.49,0,0,1,0-1h5.88q1.74-.65,3.45-1.38V5H1.24V20.57A83.75,83.75,0,0,0,19.78,17Zm0-7.62h5.91a.49.49,0,0,1,0,1H16.71A.49.49,0,0,1,16.71,9.4Zm0,2.22h5.91a.48.48,0,0,1,0,1H16.71A.48.48,0,0,1,16.71,11.62Zm0,2.22h5.91a.48.48,0,0,1,0,1H16.71A.48.48,0,0,1,16.71,13.84ZM9.09,17.25a4.43,4.43,0,1,1,4.43-4.43H9.09ZM10,18V13.6H14.4A4.43,4.43,0,0,1,10,18Z"/><rect class="cls-3" y="3.06" width="27.28" height="1.94"/><rect class="cls-4" x="3.31" width="20.66" height="1.94"/><path class="cls-5" d="M19.8,30.12a.48.48,0,0,1-.82.51l-4.86-7.82v7.56a.48.48,0,0,1-1,0V22.81L8.29,30.63a.48.48,0,0,1-.81-.51l5.29-8.52H14.5Z"/></g></g></svg>