<?xml version="1.0" encoding="utf-8"?>
<!-- Generator: Adobe Illustrator 25.4.1, SVG Export Plug-In . SVG Version: 6.00 Build 0)  -->
<svg version="1.1" id="Layer_1" xmlns="http://www.w3.org/2000/svg" xmlns:xlink="http://www.w3.org/1999/xlink" x="0px" y="0px"
	 viewBox="0 0 1871.3 1277.9" style="enable-background:new 0 0 1871.3 1277.9;" xml:space="preserve">
<style type="text/css">
	.st0{fill-rule:evenodd;clip-rule:evenodd;fill:#E9E8F4;}
	.st1{fill-rule:evenodd;clip-rule:evenodd;fill:#F1F0F8;}
	.st2{fill-rule:evenodd;clip-rule:evenodd;fill:#172830;}
	.st3{fill-rule:evenodd;clip-rule:evenodd;fill:#2F3030;}
	.st4{fill-rule:evenodd;clip-rule:evenodd;fill:#DBD8ED;}
	
		.st5{clip-path:url(#SVGID_00000034056878189636734120000009729837787831697035_);fill-rule:evenodd;clip-rule:evenodd;fill:#C0BBDF;}
	
		.st6{clip-path:url(#SVGID_00000034056878189636734120000009729837787831697035_);fill-rule:evenodd;clip-rule:evenodd;fill:#6E62B5;}
	.st7{clip-path:url(#SVGID_00000034056878189636734120000009729837787831697035_);fill:#FFFFFF;}
	.st8{fill-rule:evenodd;clip-rule:evenodd;fill:#3F3D56;}
	.st9{fill-rule:evenodd;clip-rule:evenodd;fill:#3E3571;}
	.st10{fill-rule:evenodd;clip-rule:evenodd;fill:#FFFFFF;}
	.st11{fill-rule:evenodd;clip-rule:evenodd;fill:#6E62B5;}
	
		.st12{clip-path:url(#SVGID_00000001625230268120388460000010144931112044608687_);fill-rule:evenodd;clip-rule:evenodd;fill:#5B4FA6;}
	
		.st13{clip-path:url(#SVGID_00000001625230268120388460000010144931112044608687_);fill-rule:evenodd;clip-rule:evenodd;fill:#F3F2F9;}
	
		.st14{clip-path:url(#SVGID_00000001625230268120388460000010144931112044608687_);fill-rule:evenodd;clip-rule:evenodd;fill:#DCDAED;}
	.st15{fill-rule:evenodd;clip-rule:evenodd;fill:#5B4FA6;}
	.st16{fill-rule:evenodd;clip-rule:evenodd;fill:#D8D5EB;}
</style>
<g>
	<path class="st0" d="M935.7,1228c516.4,0,935.7,11.2,935.7,24.9c0,13.8-419.3,24.9-935.7,24.9S0,1266.7,0,1252.9
		C0,1239.1,419.3,1228,935.7,1228L935.7,1228z"/>
	<path class="st1" d="M1690.7,405.9c-281-304.6-718.7-229-1032.3-123C97.6,472.4-4,1083.8,513.3,1209.2
		C1046.1,1338.3,2025.2,821.4,1690.7,405.9L1690.7,405.9z"/>
	<path class="st2" d="M1101.1,1218.1c0,0,363.5,0,414.2,0c1.6,0,3,0.6,4.1,1.7c1.1,1.1,1.7,2.6,1.7,4.1c0,6.6,0,16.4,0,16.4h-420.1
		V1218.1L1101.1,1218.1z"/>
	<path class="st2" d="M407.6,795.2c-1.8-7.7-0.1-15.8,4.8-22c4.9-6.2,12.4-9.8,20.3-9.8c116.8,0,511.1,0,605.8,0
		c12,0,22.5,8.3,25.2,20.1c17.5,76.4,79.8,349.3,100.2,438.4c1.6,6.9-0.1,14.1-4.5,19.7c-4.4,5.5-11.1,8.8-18.1,8.8
		c-110.4,0.5-502.2,2.3-600.8,2.7c-13.3,0.1-24.9-9-28-21.9C493.6,1152.6,429.8,887.3,407.6,795.2L407.6,795.2z"/>
	<path class="st3" d="M1108.2,1240.3h420.1c0,0,0,0,0,0c0,5.5-4.5,10-10,10c-63.7,0-410.1,0-410.1,0V1240.3L1108.2,1240.3z"/>
	<path class="st4" d="M435.8,808.6c-1.7-6.9,0-14.2,4.5-19.8c4.6-5.6,11.6-8.8,19-8.8c108.4,0,472.1,0,560.1,0
		c11.3,0,21.1,7.5,23.6,18.1c16.2,68.5,73.8,312.3,92.6,392c1.5,6.2-0.1,12.7-4.2,17.7c-4.1,5-10.4,7.9-17,7.9
		c-102.4,0.4-463.8,2-555.4,2.4c-12.4,0.1-23.3-8.1-26.2-19.7C515.3,1128.1,456.4,891.1,435.8,808.6L435.8,808.6z"/>
	<g>
		<defs>
			<path id="SVGID_1_" d="M435.8,808.6c-1.7-6.9,0-14.2,4.5-19.8c4.6-5.6,11.6-8.8,19-8.8c108.4,0,472.1,0,560.1,0
				c11.3,0,21.1,7.5,23.6,18.1c16.2,68.5,73.8,312.3,92.6,392c1.5,6.2-0.1,12.7-4.2,17.7c-4.1,5-10.4,7.9-17,7.9
				c-102.4,0.4-463.8,2-555.4,2.4c-12.4,0.1-23.3-8.1-26.2-19.7C515.3,1128.1,456.4,891.1,435.8,808.6L435.8,808.6z"/>
		</defs>
		<clipPath id="SVGID_00000131337916297599339490000015389856222979310270_">
			<use xlink:href="#SVGID_1_"  style="overflow:visible;"/>
		</clipPath>
		
			<polygon style="clip-path:url(#SVGID_00000131337916297599339490000015389856222979310270_);fill-rule:evenodd;clip-rule:evenodd;fill:#C0BBDF;" points="
			1069.1,795 1187.1,934.6 579.8,1448.1 461.7,1308.5 1069.1,795 		"/>
		
			<polygon style="clip-path:url(#SVGID_00000131337916297599339490000015389856222979310270_);fill-rule:evenodd;clip-rule:evenodd;fill:#C0BBDF;" points="
			975.7,697.3 1025.3,755.9 417.9,1269.4 368.3,1210.7 975.7,697.3 		"/>
		
			<path style="clip-path:url(#SVGID_00000131337916297599339490000015389856222979310270_);fill-rule:evenodd;clip-rule:evenodd;fill:#6E62B5;" d="
			M969.4,955.2c-1.3-3.2-4.3-5.3-7.8-5.3c-39.9,0-278.5,0-335.6,0c-2.8,0-5.4,1.4-6.9,3.7c-1.6,2.3-1.9,5.2-0.9,7.8
			c8.4,21.3,26.1,66.2,32.2,81.5c1.3,3.2,4.3,5.3,7.8,5.3c39.9,0,278.5,0,335.6,0c2.8,0,5.4-1.4,6.9-3.7c1.6-2.3,1.9-5.2,0.9-7.8
			C993.2,1015.5,975.5,970.6,969.4,955.2L969.4,955.2z"/>
		<path style="clip-path:url(#SVGID_00000131337916297599339490000015389856222979310270_);fill:#FFFFFF;" d="M694.3,1008.3l10.1-1
			c2,3.5,4.3,6.1,6.9,7.8c2.6,1.6,5.5,2.5,8.8,2.5c3.5,0,5.8-0.7,7-2.2c1.2-1.5,1.4-3.2,0.6-5.1c-0.5-1.3-1.3-2.3-2.4-3.2
			c-1.1-0.9-2.7-1.7-4.8-2.3c-1.4-0.4-4.6-1.2-9.5-2.3c-6.3-1.4-11.1-3.2-14.2-5.3c-4.4-2.9-7.5-6.5-9.1-10.7
			c-1.1-2.7-1.3-5.3-0.7-7.6s2.1-4.2,4.5-5.4c2.4-1.2,5.7-1.9,9.8-1.9c6.7,0,12.3,1.5,16.9,4.4c4.5,2.9,7.9,6.9,10,11.8l-10.6,0.5
			c-1.5-2.7-3.3-4.7-5.3-5.9c-2-1.2-4.5-1.8-7.5-1.8c-3.1,0-5.3,0.6-6.6,1.9c-0.8,0.8-0.9,1.9-0.4,3.3c0.5,1.3,1.5,2.3,2.9,3.2
			c1.8,1.1,5.6,2.3,11.3,3.6c5.7,1.2,10.1,2.5,13.1,3.8c3,1.3,5.7,3.1,8,5.4c2.3,2.3,4.2,5.1,5.5,8.5c1.2,3.1,1.5,5.9,0.8,8.6
			c-0.6,2.7-2.3,4.7-4.9,5.9c-2.6,1.3-6.2,1.9-10.8,1.9c-6.7,0-12.5-1.6-17.4-4.7C701.3,1018.8,697.3,1014.3,694.3,1008.3
			L694.3,1008.3z"/>
		<polygon style="clip-path:url(#SVGID_00000131337916297599339490000015389856222979310270_);fill:#FFFFFF;" points="765.6,1025.7 
			748.1,981.4 732.3,981.4 728.7,972.3 771.1,972.3 774.7,981.4 758.9,981.4 776.3,1025.7 765.6,1025.7 		"/>
		<path style="clip-path:url(#SVGID_00000131337916297599339490000015389856222979310270_);fill:#FFFFFF;" d="M841.7,1025.7h-11.7
			l-9.4-12.1h-21.3l0.4,12.1h-11.4l-0.3-53.3h11.4L841.7,1025.7L841.7,1025.7z M813.5,1004.6l-15.2-19.8l0.6,19.8H813.5
			L813.5,1004.6z"/>
		<path style="clip-path:url(#SVGID_00000131337916297599339490000015389856222979310270_);fill:#FFFFFF;" d="M847.4,1025.7
			l-21-53.3H849c5.7,0,10,0.5,13,1.4c3,1,5.7,2.7,8.2,5.1c2.5,2.4,4.4,5.3,5.6,8.4c1.6,4,1.7,7.3,0.4,9.9c-1.3,2.6-4.2,4.3-8.6,4.9
			c2.9,1.4,5.4,2.9,7.5,4.5c2.2,1.6,5.3,4.5,9.5,8.7l10.6,10.4h-12.9l-12.4-11.6c-4.4-4.1-7.3-6.8-8.8-7.8c-1.4-1.1-2.8-1.8-4.1-2.2
			c-1.3-0.4-3.2-0.6-5.7-0.6h-2.2l8.8,22.3H847.4L847.4,1025.7z M846,994.9h8c5.2,0,8.3-0.2,9.4-0.7c1.1-0.4,1.8-1.2,2.1-2.3
			c0.3-1.1,0.1-2.4-0.5-4c-0.7-1.8-1.8-3.2-3.2-4.3c-1.4-1.1-3-1.8-4.9-2.1c-0.9-0.1-3.6-0.2-7.9-0.2h-8.4L846,994.9L846,994.9z"/>
		<polygon style="clip-path:url(#SVGID_00000131337916297599339490000015389856222979310270_);fill:#FFFFFF;" points="913.2,1025.7 
			895.7,981.4 879.9,981.4 876.3,972.3 918.7,972.3 922.3,981.4 906.5,981.4 924,1025.7 913.2,1025.7 		"/>
	</g>
	<path class="st8" d="M887.8,612c-23,7.5-63.4,29.6-65.7,92.5h-65.7l131.5-214.1V612L887.8,612z"/>
	<polygon class="st9" points="1022,605.4 913.5,605.4 913.5,650.6 1022,650.6 1022,605.4 	"/>
	<path class="st10" d="M1025.2,743c29.9,0,54.2,24.3,54.2,54.2c0,29.9-24.3,54.2-54.2,54.2c-29.9,0-54.2-24.3-54.2-54.2
		C971,767.3,995.3,743,1025.2,743L1025.2,743z"/>
	<path class="st10" d="M947.2,1148.9c-20.6,5.5-41.9-6.7-47.4-27.4c-5.5-20.6,6.7-41.9,27.4-47.4c20.6-5.5,41.9,6.7,47.4,27.4
		C980.1,1122.1,967.8,1143.4,947.2,1148.9L947.2,1148.9z"/>
	<path class="st10" d="M1064.9,823.2c21.9,0,39.7,17.8,39.7,39.7c0,21.9-17.8,39.7-39.7,39.7c-21.9,0-39.7-17.8-39.7-39.7
		C1025.2,841,1043,823.2,1064.9,823.2L1064.9,823.2z"/>
	<polygon class="st10" points="1005.2,650.6 936.7,650.6 936.7,1093.3 1005.2,1093.3 1005.2,650.6 	"/>
	<path class="st10" d="M845.1,843.3c9.2,0,16.6,7.5,16.6,16.6c0,9.2-7.5,16.6-16.6,16.6c-9.2,0-16.6-7.4-16.6-16.6
		C828.5,850.7,835.9,843.3,845.1,843.3L845.1,843.3z"/>
	<path class="st10" d="M1036.2,1052.3c-15.1,4-30.6-4.9-34.7-20c-4-15.1,4.9-30.6,20-34.7c15.1-4,30.6,4.9,34.7,20
		C1060.3,1032.7,1051.3,1048.2,1036.2,1052.3L1036.2,1052.3z"/>
	<path class="st10" d="M914,1058.8c-15.1,4-30.6-4.9-34.7-20c-4-15.1,4.9-30.6,20-34.7c15.1-4,30.6,4.9,34.7,20
		C938,1039.2,929.1,1054.7,914,1058.8L914,1058.8z"/>
	<path class="st10" d="M885.2,936.8c-9.3,2.5-18.9-3-21.4-12.3c-2.5-9.3,3-18.9,12.3-21.4c9.3-2.5,18.9,3,21.4,12.3
		C900,924.7,894.5,934.3,885.2,936.8L885.2,936.8z"/>
	<path class="st10" d="M978.4,688.7c29.9,0,54.2,24.3,54.2,54.2c0,29.9-24.3,54.2-54.2,54.2s-54.2-24.3-54.2-54.2
		C924.1,713,948.4,688.7,978.4,688.7L978.4,688.7z"/>
	<path class="st10" d="M898.1,734.8c29.9,0,54.2,24.3,54.2,54.2c0,29.9-24.3,54.2-54.2,54.2c-29.9,0-54.2-24.3-54.2-54.2
		C843.9,759.1,868.2,734.8,898.1,734.8L898.1,734.8z"/>
	<path class="st10" d="M1023.8,1135.8c-20.6,5.5-41.9-6.7-47.4-27.4c-5.5-20.6,6.7-41.9,27.4-47.4c20.6-5.5,41.9,6.7,47.4,27.4
		C1056.8,1109,1044.5,1130.2,1023.8,1135.8L1023.8,1135.8z"/>
	<path class="st10" d="M981,758.3c51.4,0,93.1,41.7,93.1,93.1c0,51.4-41.7,93.1-93.1,93.1c-51.4,0-93.1-41.7-93.1-93.1
		C887.8,800,929.5,758.3,981,758.3L981,758.3z"/>
	<path class="st10" d="M974.9,1130.1c-35.5,9.5-72-11.6-81.5-47c-9.5-35.5,11.6-72,47-81.5c35.5-9.5,72,11.6,81.5,47
		C1031.4,1084.1,1010.3,1120.6,974.9,1130.1L974.9,1130.1z"/>
	<path class="st8" d="M1047.3,612c23,7.5,63.4,29.6,65.7,92.5h65.7l-131.5-214.1V612L1047.3,612z"/>
	<path class="st11" d="M928.9,65.7c-42.7,82.1-62.9,174-58.6,266.4c4.3,91.8,7.6,237.2,8.7,286.4c0.2,9.4,7.9,16.9,17.3,16.9
		c32.9,0,105.3,0,137.9,0c9.2,0,16.9-7.3,17.3-16.5c2.3-48.7,9-194.2,13.3-286.2c4.3-92.8-16.1-185.2-59.2-267.5
		c-17.8-34-32.2-61.6-32.2-61.6c-1.2-2.3-3.5-3.7-6.1-3.7c-2.6,0-4.9,1.4-6.1,3.7C961.2,3.7,946.7,31.5,928.9,65.7L928.9,65.7z"/>
	<g>
		<defs>
			<path id="SVGID_00000120521853576658292830000010928999618860260534_" d="M928.9,65.7c-42.7,82.1-62.9,174-58.6,266.4
				c4.3,91.8,7.6,237.2,8.7,286.4c0.2,9.4,7.9,16.9,17.3,16.9c32.9,0,105.3,0,137.9,0c9.2,0,16.9-7.3,17.3-16.5
				c2.3-48.7,9-194.2,13.3-286.2c4.3-92.8-16.1-185.2-59.2-267.5c-17.8-34-32.2-61.6-32.2-61.6c-1.2-2.3-3.5-3.7-6.1-3.7
				c-2.6,0-4.9,1.4-6.1,3.7C961.2,3.7,946.7,31.5,928.9,65.7L928.9,65.7z"/>
		</defs>
		<clipPath id="SVGID_00000158746040456714354170000002971714790985761943_">
			<use xlink:href="#SVGID_00000120521853576658292830000010928999618860260534_"  style="overflow:visible;"/>
		</clipPath>
		
			<path style="clip-path:url(#SVGID_00000158746040456714354170000002971714790985761943_);fill-rule:evenodd;clip-rule:evenodd;fill:#5B4FA6;" d="
			M962.8-10.3c9.8,16.5,19.8,48.7,24.6,62.4c11.5,32.7,20.9,66.4,28.3,100.2c22.5,103.5,22.6,208.1,16.7,313.3
			c-2,35.6-2.1,73-10.7,107.8c-12,48.3-54,47.8-95.5,42.3c-18.9-2.5-38-4.7-56.8-7.5c-1.8-0.3-3.8-0.6-3.9,1.7
			c-0.5,9.3,2.2,20.2,4,29.3c8,38.7,37.2,31.1,69.3,28.4c21.5-1.8,43.1-2.4,64.7-2.9c30.1-0.7,79.3,9,93.6-26.3
			c17.9-44,8.5-113.4,9.2-160.5c2-127.8,24.2-264.8-30.1-385.3C1056,48.1,1014,1.5,962.8-10.3L962.8-10.3z"/>
		
			<polygon style="clip-path:url(#SVGID_00000158746040456714354170000002971714790985761943_);fill-rule:evenodd;clip-rule:evenodd;fill:#F3F2F9;" points="
			1102.2,172.7 832.9,172.7 832.9,317.8 1102.2,317.8 1102.2,172.7 		"/>
		
			<path style="clip-path:url(#SVGID_00000158746040456714354170000002971714790985761943_);fill-rule:evenodd;clip-rule:evenodd;fill:#DCDAED;" d="
			M1046.8,172.7h-26.6c0,0,15.4,27.5,14.9,145.1h30.3C1065.3,317.8,1079.2,242.5,1046.8,172.7L1046.8,172.7z"/>
	</g>
	<path class="st15" d="M967.6,201c24.9,0,45.1,20.2,45.1,45.1c0,24.9-20.2,45.1-45.1,45.1s-45.1-20.2-45.1-45.1
		C922.5,221.2,942.7,201,967.6,201L967.6,201z"/>
	<path class="st16" d="M967.6,210.2c19.8,0,35.9,16.1,35.9,35.9c0,19.8-16.1,35.9-35.9,35.9c-19.8,0-35.9-16.1-35.9-35.9
		C931.7,226.2,947.7,210.2,967.6,210.2L967.6,210.2z"/>
	<path class="st8" d="M967.7,490.5c0,0-23.7,104.7,0,214.1C967.7,704.6,991.7,631.1,967.7,490.5L967.7,490.5z"/>
	<path class="st10" d="M741.4,1218.5c2.9-13.9,13.3-25.6,27.9-29.6c4.2-1.1,8.5-1.5,12.6-1.2c6.3-21.7,23.4-39.6,46.7-45.9
		c4.7-1.3,9.4-2,14.1-2.2c0.1-12.5,8.4-23.9,21-27.2c12.7-3.4,25.7,2.4,31.9,13.3c5,0.6,9.7,2.5,13.6,5.5c5.1-3.1,10.8-5.5,16.8-7.1
		c20.1-5.4,40.5-1,56.1,10.3c2.9-8.8,10-16,19.6-18.5c8.7-2.3,17.6-0.3,24.3,4.7c5.1-3.1,10.8-5.5,16.8-7.1
		c22.4-6,45.3,0.2,61.5,14.6c2.9-8.8,10-16.1,19.6-18.7c15.1-4,30.6,4.9,34.7,20c4,15.1-4.9,30.6-20,34.7c-4.5,1.2-9.1,1.3-13.4,0.3
		c0.6,2.8,1,5.6,1.2,8.4c8.7,2.4,16.4,7.8,21.7,15.3c2.9-2.2,6.2-3.9,10-4.9c15.1-4,30.6,4.9,34.7,20c1.4,5.2,1.2,10.5-0.2,15.4
		H741.4L741.4,1218.5z"/>
</g>
</svg>
