<?xml version="1.0" encoding="utf-8"?>
<!-- Generator: Adobe Illustrator 25.4.1, SVG Export Plug-In . SVG Version: 6.00 Build 0)  -->
<svg version="1.1" id="Layer_1" xmlns="http://www.w3.org/2000/svg" xmlns:xlink="http://www.w3.org/1999/xlink" x="0px" y="0px"
	 viewBox="0 0 918.5 998.6" style="enable-background:new 0 0 918.5 998.6;" xml:space="preserve">
<style type="text/css">
	.st0{fill-rule:evenodd;clip-rule:evenodd;fill:#043B5F;}
	.st1{fill-rule:evenodd;clip-rule:evenodd;fill:#FEB591;}
	.st2{fill-rule:evenodd;clip-rule:evenodd;fill:#4B5563;}
	.st3{fill-rule:evenodd;clip-rule:evenodd;fill:#FFFFFF;}
	.st4{fill-rule:evenodd;clip-rule:evenodd;fill:#B4AED9;}
	.st5{fill-rule:evenodd;clip-rule:evenodd;fill:#FC383C;}
	.st6{fill-rule:evenodd;clip-rule:evenodd;fill:#FD575A;}
	.st7{fill-rule:evenodd;clip-rule:evenodd;fill:#C5C1E2;}
	.st8{fill-rule:evenodd;clip-rule:evenodd;fill:#FD696C;}
	.st9{fill-rule:evenodd;clip-rule:evenodd;fill:#FDBA69;}
	.st10{fill-rule:evenodd;clip-rule:evenodd;fill:#03304D;}
	.st11{fill-rule:evenodd;clip-rule:evenodd;fill:#FAFAFA;}
	.st12{fill-rule:evenodd;clip-rule:evenodd;fill:#E9E9E9;}
	.st13{fill-rule:evenodd;clip-rule:evenodd;fill:#054D7B;}
	.st14{fill-rule:evenodd;clip-rule:evenodd;fill:#020607;}
	.st15{fill-rule:evenodd;clip-rule:evenodd;fill:#482514;}
	.st16{fill-rule:evenodd;clip-rule:evenodd;fill:#17110E;}
	
		.st17{clip-path:url(#SVGID_00000070806719462575544460000006041966257056685752_);fill-rule:evenodd;clip-rule:evenodd;fill:#FD7430;}
	.st18{fill-rule:evenodd;clip-rule:evenodd;fill:#3B2413;}
</style>
<g>
	<path class="st0" d="M567.9,707.1c0,0,25.5-315-25.9-368c-51.3-52.9-133.9,20.9-113,137.4c21,116.5,42.9,149.1,48.5,202
		C488.3,700.4,532.7,738.8,567.9,707.1L567.9,707.1z"/>
	<path class="st0" d="M66.6,666.1l0.1,0.9c0,0,324.7,59.6,393.5,28.2c0,0,103-61.5,3.4-124c0,0-330.9,83.5-402,60.9l0.1,0.8
		c-4.5-1.7-0.8,34.9,1.9,34.3c1-0.2,1.9-0.5,2.8-1C66.4,666.2,66.5,666.1,66.6,666.1L66.6,666.1z"/>
	<path class="st1" d="M74.1,678.9c0,0-34.9,2.5-52.4-10.2c0,0-12.8-10.2-3.2-15.4c0,0-3.7-11.5,3.9-14.9c0,0-7.3-9.6,1.9-12.4
		c9.3-2.7,1.6-9.2,13.5-8.5c0,0,47.8,6.5,52.3,19.2C92.3,645.8,81.8,670.4,74.1,678.9L74.1,678.9z"/>
	<path class="st2" d="M245.2,494.2c0-1.4-1.1-2.5-2.5-2.5c-22.3,0-183.4,0-205.7,0c-1.4,0-2.5,1.1-2.5,2.5c0,27.9,0,276.8,0,304.7
		c0,1.4,1.1,2.5,2.5,2.5c22.3,0,183.4,0,205.7,0c1.4,0,2.5-1.1,2.5-2.5C245.2,771,245.2,522.1,245.2,494.2L245.2,494.2z"/>
	<path class="st3" d="M235.8,502.5c0-1.4-1.1-2.5-2.5-2.5c-21,0-166,0-187,0c-1.4,0-2.5,1.1-2.5,2.5c0,27,0,261,0,288
		c0,1.4,1.1,2.5,2.5,2.5c21,0,166,0,187,0c1.4,0,2.5-1.1,2.5-2.5C235.8,763.5,235.8,529.6,235.8,502.5L235.8,502.5z"/>
	<polygon class="st4" points="186.1,526 216.8,526 209.3,536.6 216.8,547.2 186.1,547.2 186.1,526 	"/>
	<polygon class="st5" points="204.8,734.5 221,783.9 208.5,780 200.8,790.5 184.6,741.1 204.8,734.5 	"/>
	<polygon class="st6" points="180.2,734.5 164,783.9 176.5,780 184.3,790.5 200.4,741.1 180.2,734.5 	"/>
	<polygon class="st4" points="93.4,526 62.7,526 70.3,536.6 62.7,547.2 93.4,547.2 93.4,526 	"/>
	<polygon class="st7" points="81.2,520.4 198.4,520.4 198.4,541.7 81.2,541.7 81.2,520.4 	"/>
	<polygon class="st4" points="74.9,571.2 204.7,571.2 204.7,576.5 74.9,576.5 74.9,571.2 	"/>
	<polygon class="st4" points="71.8,661.7 201.5,661.7 201.5,667 71.8,667 71.8,661.7 	"/>
	<polygon class="st4" points="81.7,679.4 191.6,679.4 191.6,684.7 81.7,684.7 81.7,679.4 	"/>
	<polygon class="st4" points="57.5,728.3 113.5,728.3 113.5,733.7 57.5,733.7 57.5,728.3 	"/>
	<polygon class="st4" points="57.5,746 130.7,746 130.7,751.4 57.5,751.4 57.5,746 	"/>
	<path class="st8" d="M200.8,714.4c0-2.3-3.7-4.3-8.3-4.3c-4.6,0-8.3,1.9-8.3,4.3c-1.7-1.7-5.6-0.4-8.9,2.9
		c-3.2,3.2-4.5,7.2-2.9,8.9c-2.3,0-4.3,3.7-4.3,8.3c0,4.6,1.9,8.3,4.3,8.3c-1.7,1.7-0.4,5.6,2.9,8.9c3.2,3.2,7.2,4.5,8.9,2.9
		c0,2.3,3.7,4.3,8.3,4.3c4.6,0,8.3-1.9,8.3-4.3c1.7,1.7,5.6,0.4,8.9-2.9c3.2-3.2,4.5-7.2,2.9-8.9c2.3,0,4.3-3.7,4.3-8.3
		c0-4.6-1.9-8.3-4.3-8.3c1.7-1.7,0.4-5.6-2.9-8.9C206.5,714,202.5,712.7,200.8,714.4L200.8,714.4z"/>
	<path class="st9" d="M192.5,716.7c-9.8,0-17.8,8-17.8,17.8c0,9.8,8,17.8,17.8,17.8c9.8,0,17.8-8,17.8-17.8
		C210.3,724.7,202.3,716.7,192.5,716.7L192.5,716.7z"/>
	<polygon class="st4" points="57.5,588.9 222.1,588.9 222.1,594.2 57.5,594.2 57.5,588.9 	"/>
	<polygon class="st4" points="57.5,626.3 222.1,626.3 222.1,631.6 57.5,631.6 57.5,626.3 	"/>
	<polygon class="st4" points="57.5,606.6 222.1,606.6 222.1,612 57.5,612 57.5,606.6 	"/>
	<polygon class="st4" points="57.5,644 222.1,644 222.1,649.3 57.5,649.3 57.5,644 	"/>
	<path class="st1" d="M34.9,615.8c0.5-0.2,0.6,1,1,1.5c0.7,1,1.5,1.9,2.4,2.7c4.2,4.2,9.5,6.4,9.3,13.3c-0.1,3.3-0.9,6.6-1.1,9.9
		c-0.3,5.3,0,10.5-0.5,15.8c-0.3,2.9-0.9,8.2-3,10.5c-1.4,1.5-6.9,2.7-8.6,2.3c-3.8-1-7.9-3.4-9.8-7.4c-1.8-3.7,0.7-10,1.5-13.7
		C27.4,644.7,33.3,621.5,34.9,615.8L34.9,615.8z"/>
	<path class="st10" d="M717.1,999.2c5.3-65.4-21.7-192.3-8.1-278.8c34.5-219.3,36.6-285.5-10.8-366.6c0,0-88.6-106.1-180.9-58.8
		c-92.3,47.3-104.6,138-108.7,247.7c-10.5,287-1.2,286.4-19.9,455.2c0.3,0.4,0.5,0.9,0.8,1.3H717.1L717.1,999.2z"/>
	<path class="st11" d="M595.2,304.4c0,0-44.1-2.7-53.7-8.9l-24.6,203.9l35.6,6.3L595.2,304.4L595.2,304.4z"/>
	<path class="st12" d="M591.3,285.9c0.4,0.1-0.4,1.1-0.7,1.5c-0.5,1-1.1,2-1.7,2.9c-1.9,3-3.9,5.8-6.1,8.3c-4.3,5.1-5.4,9-10.6,11.5
		c-2,1-6.3,0.4-7.9,2.6c-0.4,0.5,2.6,4.9,2.8,5.3c1.8,3.2,2.7,7.7,3.5,11.8c2.1,10.5,3.4,23.2,3.8,22.9c1.8-1.5,8.1-3,9.7-5
		c7.1-8.9,9.3-21.7,10.9-38.5c0.6-5.8,0.8-20.3-4.3-23.5"/>
	<path class="st12" d="M562.8,312.6c0.1-0.7-9.1,2.3-9.4,2.6c-3.3,2.7-5.9,5.9-7.8,9.1c-3.2,5.4-4.3,11.2-4.5,16.8
		c0,0.7,0.4,8.8-0.5,8.6c-2-0.4-3.4-2.9-4.2-4.1c-3-4.4-4.2-9.5-4.4-14.6c-0.1-5.5,1-11.2,3.1-16.7c2-5.2,4.1-10.5,7.3-15.5
		c1.3-2,2.4-4.1,4.1-6c0.5-0.5,2-1.6,2.1-1.1c0.9,5.2-1.2,9.7,3.9,14c2.3,1.9,4.8,4,7.7,5.5C560.7,311.4,563.1,312.1,562.8,312.6"/>
	<path class="st13" d="M507.3,654.2l-39.2-163.2l22.7-26.6l-9.5-38.2c0,0,10.7-145.1,65.1-139.9L507.3,654.2L507.3,654.2z"/>
	<polygon class="st14" points="571.2,329 568.9,313.8 558.3,311.9 550.2,318.9 553.4,336.1 506.1,540.1 502.8,636.2 507.3,655.3 
		516.6,640.3 544.6,544.4 566.6,338.2 571.2,329 	"/>
	<path class="st1" d="M474.9,887.1c0,0-58.1,3.5-73.9,21.4c0,0-13.9,9.7-1.4,16.1c0,0-2.2,12.4,5.7,13.5c0,0,2,11.8,11.6,11.7
		c9.5-0.1,3.4,12.7,15,8.4c0,0,65.7-50.5,68.6-64.3L474.9,887.1L474.9,887.1z"/>
	<path class="st0" d="M723.9,602.7c0,0-165.8,213.3-247.7,266.9c-6.9,4.5-13.3,14.4-18.9,16.3c3.1,14,16.8,24.4,35.8,27.3
		c0,0,199.3-127.5,291.7-208.8C805.3,686.4,760.1,585.3,723.9,602.7L723.9,602.7z"/>
	<path class="st0" d="M790,685.6c0,0-46.7-311.4-102.1-338.1c-35.2-17-106.9-5-59.7,149.9c22.8,75,44.8,149.8,52.8,173.3
		C703.8,687.2,776.2,741.2,790,685.6L790,685.6z"/>
	<path class="st15" d="M577.8,209.5c0,0,0.2,0,0.3,0c1.7-1.2,3.2-3.5,4.3-5.2c2.4-3.7,4.5-7.6,6-11.8c4.2-12.6,4.6-26.6,5.4-39.8
		c2.5-40.1,0.2-78.1-29.2-107c-12.5-12.3-36.4-18.3-53.1-16.6c-35.1,3.5-63.5,15-72.6,50c-2.2,8.4-1.3,30.7-0.4,42.9"/>
	<path class="st16" d="M440.1,122.9c-1.3-0.3-1.6-2.1-1.9-3.4c-0.9-3.4-1.4-6.9-1.5-10.4c-0.7-14.3-2.4-34.5,4.9-47.4
		c13.2-23.6,48.2-30,56.4-32.2c23.4-6.4,55.7-0.3,73.9,16.4c5.4,5,9.5,11.1,13.5,17.2c22,34.2,21.9,76,15,114.8
		c-2,11.4-6.2,21.3-9.5,32.2c-1.5,4.9-1.7,11-4.8,15.3c-5.6,7.7-16,2.8-21.2-2.6c-9.2-9.6-12.2-26.5-14.8-39
		C545.2,160.7,463.5,128.5,440.1,122.9L440.1,122.9z"/>
	<path class="st13" d="M507.3,654.2l94.5-142.5l-12.9-33.2l21.1-32.6c0,0,33.7-145.8-19.1-160.3c2.1,7.7,1.5,15.9-5.7,24.9
		L507.3,654.2L507.3,654.2z"/>
	<path class="st1" d="M531.5,241.3l13.7,62.5c0,0,11.9,13.9,20.7,13.7c9.9-0.2,24.7-4.1,26.6-25.5l-20.2-110.4L531.5,241.3
		L531.5,241.3z"/>
	<g>
		<defs>
			<path id="SVGID_1_" d="M531.5,241.3l13.7,62.5c0,0,11.9,13.9,20.7,13.7c9.9-0.2,24.7-4.1,26.6-25.5l-20.2-110.4L531.5,241.3
				L531.5,241.3z"/>
		</defs>
		<clipPath id="SVGID_00000142886290155340716080000007205307497901773446_">
			<use xlink:href="#SVGID_1_"  style="overflow:visible;"/>
		</clipPath>
		
			<path style="clip-path:url(#SVGID_00000142886290155340716080000007205307497901773446_);fill-rule:evenodd;clip-rule:evenodd;fill:#FD7430;" d="
			M578.2,208.1c-0.6-0.8,0.3,2.1,0.1,3.2c-0.3,2.3-0.8,4.5-1.4,6.7c-1.8,6.5-4,12.8-6.6,19c-7.6,17.9-19.4,36.6-34.7,49
			c-3.6,2.9-14.9,11.8-20,7.6c-3.3-2.7-1.7-10.1-1.3-13.6c1.8-15.2,4.7-30.4,7.8-45.4c4.1-20.4,8.8-40.7,14.2-60.8
			c1.8-6.5,4-18.2,11.7-20.4c10.4-3,26.8,6.1,37.3,8.1"/>
	</g>
	<path class="st1" d="M438.8,78.9c0,0-11.4,192.3,57.6,194.5c69,2.2,86.5-88.5,86.5-88.5L548.2,44.8
		C511.3,54.9,473.1,61.4,438.8,78.9L438.8,78.9z"/>
	<polygon class="st18" points="574.6,136.3 516.7,141.6 518.3,148.8 572.6,140.3 574.6,136.3 	"/>
	<path class="st18" d="M493.4,128.5c12.9-1.9,25.2,8.3,27.4,22.9c2.2,14.6-6.5,28-19.5,29.9c-12.9,1.9-25.2-8.3-27.4-22.9
		C471.8,143.9,480.5,130.5,493.4,128.5L493.4,128.5z M493.8,131.2c11.7-1.8,22.7,7.5,24.7,20.6c2,13.1-5.9,25.2-17.6,26.9
		c-11.7,1.8-22.7-7.5-24.7-20.6C474.3,145,482.2,132.9,493.8,131.2L493.8,131.2z"/>
	<path class="st18" d="M443.1,136.1c12.3-1.8,24,7.9,26.1,21.7c2.1,13.8-6.2,26.6-18.5,28.4c-12.3,1.8-24-7.9-26.1-21.7
		C422.5,150.7,430.8,138,443.1,136.1L443.1,136.1z M443.4,138.6c11.1-1.7,21.6,7.1,23.5,19.6c1.9,12.5-5.6,23.9-16.7,25.6
		c-11.1,1.7-21.6-7.1-23.5-19.6C424.9,151.7,432.4,140.3,443.4,138.6L443.4,138.6z"/>
	<path class="st18" d="M476,144.7c-1.7-1.1-3.5-1.8-5.6-1.8c-2.4-0.1-5.9,0.5-7.4,2.7c-0.7,1,0.2,1.2,0.8,1.9
		c0.2,0.2,0.7,0.8,0.7,0.8s0.4-0.4,0.6-0.6c0.4-0.3,0.9-0.6,1.4-0.8c1.5-0.7,3.2-0.9,4.9-0.8c1.1,0.1,2.3,0.3,3.3,0.8
		c0.3,0.1,0.7,0.4,0.9,0.6c0.1,0.1,0.3,0.6,0.2,0.4"/>
	<path class="st1" d="M571.7,142.9c0.5,0,1.8-4.7,1.9-5.1c1.6-4,8-17.5,15-12c2.6,2.1,3.1,5.8,3.4,8.8c0.8,7.9-0.2,15.7-2.7,23.2
		c-0.7,2.2-3.3,9.5-7.1,9.3c-2.7-0.2-4.6-2.9-6.1-4.6"/>
	<path class="st16" d="M438.8,80.7c0.3,0,3.7-2.8,4.2-3c3.8-2.1,8.5-3.6,12.7-4.2c9-1.3,17.8,3.5,26.3,2.2
		c5.3-0.8,10.2-4.5,15.2-6.4c8.5-3.3,17.9-5.6,27-5.7c9.9-0.1,20.5,1.4,28.1,8.2c3.3,2.9,5.5,6.6,7.7,10.4c0.4,0.7,1.8,3.5,3,2.7
		c2.9-2.1,2.2-9.9,2-12.7c-0.6-12.6-7.7-26.3-19.8-31.3c-12.6-5.2-97.4,21.7-107.4,37.2C437.3,78.9,437.4,81.5,438.8,80.7"/>
</g>
</svg>
